<svg width="16" height="16" viewBox="0 0 16 16" fill="none" xmlns="http://www.w3.org/2000/svg">
<path d="M3.89994 13.2104C3.74841 13.2104 3.58005 13.176 3.44536 13.0902C3.36117 13.0387 3.29383 12.9872 3.22648 12.9357C3.04128 12.7468 2.94027 12.5065 2.94027 12.249L2.83925 3.39061C2.83925 3.37345 2.83925 3.35628 2.83925 3.33911L0.532671 3.99147C0.347471 4.04297 0.195944 4.16315 0.094926 4.33482C-0.00609205 4.50649 -0.0229284 4.69533 0.0275806 4.88418L2.28365 13.4335C2.33416 13.6224 2.45201 13.7769 2.62038 13.8799L2.5867 14.0001L2.63721 13.8971C2.80558 13.9829 2.99078 14.0001 3.15914 13.9657L5.9203 13.2104H3.89994ZM1.64387 5.29619C1.59336 5.31336 1.54285 5.31336 1.49234 5.29619L1.6607 5.51937C1.67754 5.53654 1.6607 5.57087 1.64387 5.57087L1.30714 5.65671C1.29031 5.65671 1.25663 5.63954 1.27347 5.62237L1.32398 5.34769C1.27347 5.38203 1.22296 5.41636 1.17245 5.43353C1.02092 5.46787 0.869397 5.38203 0.818888 5.22752C0.785216 5.09018 0.852561 4.93568 0.987252 4.88418C0.970415 4.86701 0.970415 4.84984 0.953579 4.81551C0.919906 4.661 1.00409 4.50649 1.15561 4.45499C1.30714 4.42066 1.45867 4.50649 1.50918 4.661C1.50918 4.67817 1.50918 4.7125 1.52601 4.72967C1.6607 4.7125 1.7954 4.79834 1.8459 4.93568C1.87958 5.10735 1.7954 5.26186 1.64387 5.29619Z" fill="url(#paint0_linear_1227_3986)"/>
<path d="M4.53972 12.1632C4.38819 12.0774 4.27034 11.9572 4.18616 11.8027C4.05147 11.5795 4.0178 11.322 4.0683 11.0645L6.12234 2.61816L3.79892 2.6525C3.41169 2.6525 3.0918 2.97868 3.0918 3.3907L3.19281 12.2491C3.19281 12.4379 3.277 12.6267 3.41169 12.7641C3.4622 12.8156 3.51271 12.8499 3.58005 12.8843C3.68107 12.9358 3.78209 12.9701 3.89994 12.9701H3.93361L7.43557 12.9358L4.79227 12.2662C4.69125 12.2319 4.60707 12.2147 4.53972 12.1632ZM3.8326 4.07739C3.81576 4.06022 3.81576 4.02589 3.8326 3.99155L4.23667 3.3907C4.27034 3.35636 4.32085 3.35636 4.35452 3.3907L4.77543 3.97439C4.79227 3.99155 4.79227 4.02589 4.77543 4.06022L4.37136 4.66108C4.33769 4.69542 4.28718 4.69542 4.2535 4.66108L3.8326 4.07739Z" fill="url(#paint1_linear_1227_3986)"/>
<path d="M5.33098 10.8069C5.26364 10.5494 5.28047 10.2918 5.39833 10.0687L9.3717 2.54936L7.23349 2.01717C7.18298 2 7.11564 2 7.06513 2C6.74524 2 6.44218 2.22318 6.37484 2.54936L4.30397 11.133C4.25346 11.3219 4.28713 11.5107 4.38815 11.6824C4.45549 11.8026 4.55651 11.8884 4.65753 11.9571C4.70804 11.9914 4.75855 12.0086 4.82589 12.0258L8.74876 13.0215L5.78556 11.3906C5.56669 11.2532 5.39833 11.0472 5.33098 10.8069ZM7.13247 2.8412C7.19982 2.80687 7.26716 2.7897 7.33451 2.80687C7.40185 2.82403 7.45236 2.85837 7.50287 2.92704L7.53654 2.97854L7.58705 2.94421C7.6544 2.90987 7.72174 2.8927 7.78909 2.90987C7.85643 2.92704 7.90694 2.96137 7.95745 3.03004C8.0248 3.15021 7.99112 3.32189 7.87327 3.39056L7.38502 3.69957C7.36818 3.71674 7.33451 3.69957 7.31767 3.6824L7.04829 3.21888C6.98094 3.08155 7.01462 2.92704 7.13247 2.8412Z" fill="url(#paint2_linear_1227_3986)"/>
<path d="M15.9718 5.2447C15.9213 5.05586 15.7866 4.90136 15.6351 4.81552L10.7021 2.08591C10.3485 1.89706 9.9276 2.0344 9.72556 2.37775L5.61749 10.1717C5.53331 10.3434 5.51648 10.5323 5.56699 10.7211C5.61749 10.9099 5.73535 11.0644 5.90371 11.1503L10.8199 13.8627C11.1735 14.0516 11.5944 13.9314 11.7964 13.5709L15.9213 5.79406C16.0055 5.62239 16.0224 5.43355 15.9718 5.2447ZM10.2475 3.04728L10.8199 2.87561C10.8536 2.87561 10.8704 2.87561 10.8873 2.90994L11.0556 3.49363C11.1061 3.64814 11.022 3.81981 10.8704 3.87131C10.7862 3.90565 10.7189 3.88848 10.6516 3.85415C10.601 3.81981 10.5674 3.78548 10.5337 3.73397L10.5169 4.00865C10.5169 4.02582 10.4832 4.04299 10.4664 4.04299L10.1633 3.87131C10.1465 3.85415 10.1465 3.83698 10.1633 3.81981L10.3653 3.66531C10.3148 3.66531 10.2475 3.66531 10.2138 3.63097C10.1465 3.59664 10.096 3.52797 10.0791 3.4593C9.99494 3.27046 10.096 3.09878 10.2475 3.04728ZM11.2913 12.9185L10.7189 13.0902C10.6852 13.0902 10.6684 13.0902 10.6516 13.0559L10.4832 12.4722C10.4327 12.3177 10.5169 12.146 10.6684 12.0945C10.7526 12.0602 10.8199 12.0773 10.8873 12.1117C10.9378 12.146 10.9714 12.1803 11.0051 12.2318L11.022 11.9572C11.022 11.94 11.0556 11.9228 11.0725 11.9228L11.3755 12.0945C11.3924 12.1117 11.3924 12.1288 11.3755 12.146L11.1735 12.3005C11.224 12.3005 11.2913 12.3005 11.325 12.3348C11.3924 12.3692 11.4429 12.4378 11.4597 12.5065C11.527 12.7125 11.4429 12.867 11.2913 12.9185ZM11.6112 9.33054C11.3755 9.39921 11.1398 9.38204 10.9378 9.26187C10.7862 9.17604 10.6684 9.05586 10.6011 8.91852L10.5337 9.70822C10.5337 9.77689 10.4495 9.8284 10.399 9.79406L9.50669 9.29621C9.43934 9.26187 9.43934 9.17603 9.48985 9.12453L10.096 8.64385C9.9276 8.66101 9.75923 8.62668 9.62454 8.54084C9.43934 8.43784 9.27098 8.249 9.20363 8.02582C9.06894 7.5623 9.32149 7.08161 9.77607 6.94428L11.4597 6.42925C11.527 6.41209 11.6112 6.44642 11.6449 6.53226L12.15 8.23183C12.2847 8.67818 12.049 9.17603 11.6112 9.33054Z" fill="url(#paint3_linear_1227_3986)"/>
<defs>
<linearGradient id="paint0_linear_1227_3986" x1="2.96015" y1="3.33911" x2="2.96015" y2="14.0001" gradientUnits="userSpaceOnUse">
<stop/>
<stop offset="1" stop-color="#666666"/>
</linearGradient>
<linearGradient id="paint1_linear_1227_3986" x1="5.26368" y1="2.61816" x2="5.26368" y2="12.9701" gradientUnits="userSpaceOnUse">
<stop/>
<stop offset="1" stop-color="#666666"/>
</linearGradient>
<linearGradient id="paint2_linear_1227_3986" x1="6.82623" y1="2" x2="6.82623" y2="13.0215" gradientUnits="userSpaceOnUse">
<stop/>
<stop offset="1" stop-color="#666666"/>
</linearGradient>
<linearGradient id="paint3_linear_1227_3986" x1="10.7694" y1="2.00073" x2="10.7694" y2="13.9513" gradientUnits="userSpaceOnUse">
<stop/>
<stop offset="1" stop-color="#666666"/>
</linearGradient>
</defs>
</svg>
