<svg width="16" height="16" viewBox="0 0 15 16" fill="none" xmlns="http://www.w3.org/2000/svg">
<path d="M4.40209 7.88456C4.38085 7.88456 4.35916 7.88243 4.33762 7.87819C4.15862 7.84269 4.04243 7.66885 4.07792 7.48985C4.67908 4.45843 4.11766 2.51495 3.6095 1.48132L3.08631 1.1881C2.9821 1.1297 2.91748 1.01957 2.91748 0.900035V0.330125C2.91748 0.197091 2.99727 0.0771023 3.11984 0.0256784C3.24256 -0.025594 3.38408 0.00125537 3.47889 0.094243C3.50953 0.12443 3.76574 0.383218 4.05957 0.90155C5.09487 0.858621 9.22513 1.04505 11.7268 6.53389C11.8025 6.69984 11.7293 6.89552 11.5633 6.97106C11.3968 7.04691 11.2012 6.97349 11.1258 6.80754C8.94754 2.02862 5.5997 1.55246 4.3763 1.54867C4.87977 2.74431 5.30102 4.71752 4.72565 7.61849C4.69455 7.77564 4.55651 7.88456 4.40209 7.88456Z" fill="black"/>
<path d="M8.54677 10.578C8.37142 9.7537 7.97566 8.67001 7.08674 8.18793C6.51759 7.87878 5.79964 7.84541 4.94743 8.0866C5.53084 8.35085 5.92508 8.61449 5.95755 8.63663C6.05827 8.7049 6.08466 8.84142 6.01656 8.94214C5.94875 9.04317 5.81177 9.06926 5.7109 9.0013C5.69573 8.99099 4.17168 7.97374 2.69238 7.97374C1.23219 7.97374 0 9.97365 0 11.2297C0 14.4185 1.37478 15.9685 4.20263 15.9685C5.64628 15.9685 6.7738 15.4798 7.55395 14.5159C8.61033 13.2111 8.72365 11.4081 8.54677 10.578ZM2.4641 9.9855C2.42146 10.1432 2.29178 10.2623 2.13303 10.2981C2.06367 10.3137 1.58423 10.3772 1.46019 10.3368C1.27751 10.2775 1.17241 10.0965 1.17544 9.90886C1.18069 9.58234 1.42629 9.35842 1.70357 9.31038C2.04016 9.25206 2.20778 9.34896 2.30822 9.44584C2.40657 9.54072 2.45553 9.6501 2.47804 9.78091C2.48727 9.83698 2.482 9.91938 2.4641 9.9855Z" fill="black"/>
<path d="M14.6398 7.9425C14.3552 7.41158 13.9116 7.02507 13.4235 6.88187C12.7612 6.68861 12.4627 6.88278 12.1745 7.07088C12.0071 7.1804 11.8341 7.29356 11.6153 7.29356C11.4155 7.29356 11.2372 7.23956 11.0307 7.17706C10.6989 7.07664 10.286 6.95165 9.52091 6.95165C8.6096 6.95165 8.04398 7.88826 7.86572 8.2351C8.3868 8.74465 8.7685 9.50467 8.97755 10.4864C9.07996 10.9676 9.09029 11.7476 8.90982 12.5856C9.2571 12.7501 10.1882 13.1527 11.1423 13.2335C12.5871 13.3558 14.0539 13.2881 14.7499 11.0473C15.1176 9.86353 15.0787 8.76103 14.6398 7.9425ZM10.1007 8.8711C9.94815 8.86582 9.79746 8.76323 9.65567 8.71137C9.65085 8.70961 9.64732 8.70604 9.64262 8.70411C9.54323 8.66964 9.45744 8.58198 9.43135 8.48704C9.3833 8.31221 9.49271 8.16733 9.64833 8.10489C9.94193 7.9871 10.3551 8.14247 10.4386 8.46108C10.4952 8.67722 10.3175 8.8786 10.1007 8.8711Z" fill="black"/>
</svg>
