<svg width="16" height="16" viewBox="0 0 16 16" fill="none" xmlns="http://www.w3.org/2000/svg">
<path d="M8.18984 9.14283C8.22414 9.42855 8.00117 9.68065 7.69244 9.68065H6.2517L5.49702 8.65544C5.27405 8.36972 4.93102 8.18485 4.55368 8.18485C4.19349 8.18485 3.85046 8.35291 3.62749 8.65544L2.87281 9.68065H1.50067C1.20909 9.68065 0.968969 9.42855 1.00327 9.14283L1.17479 7.51258C1.29485 6.5546 1.96377 5.78149 2.83851 5.47896L2.85566 5.46216C3.33591 5.8151 3.93622 6.03359 4.58798 6.03359C5.23975 6.03359 5.84006 5.83191 6.3203 5.47896H6.35461C7.22935 5.79829 7.89826 6.5714 8.01832 7.52939L8.18984 9.14283Z" fill="white"/>
<path d="M2.46094 3.15968C2.46094 4.31934 3.42143 5.26052 4.6049 5.26052C5.78837 5.26052 6.74887 4.31934 6.74887 3.15968C6.74887 2.00001 5.78837 1.05884 4.6049 1.05884C3.42143 1.05884 2.46094 2.00001 2.46094 3.15968Z" fill="white"/>
<path d="M13.1632 11.7646H13.146C12.6658 12.1176 12.0655 12.3193 11.4137 12.3193C10.762 12.3193 10.1617 12.1176 9.6814 11.7646L9.6471 11.7815C8.77236 12.1008 8.10345 12.8739 7.98338 13.8319L7.81187 15.4621C7.77756 15.7478 8.01769 15.9999 8.30927 15.9999H14.501C14.7926 15.9999 15.0156 15.7478 14.9984 15.4621L14.8269 13.8487C14.7069 12.8571 14.0551 12.084 13.1632 11.7646Z" fill="white"/>
<path d="M9.25293 9.44532C9.25293 10.605 10.2134 11.5462 11.3969 11.5462C12.5804 11.5462 13.5409 10.605 13.5409 9.44532C13.5409 8.28566 12.5804 7.34448 11.3969 7.34448C10.2134 7.34448 9.25293 8.28566 9.25293 9.44532Z" fill="white"/>
<path d="M6.26869 11.9665H5.56547C5.61692 13.0421 6.01141 14.0337 6.66318 14.8236C6.74894 14.9245 6.66318 15.0757 6.52597 15.0589C4.9137 14.8573 3.66163 13.5631 3.57587 11.9665H2.8555C2.56392 11.9665 2.3924 11.6472 2.56392 11.4119L4.26194 9.10936C4.39915 8.92448 4.69073 8.92448 4.82794 9.10936L6.52597 11.4119C6.71463 11.6472 6.54312 11.9665 6.26869 11.9665Z" fill="white"/>
<path d="M11.3969 0C9.61311 0 8.17236 1.41176 8.17236 3.15966C8.17236 4.90756 9.61311 6.31933 11.3969 6.31933C13.1807 6.31933 14.6214 4.90756 14.6214 3.15966C14.6214 1.41176 13.1807 0 11.3969 0ZM12.9234 2.70588L11.2254 4.36975C11.1396 4.45378 11.0367 4.48739 10.9338 4.48739C10.8309 4.48739 10.7451 4.45378 10.6765 4.36975L9.83608 3.54622C9.68171 3.39496 9.68171 3.14286 9.83608 2.9916C9.99045 2.84034 10.2477 2.84034 10.4021 2.9916L10.9681 3.54622L12.3745 2.16807C12.5289 2.01681 12.7862 2.01681 12.9405 2.16807C13.0949 2.30252 13.0949 2.55462 12.9234 2.70588Z" fill="white"/>
</svg>
