<svg width="16" height="16" viewBox="0 0 16 16" fill="none" xmlns="http://www.w3.org/2000/svg">
<path d="M8.93377 6.85139C9.07506 7.39563 9.05104 7.93485 8.86596 8.46687C8.83346 8.56033 8.79602 8.65236 8.75364 8.74151C8.6724 8.91334 8.49226 8.98884 8.31635 8.927C8.19555 8.88386 8.20968 8.79687 8.2443 8.69837C8.32977 8.45537 8.42443 8.21452 8.49014 7.96575C8.59822 7.55666 8.52051 7.15693 8.39689 6.76293C8.39548 6.75862 8.39406 6.7543 8.39265 6.74927C8.38135 6.72267 8.3658 6.70182 8.34391 6.68312C8.31918 6.66156 8.29304 6.64861 8.26196 6.64143C8.13198 6.61339 8.01542 6.72914 8.04014 6.86214C8.13833 7.22018 8.15105 7.57893 8.05215 7.93986C8.03095 8.01679 8.00199 8.09228 7.96031 8.21809C7.91793 8.13326 7.89249 8.09587 7.88049 8.05417C7.71165 7.45528 7.32171 7.04404 6.80531 6.74208C6.26348 6.42501 5.67714 6.23522 5.06538 6.11947C5.0131 6.1094 4.96153 6.09718 4.91279 6.08711C4.89301 5.75928 4.83579 5.64568 4.68603 5.62411C4.54545 5.60398 4.45715 5.69097 4.35259 5.96273C3.20606 5.58456 2.02837 5.40986 0.797172 5.43358C0.980838 5.82828 1.2507 6.13097 1.52692 6.42214C1.73744 6.59901 2.16836 7.02319 2.36474 7.16771C2.53922 7.2964 2.73491 7.39634 2.91646 7.51568C3.01748 7.58182 3.0973 7.56888 3.19832 7.50561C4.09266 6.94482 4.99618 6.94051 5.90033 7.4826C5.97663 7.52862 6.04727 7.59836 6.0953 7.67385C6.16736 7.78601 6.15323 7.90823 6.05857 8.00745C5.96744 8.10235 5.8643 8.13686 5.73502 8.07431C5.54923 7.98516 5.36343 7.88954 5.16917 7.82554C4.78981 7.70117 4.40128 7.6796 4.01558 7.79679C3.64541 7.90894 3.55498 8.09013 3.6991 8.45678C3.85593 8.85653 4.1272 9.16927 4.46981 9.41803C5.1409 9.90476 5.9102 10.0672 6.71265 10.0974C7.19444 10.1161 7.67762 10.101 8.16011 10.1018C8.49567 10.1032 8.83192 10.1018 9.16747 10.1104C9.23247 10.1125 9.30876 10.1413 9.35892 10.1837C9.74885 10.5173 10.1346 10.8574 10.5203 11.1953C10.5464 11.2183 10.5719 11.2413 10.5987 11.2636C10.5853 11.265 10.5719 11.2657 10.5584 11.2672C8.19822 11.475 6.25974 12.6447 4.39704 14C4.6563 12.68 5.38462 11.6741 6.39267 10.8187C6.1327 10.7813 5.91301 10.7619 5.69896 10.7158C4.69301 10.4973 3.83047 10.0379 3.26461 9.12623C3.13604 8.91917 3.0668 8.67545 2.96296 8.45256C2.93329 8.38858 2.88808 8.31668 2.83015 8.28505C1.9012 7.77388 1.10575 7.10164 0.456556 6.25402C0.253105 5.98801 0.0729651 5.70402 0.0122192 5.36325C-0.0273406 5.14181 0.024935 4.98148 0.231205 4.9024C0.512364 4.79527 0.808354 4.70108 1.10505 4.66946C1.84821 4.59038 2.5949 4.51057 3.34011 4.50266C4.50571 4.49044 5.6741 4.4926 6.83549 4.57168C8.04489 4.65436 9.24868 4.83267 10.4531 4.97789C10.7618 5.01527 10.7526 5.02678 10.8939 4.74782C11.5544 3.44867 12.513 2.49465 13.9216 2.07114C14.0149 2.0431 14.1103 2.02369 14.2056 2.00212C14.2247 1.99781 14.2459 2.0014 14.2861 2.0014C14.2226 2.16029 14.1639 2.30623 14.1067 2.4529C13.7514 3.35736 13.7097 4.2984 13.7959 5.254C13.8142 5.45171 13.8453 5.64798 13.8609 5.84569C13.8729 5.98805 13.9357 6.08654 14.0466 6.1757C14.5998 6.62505 15.0152 7.17146 15.1494 7.89832C15.3013 8.72297 15.0936 9.47356 14.6669 10.1717C14.5539 10.3565 14.4182 10.5276 14.2904 10.7095C13.8185 10.2192 13.3212 9.8094 12.761 9.43553C12.7122 9.58435 12.6564 9.70513 12.6395 9.83023C12.6317 9.88775 12.6889 9.97043 12.7384 10.0179C13.4003 10.6635 14.065 11.3048 14.7305 11.9467C15.1247 12.3264 15.5196 12.7031 15.9152 13.082C15.9343 13.1007 15.9498 13.1215 16 13.1798C15.8467 13.1553 15.7337 13.1409 15.6228 13.1194C14.8429 12.9684 14.1188 12.6564 13.411 12.3055C12.1896 11.7001 11.0926 10.9014 10.0392 10.0358C9.82302 9.85747 9.80253 9.75538 9.90708 9.48935C10.1494 8.87176 10.362 8.24628 10.3267 7.56821C10.3154 7.33815 10.2723 7.10952 10.2363 6.8816C10.2342 6.86794 10.2313 6.855 10.2271 6.84134C10.2221 6.80467 10.2101 6.7752 10.1875 6.74572C10.0667 6.58755 9.81806 6.69324 9.84351 6.89239C9.9629 7.41939 9.94453 7.94567 9.80748 8.46906C9.77993 8.57402 9.73543 8.67683 9.6881 8.77462C9.62593 8.9026 9.5129 8.95077 9.37798 8.94573C9.20844 8.93854 9.16393 8.86234 9.20844 8.69481C9.28756 8.3986 9.37586 8.10239 9.4246 7.79971C9.48041 7.45748 9.4133 7.11886 9.29886 6.79245C9.28826 6.76225 9.27625 6.73133 9.26071 6.70329C9.14557 6.53362 8.88715 6.65152 8.93377 6.85139C8.93448 6.85426 8.93505 6.85715 8.93575 6.86075Z" fill="url(#paint0_linear_1227_3986)"/>
<defs>
<linearGradient id="paint0_linear_1227_3986" x1="8" y1="2" x2="8" y2="14" gradientUnits="userSpaceOnUse">
<stop/>
<stop offset="1" stop-color="#666666"/>
</linearGradient>
</defs>
</svg>
