<svg width="16" height="16" viewBox="0 0 13 16" fill="none" xmlns="http://www.w3.org/2000/svg">
<path fill-rule="evenodd" clip-rule="evenodd" d="M8.42531 6.21728C8.49251 6.23134 9.58004 4.18225 9.72746 3.92147C10.7402 5.10965 11.5207 6.31667 11.5207 7.79535C11.5207 8.70073 11.2916 9.55144 10.8898 10.2897C11.7368 9.49685 12.3631 8.48911 12.7067 7.36819C12.8969 7.99235 13 8.66026 13 9.34848C12.9992 13.0216 10.0894 15.9987 6.5 15.9987C2.91059 15.9987 0 13.0216 0 9.34848C0 8.65948 0.102339 7.99235 0.293268 7.36819C0.636177 8.48997 1.26395 9.49921 2.11245 10.2921C-0.241321 5.9635 4.23474 5.38855 5.58964 0C8.71255 2.10302 8.2748 6.18068 8.42613 6.21748L8.42531 6.21728ZM7.49052 12.1434C7.52718 12.1684 8.41311 10.5662 8.50169 10.4107C9.13101 11.1481 9.61443 11.8965 9.61443 12.8145C9.61443 13.9527 9.02101 15.0041 8.05722 15.5729C7.09416 16.1424 5.90658 16.1424 4.94349 15.5729C3.97967 15.0042 3.38627 13.9527 3.38627 12.8145C3.38627 10.9662 5.34902 9.80296 6.50078 8.03751C8.42613 9.3335 7.41113 12.0918 7.49133 12.1434" fill="black"/>
</svg>
