<svg width="16" height="16" viewBox="0 0 15 16" fill="none" xmlns="http://www.w3.org/2000/svg">
<path d="M13.706 7.44471C13.706 7.09105 13.4239 6.80475 13.0754 6.80475H1.95817C1.60972 6.80475 1.32764 7.09105 1.32764 7.44471V8.32045H13.7225V7.44471H13.706Z" fill="black"/>
<path d="M1.29395 15.3601C1.29395 15.7137 1.57602 16 1.92448 16H13.0417C13.3902 16 13.6723 15.7137 13.6723 15.3601V14.4843H1.29395V15.3601Z" fill="black"/>
<path d="M4.59624 8.94354H0.580752C0.265487 8.94354 0 9.19616 0 9.51614V13.2886C0 13.6085 0.248894 13.8612 0.580752 13.8612H4.61283V8.94354H4.59624ZM3.76659 11.2339L3.20243 11.7897L3.33518 12.5812C3.36836 12.7665 3.16925 12.9181 3.00332 12.8338L2.30642 12.4633L1.60951 12.8338C1.44358 12.9181 1.24447 12.7833 1.27765 12.5812L1.4104 11.7897L0.846239 11.2339C0.696903 11.0824 0.779867 10.8634 0.962389 10.8298L1.74226 10.7119L2.09071 9.98769C2.17367 9.81928 2.42257 9.81928 2.50553 9.98769L2.85398 10.7119L3.63385 10.8298C3.83297 10.8634 3.89934 11.0824 3.76659 11.2339Z" fill="black"/>
<path d="M9.78961 13.8612V8.94354H5.20996V13.8612H9.78961ZM6.15576 10.8298L6.93562 10.7119L7.28408 9.98769C7.36704 9.81928 7.61593 9.81928 7.6989 9.98769L8.04735 10.7119L8.82722 10.8298C9.00974 10.8634 9.0927 11.0992 8.95996 11.2339L8.3958 11.7897L8.52855 12.5812C8.56173 12.7665 8.36262 12.9181 8.19669 12.8338L7.49978 12.4465L6.80288 12.817C6.63695 12.9012 6.43784 12.7665 6.47102 12.5644L6.60377 11.7729L6.03961 11.2171C5.89027 11.0824 5.97324 10.8634 6.15576 10.8298Z" fill="black"/>
<path d="M14.4359 8.94354H10.4038V13.8612H14.4359C14.7512 13.8612 15 13.6085 15 13.2886V9.51614C15 9.19616 14.7512 8.94354 14.4359 8.94354ZM14.1704 11.2339L13.6062 11.7897L13.739 12.5812C13.7722 12.7665 13.5731 12.9181 13.4071 12.8338L12.7102 12.4633L12.0133 12.8338C11.8474 12.9181 11.6483 12.7833 11.6815 12.5812L11.8142 11.7897L11.25 11.2339C11.1173 11.0992 11.1837 10.8634 11.3828 10.8298L12.1627 10.7119L12.5111 9.98769C12.5941 9.81928 12.843 9.81928 12.9259 9.98769L13.2744 10.7119L14.0543 10.8298C14.2368 10.8634 14.3031 11.0824 14.1704 11.2339Z" fill="black"/>
<path d="M7.48334 6.0132C7.63261 6.0132 7.74871 5.91215 7.7653 5.76058L7.9975 0.539827C7.9975 0.522986 7.9975 0.506144 7.9975 0.489303C7.98092 0.203004 7.74871 -0.0159311 7.46675 0.000910027C7.18479 0.0177512 6.96917 0.253527 6.98576 0.539827L7.21796 5.76058C7.25113 5.89531 7.35065 5.99636 7.48334 6.0132Z" fill="black"/>
<path d="M9.72376 5.64271L11.7149 3.43652L11.6154 3.06601L11.2503 2.96497L9.07664 4.9859L9.04345 5.01959C8.87752 5.20484 8.89412 5.50798 9.07664 5.67639C9.25916 5.86164 9.55783 5.8448 9.72376 5.64271Z" fill="black"/>
<path d="M9.10986 3.20072C9.25913 3.28493 9.45816 3.25125 9.54109 3.08283L10.1879 1.98816C10.2045 1.95448 10.2377 1.90395 10.2377 1.85343C10.304 1.58397 10.1382 1.29767 9.87281 1.23031C9.60744 1.16294 9.32547 1.33136 9.25913 1.60081L8.944 2.84706C8.92741 2.98179 8.97717 3.11652 9.10986 3.20072Z" fill="black"/>
<path d="M5.45894 3.08283C5.52529 3.20072 5.67456 3.26809 5.80725 3.2344C5.97311 3.18388 6.08921 3.01547 6.03945 2.84706L5.7409 1.60081C5.72432 1.55029 5.70773 1.49977 5.69115 1.46608C5.54187 1.21347 5.22674 1.1461 4.99453 1.28083C4.74574 1.4324 4.6794 1.75238 4.81209 1.98816L5.45894 3.08283Z" fill="black"/>
<path d="M11.3997 2.34185L12.0469 2.5271C12.0966 2.54394 12.1298 2.57762 12.1464 2.62815L12.3289 3.28495C12.3787 3.45336 12.611 3.50389 12.7106 3.35232L13.0756 2.77972C13.1088 2.74603 13.142 2.71235 13.1918 2.71235L13.8721 2.74603C14.0546 2.76288 14.1542 2.54394 14.038 2.40921L13.6066 1.8703C13.5734 1.83661 13.5734 1.78609 13.59 1.73557L13.8223 1.0956C13.8887 0.927191 13.7228 0.758779 13.5568 0.826144L12.9263 1.06192C12.8765 1.07876 12.8267 1.06192 12.7936 1.04508L12.2626 0.607209C12.1298 0.489321 11.9141 0.607209 11.9307 0.77562L11.9639 1.46611C11.9639 1.51663 11.9473 1.55031 11.8975 1.584L11.3334 1.97134C11.2006 2.07239 11.2338 2.29132 11.3997 2.34185Z" fill="black"/>
<path d="M3.28564 3.43652L5.27679 5.64271L5.30998 5.67639C5.4925 5.8448 5.79118 5.82796 5.95711 5.64271C6.12303 5.45746 6.12303 5.15431 5.92392 4.9859L3.75025 2.96497L3.3852 3.06601L3.28564 3.43652Z" fill="black"/>
<path d="M3.1518 5.77744C3.28449 5.81113 3.43377 5.7606 3.50011 5.62587C3.58304 5.4743 3.54987 5.27221 3.38401 5.188L2.30592 4.5312C2.25616 4.51436 2.22299 4.48067 2.17323 4.48067C1.90786 4.41331 1.6259 4.58172 1.55955 4.85118C1.49321 5.12064 1.65907 5.40694 1.92444 5.4743L3.1518 5.77744Z" fill="black"/>
<path d="M1.12864 2.74598L1.80895 2.71229C1.85873 2.71229 1.89192 2.72914 1.9251 2.77966L2.30674 3.35226C2.4063 3.50383 2.6386 3.47015 2.68838 3.28489L2.8709 2.62809C2.88749 2.57756 2.92068 2.54388 2.97046 2.52704L3.61758 2.34179C3.78351 2.29127 3.83329 2.05549 3.68395 1.95444L3.11979 1.58394C3.08661 1.55025 3.05342 1.51657 3.05342 1.46605L3.08661 0.775562C3.1032 0.59031 2.88749 0.489263 2.75475 0.607151L2.19059 1.02818C2.1574 1.06186 2.10763 1.06186 2.05785 1.04502L1.42732 0.809244C1.26139 0.74188 1.09546 0.910291 1.16183 1.0787L1.39413 1.71867C1.41072 1.76919 1.41072 1.81971 1.37754 1.8534L0.946121 2.39231C0.846563 2.54388 0.946121 2.74598 1.12864 2.74598Z" fill="black"/>
<path d="M11.847 5.77744L13.0744 5.45746C13.1242 5.44062 13.1739 5.42377 13.2071 5.40693C13.4559 5.25536 13.5222 4.93538 13.3895 4.6996C13.2403 4.44699 12.9251 4.37962 12.6929 4.51435L11.6148 5.17116C11.4987 5.23852 11.4324 5.39009 11.4656 5.52482C11.4987 5.71007 11.6646 5.81112 11.847 5.77744Z" fill="black"/>
</svg>
