<svg width="16" height="16" viewBox="0 0 16 16" fill="none" xmlns="http://www.w3.org/2000/svg">
<g clip-path="url(#clip0_1227_3986)">
<path d="M10.2407 0.238366L5.87665 4.5802C5.72331 4.73334 5.63721 4.94074 5.63721 5.15697C5.63721 5.37319 5.72331 5.5806 5.87665 5.73374L10.2407 10.0781C10.3945 10.2308 10.6028 10.3165 10.82 10.3165C11.0372 10.3165 11.2456 10.2308 11.3994 10.0781L15.7609 5.73374C15.9142 5.5806 16.0003 5.37319 16.0003 5.15697C16.0003 4.94074 15.9142 4.73334 15.7609 4.5802L11.3994 0.238366C11.2456 0.0857165 11.0372 0 10.82 0C10.6028 0 10.3945 0.0857165 10.2407 0.238366ZM11.3891 9.07875C11.2674 9.19969 11.1124 9.282 10.9438 9.31528C10.7751 9.34857 10.6003 9.33134 10.4415 9.26576C10.2826 9.20019 10.1469 9.08922 10.0514 8.94687C9.95591 8.80452 9.90494 8.63719 9.90494 8.46601C9.90494 8.29484 9.95591 8.1275 10.0514 7.98516C10.1469 7.84281 10.2826 7.73184 10.4415 7.66626C10.6003 7.60069 10.7751 7.58346 10.9438 7.61674C11.1124 7.65003 11.2674 7.73234 11.3891 7.85327C11.47 7.93369 11.5342 8.0292 11.578 8.13434C11.6218 8.23948 11.6444 8.35219 11.6444 8.46601C11.6444 8.57984 11.6218 8.69254 11.578 8.79768C11.5342 8.90282 11.47 8.99833 11.3891 9.07875ZM8.11156 5.81595C7.98987 5.93689 7.8349 6.0192 7.66624 6.05248C7.49757 6.08577 7.32278 6.06854 7.16395 6.00296C7.00512 5.93739 6.86938 5.82642 6.77388 5.68407C6.67838 5.54172 6.62741 5.37439 6.62741 5.20321C6.62741 5.03204 6.67838 4.86471 6.77388 4.72236C6.86938 4.58001 7.00512 4.46904 7.16395 4.40346C7.32278 4.33789 7.49757 4.32066 7.66624 4.35394C7.8349 4.38723 7.98987 4.46954 8.11156 4.59048C8.19248 4.67089 8.25668 4.7664 8.30048 4.87154C8.34428 4.97668 8.36682 5.08939 8.36682 5.20321C8.36682 5.31704 8.34428 5.42974 8.30048 5.53488C8.25668 5.64003 8.19248 5.73554 8.11156 5.81595ZM11.4355 5.76971C11.3139 5.89064 11.1589 5.97295 10.9902 6.00624C10.8216 6.03953 10.6468 6.02229 10.4879 5.95672C10.3291 5.89115 10.1934 5.78017 10.0979 5.63783C10.0024 5.49548 9.95139 5.32814 9.95139 5.15697C9.95139 4.98579 10.0024 4.81846 10.0979 4.67611C10.1934 4.53377 10.3291 4.42279 10.4879 4.35722C10.6468 4.29165 10.8216 4.27441 10.9902 4.3077C11.1589 4.34099 11.3139 4.4233 11.4355 4.54423C11.5165 4.62465 11.5807 4.72016 11.6245 4.8253C11.6683 4.93044 11.6908 5.04315 11.6908 5.15697C11.6908 5.27079 11.6683 5.3835 11.6245 5.48864C11.5807 5.59378 11.5165 5.68929 11.4355 5.76971ZM14.7595 5.72346C14.6378 5.8444 14.4829 5.92671 14.3142 5.96C14.1455 5.99328 13.9707 5.97605 13.8119 5.91048C13.6531 5.8449 13.5173 5.73393 13.4218 5.59158C13.3263 5.44923 13.2754 5.2819 13.2754 5.11073C13.2754 4.93955 13.3263 4.77222 13.4218 4.62987C13.5173 4.48752 13.6531 4.37655 13.8119 4.31098C13.9707 4.2454 14.1455 4.22817 14.3142 4.26145C14.4829 4.29474 14.6378 4.37705 14.7595 4.49799C14.8404 4.5784 14.9046 4.67391 14.9484 4.77905C14.9922 4.8842 15.0148 4.9969 15.0148 5.11073C15.0148 5.22455 14.9922 5.33726 14.9484 5.4424C14.9046 5.54754 14.8404 5.64305 14.7595 5.72346ZM11.482 2.46067C11.3603 2.5816 11.2053 2.66391 11.0367 2.6972C10.868 2.73048 10.6932 2.71325 10.5344 2.64768C10.3756 2.5821 10.2398 2.47113 10.1443 2.32878C10.0488 2.18644 9.99785 2.0191 9.99785 1.84793C9.99785 1.67675 10.0488 1.50942 10.1443 1.36707C10.2398 1.22472 10.3756 1.11375 10.5344 1.04818C10.6932 0.982603 10.868 0.965371 11.0367 0.998657C11.2053 1.03194 11.3603 1.11425 11.482 1.23519C11.5629 1.31561 11.6271 1.41112 11.6709 1.51626C11.7147 1.6214 11.7373 1.7341 11.7373 1.84793C11.7373 1.96175 11.7147 2.07446 11.6709 2.1796C11.6271 2.28474 11.5629 2.38025 11.482 2.46067Z" fill="url(#paint0_linear_1227_3986)"/>
<path d="M7.72671 15.1934V9.11481C7.72603 8.90107 7.64044 8.69627 7.48862 8.54513C7.33679 8.39399 7.13107 8.30878 6.91636 8.30811H0.81035C0.595641 8.30878 0.389921 8.39399 0.238098 8.54513C0.086275 8.69627 0.00068054 8.90107 0 9.11481V15.1934C0.00068054 15.4071 0.086275 15.6119 0.238098 15.7631C0.389921 15.9142 0.595641 15.9994 0.81035 16.0001H6.91636C7.13107 15.9994 7.33679 15.9142 7.48862 15.7631C7.64044 15.6119 7.72603 15.4071 7.72671 15.1934ZM0.707121 9.7982C0.707121 9.62849 0.757674 9.46258 0.852388 9.32147C0.947102 9.18036 1.08172 9.07038 1.23923 9.00543C1.39673 8.94048 1.57004 8.92349 1.73725 8.9566C1.90445 8.98971 2.05804 9.07143 2.17859 9.19144C2.29913 9.31145 2.38123 9.46434 2.41449 9.6308C2.44775 9.79725 2.43068 9.96978 2.36544 10.1266C2.3002 10.2834 2.18972 10.4174 2.04797 10.5117C1.90622 10.606 1.73957 10.6563 1.56909 10.6563C1.34048 10.6563 1.12123 10.5659 0.959584 10.405C0.797935 10.244 0.707121 10.0258 0.707121 9.7982ZM3.00139 12.1464C3.00292 11.9773 3.05458 11.8125 3.14988 11.6726C3.24518 11.5327 3.37987 11.4239 3.53706 11.3599C3.69424 11.2959 3.86691 11.2796 4.03339 11.3129C4.19987 11.3463 4.35274 11.4278 4.47282 11.5474C4.5929 11.6669 4.67484 11.8191 4.70834 11.9848C4.74185 12.1506 4.72543 12.3225 4.66115 12.4789C4.59688 12.6354 4.4876 12.7695 4.34704 12.8644C4.20649 12.9592 4.04091 13.0107 3.8711 13.0122C3.75725 13.0132 3.64434 12.9918 3.53886 12.9491C3.43339 12.9064 3.33745 12.8434 3.25659 12.7636C3.17572 12.6838 3.11154 12.5889 3.06774 12.4843C3.02394 12.3797 3.00139 12.2674 3.00139 12.1541V12.1464ZM5.29566 14.4946C5.29566 14.3249 5.34622 14.159 5.44093 14.0178C5.53564 13.8767 5.67026 13.7668 5.82777 13.7018C5.98527 13.6369 6.15858 13.6199 6.32579 13.653C6.49299 13.6861 6.64658 13.7678 6.76713 13.8878C6.88768 14.0078 6.96977 14.1607 7.00303 14.3272C7.03629 14.4936 7.01922 14.6662 6.95398 14.823C6.88874 14.9797 6.77826 15.1138 6.63651 15.2081C6.49476 15.3023 6.32811 15.3527 6.15763 15.3527C5.93036 15.3527 5.71228 15.2633 5.55085 15.1041C5.38942 14.9448 5.2977 14.7285 5.29566 14.5023V14.4946Z" fill="url(#paint1_linear_1227_3986)"/>
</g>
<defs>
<linearGradient id="paint0_linear_1227_3986" x1="10.8188" y1="0" x2="10.8188" y2="10.3165" gradientUnits="userSpaceOnUse">
<stop/>
<stop offset="1" stop-color="#666666"/>
</linearGradient>
<linearGradient id="paint1_linear_1227_3986" x1="3.86336" y1="8.30811" x2="3.86336" y2="16.0001" gradientUnits="userSpaceOnUse">
<stop/>
<stop offset="1" stop-color="#666666"/>
</linearGradient>
<clipPath id="clip0_1227_3986">
<rect width="16" height="16" fill="white"/>
</clipPath>
</defs>
</svg>
