<svg width="16" height="16" viewBox="0 0 16 16" fill="none" xmlns="http://www.w3.org/2000/svg">
<path fill-rule="evenodd" clip-rule="evenodd" d="M9.00198 1.00301V1.59982C10.1301 1.83055 11.1452 2.44353 11.874 3.33663C12.6037 4.22973 13.0029 5.34758 13.0055 6.50193V7.08598C13.0072 8.55714 13.5491 9.97557 14.5277 11.0721L14.7452 11.3334C15.0085 11.6272 15.0739 12.0495 14.9125 12.4096C14.7511 12.7697 14.3935 13.0004 13.9993 12.9987H1.99565C1.6032 12.997 1.24813 12.7654 1.08758 12.407C0.927028 12.0486 0.990738 11.6289 1.24982 11.3334L1.48003 11.0721C2.45861 9.97552 3.00057 8.55714 3.00226 7.08598V6.50193C2.99887 5.34662 3.39641 4.22696 4.12526 3.33227C4.85495 2.43833 5.87174 1.82619 7.00163 1.59974V1.00292C7.00163 0.448674 7.4493 0 8.00146 0C8.55446 0 9.00198 0.448761 9.00198 1.00301ZM8.00387 16C7.47211 15.9974 6.96242 15.7863 6.58358 15.4117C6.21576 15.032 6.00596 14.5246 5.99915 13.995H10.0044C10.0061 14.5271 9.79625 15.0388 9.42079 15.4151C9.04532 15.7914 8.53478 16.0017 8.00387 16Z" fill="black"/>
</svg>
