<svg width="16" height="15" viewBox="0 0 16 15" fill="none" xmlns="http://www.w3.org/2000/svg">
<path d="M0.77865 14.5464C0.737631 14.5464 0.676172 14.5464 0.635153 14.526C0.327867 14.4645 0.122912 14.2391 0.0818962 13.9318C0.0204383 13.5221 0 13.1123 0 12.682C0 8.29719 3.23736 4.54759 7.56067 3.9329V1.57652C7.56067 1.22821 7.76563 0.900361 8.11393 0.757006C8.4418 0.613509 8.83114 0.695549 9.07694 0.94138L14.7321 6.59652C14.937 6.80147 15.0394 7.04729 15.0394 7.33415C15.0394 7.621 14.9369 7.86684 14.7321 8.07177L9.05645 13.7269C8.81062 13.9727 8.42131 14.0548 8.09344 13.9113C7.76557 13.7678 7.54019 13.4605 7.54019 13.0918L7.54033 10.4691C4.99958 10.633 2.70477 12.0263 1.37295 14.1982C1.24989 14.4236 1.0245 14.5465 0.778676 14.5465L0.77865 14.5464ZM8.5852 1.92479V4.03522C8.5852 4.486 8.23689 4.87533 7.7861 4.9368C3.91356 5.44904 1.00404 8.78885 1.00404 12.6819V12.9277C2.58177 10.8379 4.99952 9.547 7.64268 9.42406C7.88851 9.40362 8.1139 9.50596 8.29842 9.6699C8.48279 9.83383 8.58527 10.0796 8.58527 10.3256V12.7639L13.9945 7.35468V7.33424L8.5852 1.92479Z" fill="white"/>
</svg>
