<svg width="16" height="16" viewBox="0 0 16 16" fill="none" xmlns="http://www.w3.org/2000/svg">
<g clip-path="url(#clip0_1227_3986)">
<path d="M0.602216 7.88596L7.88714 0.60308C8.34084 0.14917 8.99156 -0.0694524 9.62895 0.0195298L13.6326 0.577751C14.534 0.703393 15.2554 1.41992 15.3867 2.32007L15.9785 6.36426C16.0725 7.0048 15.8551 7.66067 15.3968 8.11891L8.11616 15.3975C7.71446 15.799 7.18675 16 6.65937 16C6.132 16 5.60396 15.799 5.20226 15.3975L0.602549 10.799C-0.20085 9.99587 -0.201183 8.6888 0.602216 7.88596ZM10.7 5.30247C11.2444 5.8467 12.1268 5.8467 12.6712 5.30247C13.2156 4.75825 13.2156 3.87609 12.6712 3.33187C12.1268 2.78764 11.2444 2.78764 10.7 3.33187C10.1557 3.87609 10.1557 4.75825 10.7 5.30247ZM8.22217 9.8489C8.56253 10.1892 9.11391 10.1892 9.45427 9.8489C9.79463 9.50863 9.79463 8.95741 9.45427 8.61714C9.11391 8.27688 8.56253 8.27688 8.22217 8.61714C7.88181 8.95741 7.88181 9.50863 8.22217 9.8489ZM6.10166 11.5979C6.10166 11.9658 6.40035 12.2644 6.76838 12.2644C7.13641 12.2644 7.4351 11.9658 7.4351 11.5979V6.86849C7.4351 6.50057 7.13641 6.20196 6.76838 6.20196C6.40035 6.20196 6.10166 6.50057 6.10166 6.86849V11.5979ZM4.08283 9.8489C4.42319 10.1892 4.97457 10.1892 5.31493 9.8489C5.65529 9.50863 5.65529 8.95741 5.31493 8.61714C4.97457 8.27688 4.42319 8.27688 4.08283 8.61714C3.74247 8.95741 3.74247 9.50863 4.08283 9.8489Z" fill="url(#paint0_linear_1227_3986)"/>
</g>
<defs>
<linearGradient id="paint0_linear_1227_3986" x1="8" y1="0" x2="8" y2="16" gradientUnits="userSpaceOnUse">
<stop/>
<stop offset="1" stop-color="#666666"/>
</linearGradient>
<clipPath id="clip0_1227_3986">
<rect width="16" height="16" fill="white"/>
</clipPath>
</defs>
</svg>
