<svg width="16" height="16" viewBox="0 0 16 16" fill="none" xmlns="http://www.w3.org/2000/svg">
<g clip-path="url(#clip0_1227_3986)">
<path fill-rule="evenodd" clip-rule="evenodd" d="M0 8C0 3.58184 3.58184 0 8 0C12.4182 0 16 3.58184 16 8C16 12.4182 12.4182 16 8 16C3.58184 16 0 12.4182 0 8ZM8.80023 4.00038C8.80023 3.55864 8.44174 3.20015 8 3.20015C7.55826 3.20015 7.19977 3.55864 7.19977 4.00038V8.10502L6.04406 7.33405C5.67657 7.08956 5.17934 7.18856 4.93411 7.55603C4.68962 7.92353 4.78861 8.42075 5.15609 8.66524L7.55601 10.2657C7.82525 10.4449 8.17475 10.4449 8.44399 10.2657L10.8439 8.66524C11.2114 8.42075 11.3104 7.92351 11.0659 7.55603C10.8207 7.18854 10.3234 7.08955 9.95594 7.33405L8.80023 8.10502V4.00038ZM5.60008 11.2002C5.15834 11.2002 4.79985 11.5579 4.79985 11.9996C4.79985 12.4414 5.15834 12.7999 5.60008 12.7999H10.3999C10.8417 12.7999 11.2002 12.4414 11.2002 11.9996C11.2002 11.5579 10.8417 11.2002 10.3999 11.2002H5.60008Z" fill="url(#paint0_linear_1227_3986)"/>
</g>
<defs>
<linearGradient id="paint0_linear_1227_3986" x1="8" y1="0" x2="8" y2="16" gradientUnits="userSpaceOnUse">
<stop/>
<stop offset="1" stop-color="#666666"/>
</linearGradient>
<clipPath id="clip0_1227_3986">
<rect width="16" height="16" fill="white"/>
</clipPath>
</defs>
</svg>
