<svg width="16" height="16" viewBox="0 0 16 16" fill="none" xmlns="http://www.w3.org/2000/svg">
<g clip-path="url(#clip0_1227_3986)">
<path fill-rule="evenodd" clip-rule="evenodd" d="M7.58253 13.4115L7.61053 13.4391C8.39299 14.1951 9.64209 14.1869 10.4145 13.4145C11.1952 12.6338 11.1952 11.3662 10.4145 10.5855C9.63383 9.80483 8.36617 9.80483 7.58551 10.5855C6.80582 11.3651 6.80484 12.6305 7.58253 13.4115ZM7.84024 13.5245C7.86105 13.5103 7.88178 13.4961 7.90246 13.4819L7.93749 13.4577L7.98584 13.5277L7.95081 13.5519C7.93839 13.5605 7.92592 13.5691 7.91349 13.5776L7.84024 13.5245ZM8.16005 13.4037C8.18307 13.387 8.20606 13.3701 8.22895 13.3532L8.26317 13.3278L8.21253 13.2594L8.17831 13.2847C8.15562 13.3015 8.13285 13.3182 8.10995 13.3349L8.07552 13.3599L8.12561 13.4287L8.16005 13.4037ZM7.62113 13.3293C8.63478 12.6421 9.53726 11.7406 10.3261 10.6181C10.3515 10.6403 10.3646 10.654 10.3871 10.6793C9.59748 11.8001 8.69518 12.7014 7.68272 13.3904C7.67476 13.3828 7.63688 13.3449 7.62113 13.3293ZM8.43317 13.1981C8.45564 13.1805 8.47807 13.1629 8.50037 13.1452L8.53374 13.1188L8.48084 13.0521L8.44747 13.0785C8.42533 13.0961 8.40316 13.1135 8.38086 13.1309L8.34728 13.1571L8.39958 13.2242L8.43317 13.1981ZM7.42943 13.0966L7.50804 13.0453L7.54354 13.0218L7.59044 13.0928L7.55495 13.1163C7.53116 13.132 7.50732 13.1476 7.48336 13.1631L7.47987 13.1654L7.42943 13.0966ZM8.6993 12.9834C8.72118 12.9651 8.74297 12.9468 8.76468 12.9283L8.79711 12.9008L8.74204 12.8359L8.70956 12.8635C8.68803 12.8817 8.66645 12.9 8.64474 12.918L8.61205 12.9453L8.66662 13.0107L8.6993 12.9834ZM7.78742 12.8534C7.76444 12.8698 7.74141 12.8861 7.71826 12.9023L7.6834 12.9268L7.73222 12.9965L7.76707 12.9721C7.79044 12.9557 7.81372 12.9392 7.83688 12.9227L7.87152 12.898L7.82206 12.8287L7.78742 12.8534ZM8.05947 12.6514C8.03713 12.6686 8.0147 12.6857 7.99218 12.7028L7.95822 12.7285L8.00963 12.7964L8.04356 12.7707C8.06628 12.7535 8.08893 12.7361 8.11148 12.7187L8.14519 12.6927L8.09314 12.6254L8.05947 12.6514ZM8.95804 12.7599C8.97928 12.7409 9.00043 12.7218 9.0215 12.7026L9.05299 12.674L8.99575 12.611L8.96425 12.6397C8.94335 12.6587 8.92237 12.6776 8.9013 12.6964L8.86955 12.7248L8.92629 12.7882L8.95804 12.7599ZM8.32365 12.4392C8.30199 12.4573 8.28024 12.4753 8.25837 12.4932L8.22546 12.5201L8.27939 12.586L8.31229 12.559C8.33438 12.541 8.35634 12.5228 8.37822 12.5045L8.41091 12.4772L8.35634 12.4119L8.32365 12.4392ZM9.20902 12.5277C9.22962 12.508 9.25014 12.4882 9.27057 12.4683L9.30104 12.4387L9.24167 12.3776L9.21119 12.4074C9.19094 12.4271 9.17059 12.4467 9.1502 12.4662L9.11943 12.4956L9.17829 12.5571L9.20902 12.5277ZM8.57958 12.2171C8.5586 12.236 8.53757 12.2548 8.51642 12.2735L8.48454 12.3017L8.54093 12.3655L8.57281 12.3373C8.59418 12.3184 8.61542 12.2994 8.63661 12.2803L8.66819 12.2518L8.61116 12.1886L8.57958 12.2171ZM9.45201 12.2872C9.47193 12.2668 9.49176 12.2463 9.51147 12.2257L9.54096 12.195L9.47955 12.1361L9.45005 12.1668C9.43052 12.1872 9.41085 12.2075 9.3911 12.2277L9.36139 12.2581L9.4223 12.3176L9.45201 12.2872ZM8.82673 11.9853C8.80652 12.005 8.78617 12.0246 8.76579 12.0441L8.73501 12.0735L8.79383 12.1351L8.82461 12.1057C8.84521 12.086 8.86572 12.0662 8.88615 12.0463L8.91662 12.0166L8.85721 11.9556L8.82673 11.9853ZM9.68669 12.0385C9.70589 12.0174 9.725 11.9963 9.74407 11.9751L9.77246 11.9434L9.70912 11.8866L9.68069 11.9183C9.6618 11.9393 9.64286 11.9602 9.62383 11.9811L9.59514 12.0125L9.65801 12.0699L9.68669 12.0385ZM9.06474 11.7442C9.04529 11.7646 9.02575 11.785 9.00613 11.8053L8.97651 11.8359L9.03767 11.8951L9.06729 11.8645C9.08713 11.844 9.10683 11.8234 9.12645 11.8028L9.15578 11.7719L9.09406 11.7133L9.06474 11.7442ZM9.91287 11.7821C9.93134 11.7604 9.94973 11.7386 9.96803 11.7168L9.99539 11.6842L9.93015 11.6295L9.90282 11.6621C9.88465 11.6838 9.86639 11.7053 9.84809 11.7268L9.82047 11.7592L9.88524 11.8145L9.91287 11.7821ZM9.2933 11.494C9.27461 11.5152 9.25588 11.5363 9.23703 11.5574L9.20864 11.5891L9.27206 11.6459L9.30045 11.6142C9.31947 11.5929 9.33841 11.5716 9.35722 11.5502L9.38531 11.5182L9.32139 11.462L9.2933 11.494ZM10.1303 11.5182C10.1481 11.4959 10.1657 11.4736 10.1833 11.4512L10.2095 11.4177L10.1425 11.3651L10.1163 11.3987C10.0989 11.4209 10.0813 11.4431 10.0637 11.4652L10.0372 11.4985L10.1038 11.5515L10.1303 11.5182ZM9.51202 11.2352C9.49423 11.2572 9.47631 11.279 9.45827 11.3007L9.43111 11.3335L9.49666 11.3878L9.52381 11.3551C9.54198 11.3331 9.56007 11.3111 9.57808 11.289L9.60493 11.2559L9.53888 11.2022L9.51202 11.2352ZM10.3389 11.2474C10.3559 11.2245 10.3728 11.2016 10.3896 11.1786L10.4148 11.1442L10.3461 11.094L10.3209 11.1283C10.3043 11.1511 10.2875 11.1739 10.2706 11.1966L10.2452 11.2307L10.3135 11.2815L10.3389 11.2474ZM9.72083 10.9683C9.70385 10.9909 9.68674 11.0134 9.66958 11.0358L9.64366 11.0696L9.71121 11.1214L9.73709 11.0876C9.75445 11.065 9.77169 11.0423 9.78884 11.0195L9.81442 10.9855L9.74641 10.9343L9.72083 10.9683ZM10.5776 10.9134C10.5646 10.9323 10.5516 10.9511 10.5386 10.9699L10.5143 11.0048L10.4444 10.9562L10.4687 10.9213C10.4848 10.8981 10.5008 10.8748 10.5168 10.8515L10.5245 10.8402L10.5776 10.9134ZM9.91942 10.6937C9.90329 10.717 9.88707 10.7401 9.87073 10.7631L9.84613 10.7978L9.91555 10.847L9.94019 10.8123C9.95666 10.7891 9.97305 10.7658 9.98931 10.7423L10.0136 10.7074L9.94372 10.6588L9.91942 10.6937ZM10.1654 10.4799C10.1546 10.4965 10.1438 10.5131 10.1329 10.5297L10.1095 10.5654L10.0384 10.5187L10.0617 10.4831C10.0734 10.4653 10.085 10.4473 10.0966 10.4294L10.1654 10.4799Z" fill="url(#paint0_linear_1227_3986)"/>
<path d="M15.7176 0.186752C15.3914 -0.0956282 14.8929 -0.0468485 14.5883 0.259379L14 0.850426L15.1443 2L15.7629 1.3786C15.921 1.2198 16 1.01167 16 0.803815C16 0.576718 15.9059 0.349893 15.7176 0.186752Z" fill="url(#paint1_linear_1227_3986)"/>
<path d="M15 2.07096L13.929 1L11.1393 3.78976C10.9421 3.98693 10.6225 3.98693 10.4253 3.78976L10.2468 3.61126C10.0496 3.41409 9.73001 3.41409 9.53283 3.61126L0.147882 12.996C-0.0492942 13.1931 -0.0492942 13.5128 0.147882 13.7099L2.29006 15.8521C2.48724 16.0493 2.80686 16.0493 3.00404 15.8521L6.07681 12.7793C6.06621 12.6768 6.05914 12.5736 6.05914 12.4696C6.05914 10.799 7.41817 9.43997 9.08874 9.43997C9.19276 9.43997 9.29576 9.44729 9.39852 9.45764L12.3887 6.46742C12.5859 6.27024 12.5859 5.95062 12.3887 5.75344L12.21 5.5747C12.0128 5.37752 12.0128 5.0579 12.21 4.86072L15 2.07096Z" fill="url(#paint2_linear_1227_3986)"/>
</g>
<defs>
<linearGradient id="paint0_linear_1227_3986" x1="9" y1="10" x2="9" y2="14" gradientUnits="userSpaceOnUse">
<stop/>
<stop offset="1" stop-color="#666666"/>
</linearGradient>
<linearGradient id="paint1_linear_1227_3986" x1="15" y1="0" x2="15" y2="2" gradientUnits="userSpaceOnUse">
<stop/>
<stop offset="1" stop-color="#666666"/>
</linearGradient>
<linearGradient id="paint2_linear_1227_3986" x1="7.5" y1="1" x2="7.5" y2="16" gradientUnits="userSpaceOnUse">
<stop/>
<stop offset="1" stop-color="#666666"/>
</linearGradient>
<clipPath id="clip0_1227_3986">
<rect width="16" height="16" fill="white"/>
</clipPath>
</defs>
</svg>
