<svg width="16" height="16" viewBox="0 0 16 16" fill="none" xmlns="http://www.w3.org/2000/svg">
<g clip-path="url(#clip0_1227_3986)">
<path d="M7.99867 0C7.44754 0 6.90886 0.0555072 6.3888 0.16226C5.86874 0.269012 5.36763 0.427112 4.88945 0.629807C3.9331 1.0352 3.07129 1.62184 2.34729 2.34615C1.62329 3.07047 1.0369 3.93266 0.631688 4.88942C0.429077 5.36781 0.271047 5.86914 0.164343 6.38942C0.0576324 6.90971 0.00215409 7.44863 0.00215409 8C-0.0335641 9.23831 0.379627 10.6533 0.89119 11.6611C1.33442 12.5194 1.92856 13.2874 2.63803 13.9303C3.3475 14.5731 4.17286 15.0904 5.07807 15.4471C5.98328 15.8039 6.96822 16 7.99867 16C8.54981 16 9.08836 15.9445 9.60855 15.8377C10.1287 15.731 10.6307 15.5729 11.1091 15.3702C12.0659 14.9648 12.9279 14.3782 13.6525 13.6538C14.3771 12.9295 14.9636 12.0673 15.3693 11.1106C15.5721 10.6322 15.7298 10.1309 15.8366 9.61058C15.9434 9.0903 16 8.55137 16 8C16 7.44863 15.9434 6.90971 15.8366 6.38942C15.7298 5.86914 15.5721 5.36781 15.3693 4.88942C14.9636 3.93266 14.3771 3.07047 13.6525 2.34615C12.9279 1.62184 12.0659 1.0352 11.1091 0.629807C10.6307 0.427113 10.1287 0.269012 9.60855 0.16226C9.08836 0.0555071 8.54981 0 7.99867 0ZM7.99867 1.22716C8.55236 1.22716 9.08773 1.30054 9.60254 1.42548C9.44982 1.4694 9.29156 1.50648 9.134 1.53125C8.57267 1.61951 8.09479 1.60817 8.09479 1.60817L8.13083 1.61299C8.13083 1.61299 7.76495 1.57992 7.34992 1.59496C7.1424 1.60247 6.9194 1.61883 6.69636 1.66708C6.47331 1.71532 6.22659 1.7623 5.98753 2.04929C5.62543 2.484 5.46042 2.83002 5.32436 2.91708C5.21188 2.98904 5.15183 2.98903 4.89786 3.01203C4.64389 3.03503 4.24417 3.07796 3.77575 3.28487L3.83462 3.26203C3.79326 3.27535 3.49108 3.26788 3.19187 3.23197C3.8044 2.61305 4.53521 2.1121 5.34838 1.76563C6.16156 1.41915 7.0571 1.22716 7.99867 1.22716ZM12.5316 2.97596C12.9128 3.32031 13.2543 3.70692 13.5491 4.12861C13.844 4.5503 14.0923 5.00707 14.2856 5.49279L14.2375 5.47837C14.2807 5.34014 14.2114 5.50335 14.0742 5.63823C13.9369 5.7731 13.743 5.93646 13.5527 6.08775C13.1721 6.39032 12.8031 6.64664 12.8031 6.64664C12.786 6.65822 12.7696 6.67066 12.7538 6.6839C12.7383 6.69718 12.7235 6.71122 12.7094 6.72597C12.6954 6.74092 12.6821 6.75657 12.6697 6.77284C12.6569 6.78905 12.6448 6.8059 12.6337 6.82332C12.6228 6.84044 12.6128 6.8581 12.6036 6.87621C12.5943 6.89461 12.5859 6.91346 12.5784 6.9327C12.5714 6.95203 12.5654 6.97167 12.5604 6.99159C12.555 7.01139 12.5506 7.03145 12.5472 7.05169C12.5438 7.07199 12.5414 7.09245 12.54 7.11299C12.5386 7.13338 12.5382 7.15384 12.5388 7.17428C12.5394 7.19477 12.541 7.21524 12.5436 7.23558C12.5466 7.25579 12.5506 7.27586 12.5556 7.29568C12.5602 7.31559 12.5658 7.33523 12.5724 7.35457C12.5736 7.35778 12.5748 7.36099 12.576 7.36418L13.0842 8.75361L12.0762 9.89904C12.0626 9.91441 12.0498 9.93046 12.0378 9.94712C12.0257 9.96377 12.0145 9.98102 12.0041 9.9988C11.9936 10.0163 11.984 10.0344 11.9753 10.0529C11.9672 10.0718 11.9599 10.091 11.9537 10.1106C11.9467 10.1299 11.9407 10.1496 11.9357 10.1695C11.9357 10.1703 11.9357 10.1711 11.9357 10.1719L11.7591 10.9712L10.2873 12.5649L9.85123 11.9663L9.84282 10.9435C9.84264 10.923 9.84144 10.9026 9.83922 10.8822C9.83705 10.8616 9.83385 10.8412 9.82962 10.8209C9.82539 10.801 9.82018 10.7814 9.81399 10.762C9.80816 10.7425 9.80135 10.7232 9.79358 10.7043C9.78531 10.6854 9.77608 10.667 9.76595 10.649C9.75602 10.6309 9.74521 10.6132 9.73351 10.5962C9.72189 10.5795 9.70947 10.5635 9.69627 10.5481C9.68304 10.5321 9.669 10.5169 9.65422 10.5024C9.63967 10.4885 9.62442 10.4752 9.60857 10.4627C9.59236 10.4499 9.57552 10.4378 9.55811 10.4267C9.5406 10.4158 9.52256 10.4057 9.50405 10.3966C9.48566 10.3873 9.46681 10.3789 9.44758 10.3714C9.42868 10.364 9.40944 10.3576 9.38991 10.3522C9.37013 10.3468 9.35007 10.3423 9.32984 10.339C9.30955 10.3355 9.2891 10.3331 9.26857 10.3317C9.24818 10.3303 9.22773 10.3299 9.2073 10.3305C9.18882 10.3313 9.17037 10.3329 9.15203 10.3354L8.17648 10.4579L7.99026 9.05409C7.98766 9.0339 7.98406 9.01383 7.97945 8.99399C7.97443 8.97408 7.96841 8.95442 7.96144 8.9351C7.95481 8.91549 7.94718 8.89624 7.9386 8.87741C7.93626 8.87257 7.93386 8.86775 7.9314 8.86298L7.32229 7.6226C7.43671 7.47418 7.50181 7.38162 7.71274 7.11899C8.04779 6.70184 8.50684 6.20096 8.52969 6.18269C8.54557 6.16983 8.56081 6.1562 8.57535 6.14183C8.58148 6.13594 8.58748 6.12994 8.59336 6.1238C8.47849 6.24596 8.62312 6.11676 8.83004 6.06491C9.03697 6.013 9.31652 5.96714 9.58812 5.9327C10.1313 5.86381 10.6418 5.83775 10.6418 5.83775C10.6623 5.83677 10.6827 5.83477 10.703 5.83175C10.7232 5.82875 10.7433 5.82472 10.7631 5.81972C10.783 5.8147 10.8026 5.80867 10.822 5.8017C10.8412 5.79463 10.86 5.7866 10.8784 5.77766C10.8969 5.76856 10.915 5.75852 10.9325 5.74761C10.9499 5.73684 10.9667 5.72521 10.9829 5.71275C10.9996 5.70036 11.0157 5.68712 11.031 5.67309C11.0457 5.65937 11.0598 5.64493 11.0731 5.62982C11.0867 5.61445 11.0995 5.5984 11.1115 5.58175C11.1236 5.56509 11.1348 5.54784 11.1451 5.53006C11.1553 5.51211 11.1645 5.49366 11.1728 5.47477C11.1813 5.45593 11.189 5.43668 11.1956 5.41708C11.2006 5.40164 11.205 5.386 11.2088 5.37021L11.55 3.96154L12.5316 2.97596ZM2.1046 7.71394C2.1355 7.77497 2.17061 7.83053 2.1863 7.86418C2.18512 8.00366 2.18682 8.67977 2.10941 8.93149C2.00137 9.28275 2.16825 9.68136 2.3545 9.87139C2.54072 10.0614 2.73347 10.1533 2.91315 10.2308C3.13312 10.3256 3.21139 10.3295 3.34445 10.3618C3.3913 10.4287 3.4135 10.4569 3.48141 10.5661C3.54113 10.6621 3.59607 10.7666 3.63038 10.8389C3.66467 10.9113 3.65802 10.9815 3.65802 10.8438C3.65802 11.0576 3.69796 11.1678 3.73971 11.3161C3.78147 11.4644 3.83442 11.6212 3.88508 11.7656C3.92379 11.876 3.92912 11.8827 3.96197 11.97C3.93158 12.0039 3.89471 12.0481 3.89469 12.0481C3.58687 12.1041 3.3435 12.3296 3.22671 12.5385C3.1917 12.6011 3.17471 12.6621 3.15223 12.7236C2.64441 12.202 2.22038 11.599 1.90157 10.9351C1.58275 10.2712 1.36915 9.54634 1.28165 8.78245C1.38224 8.66566 1.44755 8.59345 1.63726 8.35938C1.8056 8.15168 1.94453 7.93292 2.1046 7.71394Z" fill="url(#paint0_linear_1227_3986)"/>
</g>
<defs>
<linearGradient id="paint0_linear_1227_3986" x1="8" y1="0" x2="8" y2="16" gradientUnits="userSpaceOnUse">
<stop/>
<stop offset="1" stop-color="#666666"/>
</linearGradient>
<clipPath id="clip0_1227_3986">
<rect width="16" height="16" fill="white"/>
</clipPath>
</defs>
</svg>
