<svg width="16" height="16" viewBox="0 0 16 16" fill="none" xmlns="http://www.w3.org/2000/svg">
<g clip-path="url(#clip0_1227_3986)">
<path d="M1.24512 15.3262C1.24512 15.6968 1.55215 16 1.92742 16H7.45406V8.11646H1.24512V15.3262Z" fill="white"/>
<path d="M8.54541 16H14.0721C14.4473 16 14.7544 15.6968 14.7544 15.3262V8.11646H8.54541V16Z" fill="white"/>
<path d="M5.23611 3.703H10.7627C11.3427 3.703 11.8885 3.45033 12.2468 2.99551C12.605 2.54069 12.7244 1.95111 12.5879 1.39522C12.4344 0.771946 11.9568 0.283436 11.3427 0.0981395C10.7116 -0.104003 10.0463 0.0307588 9.55166 0.435043L7.99943 1.74897L6.44719 0.451888C5.95252 0.0307588 5.28728 -0.104003 4.67321 0.0812943C4.05914 0.283436 3.58152 0.755101 3.42801 1.37837C3.27449 1.93426 3.41095 2.52384 3.76916 2.97866C4.11031 3.43348 4.65615 3.703 5.23611 3.703ZM10.4216 1.4626C10.6092 1.29415 10.831 1.34468 10.8992 1.36153C10.9845 1.39522 11.1721 1.47944 11.2404 1.71528C11.2745 1.86688 11.2404 2.01849 11.1551 2.15325C11.0527 2.27117 10.9333 2.3217 10.7457 2.35539H9.36403L10.4216 1.4626ZM4.74144 1.71528C4.80967 1.4626 4.9973 1.37837 5.08259 1.36153C5.1167 1.34468 5.16788 1.34468 5.23611 1.34468C5.33845 1.34468 5.45785 1.37837 5.5602 1.4626L6.61777 2.35539H5.23611C5.08259 2.35539 4.92907 2.28801 4.82673 2.15325C4.74144 2.03533 4.70732 1.86688 4.74144 1.71528Z" fill="white"/>
<path d="M0 5.25266V6.3476C0 6.71819 0.307036 7.02141 0.682302 7.02141H7.45414V4.57886H0.682302C0.307036 4.57886 0 4.88207 0 5.25266Z" fill="white"/>
<path d="M15.3173 4.57886H8.54541V7.02141H15.3173C15.6925 7.02141 15.9996 6.71819 15.9996 6.3476V5.25266C15.9996 4.88207 15.6925 4.57886 15.3173 4.57886Z" fill="white"/>
</g>
<defs>
<clipPath id="clip0_1227_3986">
<rect width="16" height="16" fill="white"/>
</clipPath>
</defs>
</svg>
