<svg width="16" height="16" viewBox="0 0 16 16" fill="none" xmlns="http://www.w3.org/2000/svg">
<g clip-path="url(#clip0_1227_3986)">
<path d="M15.3319 5.2022L9.03043 0.349773C8.42463 -0.113726 7.57537 -0.119448 6.96957 0.349773L0.668082 5.2022C0.249115 5.52264 0 6.03192 0 6.56409V14.2833C0 15.2332 0.764331 16 1.69851 16H5.45789C5.76929 16 6.02406 15.7482 6.02406 15.4278V9.67124C6.02406 9.35652 6.27884 9.09902 6.59023 9.09902H9.40977C9.72116 9.09902 9.97594 9.35652 9.97594 9.67124V15.4278C9.97594 15.7482 10.2307 16 10.5421 16H14.3015C15.2357 16 16 15.2332 16 14.2833V6.56409C16 6.03192 15.7509 5.52264 15.3319 5.2022Z" fill="white"/>
</g>
<defs>
<clipPath id="clip0_1227_3986">
<rect width="16" height="16" fill="white"/>
</clipPath>
</defs>
</svg>
