<svg width="16" height="18" viewBox="0 0 16 18" fill="none" xmlns="http://www.w3.org/2000/svg">
<path fill-rule="evenodd" clip-rule="evenodd" d="M9.14511 1.12839V1.7998C10.4344 2.05937 11.5945 2.74898 12.4274 3.75371C13.2614 4.75845 13.7176 6.01602 13.7205 7.31467V7.97172C13.7225 9.62679 14.3419 11.2225 15.4602 12.4561L15.7088 12.7501C16.0097 13.0806 16.0845 13.5556 15.9 13.9608C15.7156 14.3659 15.3069 14.6255 14.8564 14.6236H1.13789C0.689372 14.6216 0.283575 14.3611 0.100087 13.9579C-0.0833966 13.5547 -0.0105853 13.0825 0.285511 12.7501L0.548604 12.4561C1.66698 11.2225 2.28636 9.62679 2.2883 7.97172V7.31467C2.28442 6.01495 2.73876 4.75533 3.57173 3.74881C4.40566 2.74312 5.56771 2.05446 6.85901 1.7997V1.12829C6.85901 0.504758 7.37063 0 8.00167 0C8.63367 0 9.14511 0.504856 9.14511 1.12839ZM8.00442 18C7.39669 17.9971 6.81419 17.7596 6.38123 17.3382C5.96087 16.911 5.72109 16.3401 5.71331 15.7444H10.2907C10.2926 16.343 10.0529 16.9187 9.62376 17.342C9.19465 17.7653 8.61118 18.0019 8.00442 18Z" fill="black"/>
</svg>
