<svg width="18" height="20" viewBox="0 0 18 20" fill="none" xmlns="http://www.w3.org/2000/svg">
<path d="M12.2042 10.4834C11.24 11.2661 10.0495 11.6916 8.82351 11.6916C7.59749 11.6916 6.40698 11.2661 5.44285 10.4834C2.2369 11.6937 0 14.5242 0 17.4672C0 19.7318 7.0588 19.9997 8.82353 19.9997C10.5883 19.9997 17.6471 19.7318 17.6471 17.4672C17.6471 14.5241 15.4101 11.6936 12.2042 10.4834Z" fill="black"/>
<path d="M11.7358 9.0266C13.3439 7.36476 13.3439 4.6704 11.7358 3.00856C10.1278 1.34673 7.52065 1.34673 5.9126 3.00856C4.30456 4.67039 4.30455 7.36476 5.9126 9.0266C7.52065 10.6884 10.1278 10.6884 11.7358 9.0266Z" fill="black"/>
</svg>
