<svg width="20" height="20" viewBox="0 0 20 20" fill="none" xmlns="http://www.w3.org/2000/svg">
<circle cx="10" cy="10" r="10" fill="black"/>
<path d="M8.14721 11.4898C8.27213 10.9766 8.13936 10.7339 7.64686 10.5761C7.53024 10.5387 7.40869 10.5173 7.29005 10.4862C6.98168 10.4055 6.9117 10.193 7.11624 9.94214C7.17365 9.87159 7.24632 9.80962 7.32212 9.75913C8.21831 9.16368 9.18895 8.78595 10.2747 8.75034C11.1204 8.72577 11.6741 9.01944 11.8369 9.65501C11.91 9.94033 11.9053 10.273 11.8403 10.5624C11.566 11.7848 11.2536 12.9987 10.96 14.2169C10.8183 14.8044 10.9708 15.0506 11.5566 15.2079C11.6158 15.2239 11.6804 15.2291 11.7335 15.2568C11.86 15.3226 12.0758 15.3904 12.083 15.4727C12.0946 15.6081 12.0085 15.8087 11.897 15.8896C10.8456 16.6523 9.6763 17.0868 8.3661 16.9854C7.4809 16.9167 7.01375 16.159 7.2351 15.2322C7.53361 13.9832 7.84355 12.7373 8.14721 11.4898ZM13 5.01898C13.0018 3.8948 12.1368 3.00748 11.032 3.00005C9.90864 2.99261 9.00617 3.89006 9.01582 5.00568C9.02524 6.1177 9.90483 6.99059 11.0197 6.99442C12.1065 6.99803 12.9984 6.10846 13 5.01898Z" fill="white"/>
</svg>
