<svg width="16" height="16" viewBox="0 0 16 16" fill="none" xmlns="http://www.w3.org/2000/svg">
<path d="M5.59427 7.10966C5.23176 7.66106 4.86927 7.9916 4.5276 8.06938C4.4901 8.07632 4.45121 8.08188 4.40815 8.08188C4.15052 8.08188 3.80189 7.94299 3.37898 7.67841C3.51231 6.93882 3.63315 6.1034 3.69912 5.2521C3.44842 5.18126 3.26509 4.95348 3.26509 4.68127C3.26509 4.3521 3.53176 4.08753 3.85884 4.08753C4.18801 4.08753 4.45468 4.35211 4.45468 4.68127C4.45468 4.85905 4.37481 5.0153 4.2519 5.12571C4.54565 5.61946 4.98107 6.29371 5.59427 7.10966ZM12.729 4.68121C12.729 4.35204 12.4624 4.08747 12.1332 4.08747C11.8061 4.08747 11.5394 4.35206 11.5394 4.68121C11.5394 4.85899 11.6179 5.01524 11.7422 5.12566C11.4485 5.61802 11.0151 6.29163 10.3999 7.10753C10.7624 7.65892 11.1249 7.99087 11.4686 8.06934C11.504 8.07629 11.545 8.08184 11.588 8.08184C11.8478 8.08184 12.1943 7.94295 12.6158 7.67976C12.4846 6.94017 12.363 6.10476 12.2957 5.25132C12.5436 5.18048 12.729 4.95273 12.729 4.68121ZM15.2729 4.91247C14.8729 4.91247 14.5479 5.23746 14.5479 5.63954C14.5479 5.86177 14.6492 6.05899 14.8076 6.19233C13.7319 7.25345 12.2437 8.51731 11.4104 8.32922C10.0556 8.02157 8.96383 4.86468 8.40419 2.77917C8.71877 2.62639 8.93544 2.30834 8.93544 1.9368C8.93544 1.41943 8.51599 1 7.99864 1C7.48127 1 7.06184 1.41945 7.06184 1.9368C7.06184 2.30832 7.27852 2.62638 7.59309 2.77917C7.03338 4.86255 5.9417 8.02149 4.58687 8.32922C3.75284 8.51741 2.26669 7.2556 1.19095 6.19375C1.34929 6.06042 1.45207 5.86319 1.45207 5.63889C1.45207 5.23681 1.12708 4.91181 0.727077 4.91181C0.324996 4.9125 0 5.2375 0 5.6396C0 6.04168 0.324996 6.36667 0.727077 6.36667C0.72916 6.36667 0.734021 6.36459 0.734021 6.36459C1.22291 7.44932 1.9021 9.14382 2 11H14C14.0979 9.1424 14.7708 7.44708 15.2597 6.36459C15.2632 6.36459 15.2687 6.36667 15.2722 6.36667C15.675 6.36667 16 6.04098 16 5.6396C16 5.23752 15.6749 4.91247 15.2729 4.91247ZM14 14.1444V12.5H2V14.1444C2 14.341 2.15903 14.5 2.35556 14.5H13.6444C13.841 14.5 14 14.341 14 14.1444Z" fill="url(#paint0_linear_1227_3986)"/>
<defs>
<linearGradient id="paint0_linear_1227_3986" x1="8" y1="1" x2="8" y2="14.5" gradientUnits="userSpaceOnUse">
<stop offset="0.351701"/>
<stop offset="1" stop-color="#666666"/>
</linearGradient>
</defs>
</svg>
