<svg width="16" height="16" viewBox="0 0 16 16" fill="none" xmlns="http://www.w3.org/2000/svg">
<g clip-path="url(#clip0_1227_3986)">
<path fill-rule="evenodd" clip-rule="evenodd" d="M8 16C12.4183 16 16 12.4183 16 8C16 3.58172 12.4183 0 8 0C3.58172 0 0 3.58172 0 8C0 12.4183 3.58172 16 8 16ZM6.65535 10.1855H9.09014C9.10145 9.76075 9.16649 9.4086 9.28526 9.12903C9.40403 8.84409 9.62743 8.56452 9.95546 8.29032C10.3344 7.95699 10.6766 7.64516 10.982 7.35484C11.293 7.05914 11.5391 6.74194 11.72 6.40323C11.9067 6.05914 12 5.65591 12 5.19355C12 4.5 11.8416 3.91667 11.5249 3.44355C11.2082 2.96505 10.7529 2.60484 10.1591 2.3629C9.56522 2.12097 8.85543 2 8.02969 2C7.28314 2 6.60728 2.11828 6.00212 2.35484C5.40262 2.58602 4.92188 2.9543 4.55992 3.45968C4.20361 3.95968 4.01697 4.61022 4 5.41129H6.87593C6.88724 5.09946 6.94662 4.84946 7.05408 4.66129C7.16154 4.46774 7.30011 4.32527 7.46978 4.23387C7.6451 4.14247 7.83174 4.09677 8.02969 4.09677C8.27289 4.09677 8.47367 4.14247 8.63203 4.23387C8.79604 4.31989 8.91764 4.45161 8.99682 4.62903C9.08165 4.80645 9.12407 5.03495 9.12407 5.31452C9.12407 5.54032 9.07317 5.75269 8.97137 5.95161C8.86957 6.15054 8.72252 6.34677 8.53022 6.54032C8.33793 6.73387 8.10887 6.93548 7.84305 7.14516C7.5433 7.39247 7.30576 7.66129 7.13043 7.95161C6.95511 8.24194 6.83068 8.56989 6.75716 8.93548C6.68929 9.2957 6.65535 9.71237 6.65535 10.1855ZM6.74867 11.6694C6.45458 11.9274 6.30753 12.25 6.30753 12.6371C6.30753 13.0242 6.45458 13.3495 6.74867 13.6129C7.04277 13.871 7.42453 14 7.89396 14C8.36338 14 8.74514 13.871 9.03924 13.6129C9.33333 13.3495 9.48038 13.0242 9.48038 12.6371C9.48038 12.25 9.33333 11.9274 9.03924 11.6694C8.74514 11.4059 8.36338 11.2742 7.89396 11.2742C7.42453 11.2742 7.04277 11.4059 6.74867 11.6694Z" fill="url(#paint0_linear_1227_3986)"/>
</g>
<defs>
<linearGradient id="paint0_linear_1227_3986" x1="8" y1="0" x2="8" y2="16" gradientUnits="userSpaceOnUse">
<stop/>
<stop offset="1" stop-color="#666666"/>
</linearGradient>
<clipPath id="clip0_1227_3986">
<rect width="16" height="16" fill="white"/>
</clipPath>
</defs>
</svg>
