<svg width="16" height="16" viewBox="0 0 16 16" fill="none" xmlns="http://www.w3.org/2000/svg">
<g clip-path="url(#clip0_1227_3986)">
<path d="M13.7335 0.00329323C11.671 -0.044614 8.46171 0.402188 5.93923 3.19897C5.75672 3.37966 5.60676 3.53555 5.28745 3.38995C4.5714 3.12896 2.86313 2.79411 1.24941 4.39171C-0.352672 5.97779 -0.0476971 7.6963 0.197688 8.44273C0.309529 8.79366 0.427081 8.70876 0.571698 8.54748C1.05181 8.01291 2.26392 7.01255 3.69921 8.47456L5.56119 10.371L7.42202 12.2669C8.8573 13.7289 7.84417 14.932 7.30503 15.4064C7.14238 15.5493 7.05694 15.6665 7.40473 15.7838C8.14445 16.0408 9.85049 16.371 11.4526 14.7849C12.6378 13.6115 12.7858 12.3781 12.6818 11.5186C12.6151 11.0658 12.3897 11.0313 12.0375 11.1216C11.1615 11.3461 10.2356 11.5319 10.2101 11.5059C12.0136 10.7451 13.3399 9.47343 13.401 9.4144C17.0616 5.47504 15.771 0.26286 15.8116 0.222627C15.7955 0.238598 14.971 0.0320375 13.7335 0.00329323ZM11.2578 3.26379C11.4523 3.26065 11.6455 3.29719 11.8256 3.3712C12.0057 3.4452 12.1689 3.55514 12.3055 3.69435C12.5731 3.96708 12.7219 4.33535 12.7192 4.71821C12.7165 5.10107 12.5625 5.46718 12.2911 5.73607C12.0195 6.00479 11.6528 6.15422 11.2715 6.15151C10.8903 6.1488 10.5257 5.99416 10.2579 5.7216C9.99008 5.44893 9.84106 5.08058 9.84366 4.69758C9.84625 4.31458 10.0002 3.94829 10.2718 3.67931C10.535 3.41868 10.8881 3.26987 11.2578 3.26379ZM3.17651 8.93869C3.11581 8.93894 3.03747 8.96764 2.92525 9.04286C1.86091 9.81534 2.1216 10.8727 2.31727 11.4295C2.41582 11.7087 2.48352 11.7467 2.58467 11.5736C2.78566 11.2969 3.02857 11.0754 3.2134 10.9283C3.38056 10.7995 3.3797 10.8744 3.2935 10.9821C2.60529 11.9394 2.4893 13.0851 2.47402 13.5829C2.47349 13.6599 2.50536 13.8424 2.72067 13.8642C4.99421 14.1089 6.05575 13.3049 6.42792 12.7414C6.57009 12.4788 6.59593 12.3444 6.37952 12.124L3.40645 9.09553C3.33002 9.01767 3.27769 8.93829 3.17651 8.93869Z" fill="url(#paint0_linear_1227_3986)"/>
</g>
<defs>
<linearGradient id="paint0_linear_1227_3986" x1="8" y1="0" x2="8" y2="16" gradientUnits="userSpaceOnUse">
<stop/>
<stop offset="1" stop-color="#666666"/>
</linearGradient>
<clipPath id="clip0_1227_3986">
<rect width="16" height="16" fill="white"/>
</clipPath>
</defs>
</svg>
