<svg width="16" height="14" viewBox="0 0 16 14" fill="none" xmlns="http://www.w3.org/2000/svg">
<path d="M14.8378 4.99877H14.5773V4.91943C13.7365 2.03185 11.0333 0 7.98994 0C4.94655 0 2.24336 2.03106 1.422 4.93894V5.01829H1.16153C0.520934 5.01829 0 5.53638 0 6.17348V7.408C0 8.0451 0.520934 8.56319 1.16153 8.56319H1.422V8.64254C2.12282 11.1318 4.2253 13.0237 6.7681 13.4819H6.80799H6.82832C6.90811 13.7806 7.14902 14 7.46892 14H8.4701C8.85023 14 9.15058 13.7013 9.15058 13.3232C9.15058 12.9452 8.85023 12.6465 8.4701 12.6465H7.46892C7.2288 12.6465 7.02856 12.7857 6.9081 12.9849C6.88776 12.9849 6.86821 12.9646 6.84787 12.9646C4.52553 12.5267 2.58345 10.7741 1.92247 8.50422V8.484C2.00225 8.40465 2.06247 8.30508 2.06247 8.18528V5.39728C2.06247 5.27749 2.00225 5.17791 1.92247 5.09857C1.92247 5.09857 1.92247 5.07834 1.9428 5.07834C2.70386 2.38991 5.18643 0.518369 7.98973 0.518369C10.793 0.518369 13.296 2.38999 14.0571 5.07834L14.0774 5.09857C13.9976 5.17792 13.9374 5.27749 13.9374 5.39728V8.18528C13.9374 8.40466 14.1173 8.56334 14.3175 8.56334H14.8385C15.4791 8.56334 16 8.04525 16 7.40815V6.17362C15.9992 5.51707 15.4783 4.999 14.8377 4.999L14.8378 4.99877Z" fill="url(#paint0_linear_1227_3967)"/>
<path d="M7.98957 1.87247C5.26596 1.87247 3.04395 4.06305 3.04395 6.7911C3.04395 9.49985 5.24654 11.7097 7.98957 11.7097C8.81086 11.7097 9.57112 11.5106 10.2524 11.1722L13.2356 12.3468L12.1139 9.5192C12.6348 8.74287 12.9352 7.80626 12.9352 6.81046C12.9352 4.0824 10.713 1.87247 7.98957 1.87247ZM6.16711 7.26885C5.90664 7.26885 5.68686 7.04947 5.68686 6.79122C5.68686 6.53218 5.90744 6.3136 6.16711 6.3136C6.42757 6.3136 6.64735 6.53298 6.64735 6.79122C6.64813 7.05027 6.42755 7.26885 6.16711 7.26885ZM8.0099 7.26885C7.74943 7.26885 7.52965 7.04947 7.52965 6.79122C7.52965 6.53218 7.75023 6.3136 8.0099 6.3136C8.27037 6.3136 8.49015 6.53298 8.49015 6.79122C8.49015 7.05027 8.26957 7.26885 8.0099 7.26885ZM9.87147 7.26885C9.61101 7.26885 9.41077 7.04947 9.41077 6.79122C9.41077 6.53218 9.61101 6.3136 9.87147 6.3136C10.1319 6.3136 10.3517 6.53298 10.3517 6.79122C10.3525 7.05027 10.1319 7.26885 9.87147 7.26885Z" fill="url(#paint1_linear_1227_3967)"/>
<defs>
<linearGradient id="paint0_linear_1227_3967" x1="8" y1="0" x2="8" y2="14" gradientUnits="userSpaceOnUse">
<stop/>
<stop offset="1" stop-color="#666666"/>
</linearGradient>
<linearGradient id="paint1_linear_1227_3967" x1="8.13975" y1="1.87231" x2="8.13975" y2="12.3468" gradientUnits="userSpaceOnUse">
<stop/>
<stop offset="1" stop-color="#666666"/>
</linearGradient>
</defs>
</svg>
