<?xml version="1.0" encoding="UTF-8"?>
<svg id="Layer_1" xmlns="http://www.w3.org/2000/svg" version="1.1" viewBox="0 0 746 122">
  <!-- Generator: Adobe Illustrator 29.8.1, SVG Export Plug-In . SVG Version: 2.1.1 Build 2)  -->
  <defs>
    <style>
      .st0 {
        fill: #ffce01;
      }
    </style>
  </defs>
  <path d="M149.19,19.97C153.97,6.47,162.39-.29,174.45-.29h89.14l-29.72,122.58h-28.98l22.99-94.5h-49.25c-.67,0-1.33.27-2,.82-.73.54-1.21,1.27-1.45,2.18l-8.45,34.8h43.52l-7.03,28.62h-43.43l-6.78,28.08h-28.8l24.99-102.31Z"/>
  <path d="M417.84-.29h8l-16.26,66.42c-1.76,7.45-4,16.69-6.72,27.72h47.79c1.76,0,2.91-.88,3.45-2.64l14.99-63.42,6.81-28.08h29.35l-24.81,102.22c-1.51,6-4.63,10.9-9.36,14.72-4.67,3.76-10.15,5.63-16.45,5.63h-87.59l25.08-102.77c5.09-13.21,13.66-19.81,25.72-19.81"/>
  <path class="st0" d="M615.76,9.25c-5.27-6.36-12.17-9.54-20.72-9.54h-60.34c-12.6,0-21.32,6.75-26.17,20.26-.3.91-.74,2.51-1.32,4.82-.58,2.3-1.14,4.56-1.68,6.77-.54,2.21-.88,3.62-1,4.22v.18c-1.46,7.21.03,13.81,4.45,19.81.24.36.65.8,1.23,1.32.58.51,1.14,1,1.68,1.45.54.45.91.68,1.09.68-2.12.6-4.77,1.94-7.95,4-3.18,2.06-5.8,4.75-7.86,8.09-.61.97-1.23,2.48-1.86,4.54-.64,2.06-1.23,4.21-1.77,6.45-.55,2.24-.98,4.19-1.32,5.86-.33,1.67-.5,2.56-.5,2.68-1.76,8.3.03,15.6,5.36,21.9,5.27,6.36,12.17,9.54,20.72,9.54h60.34c12.6,0,21.32-6.75,26.17-20.26.3-.91.74-2.51,1.32-4.82.57-2.3,1.14-4.56,1.68-6.77.54-2.21.88-3.62,1-4.22v-.18c1.45-7.21-.03-13.81-4.45-19.81-.24-.36-.65-.8-1.23-1.32-.58-.51-1.14-1-1.68-1.45-.54-.45-.91-.68-1.09-.68,2.12-.61,4.77-1.94,7.95-4,3.18-2.06,5.8-4.75,7.86-8.09.6-.97,1.23-2.48,1.86-4.54.63-2.06,1.23-4.21,1.77-6.45.54-2.24.98-4.19,1.32-5.86.33-1.67.5-2.56.5-2.68,1.76-8.3-.03-15.6-5.36-21.9M578.02,82.77l-1.79,7.12c-1.09,4.34-5.49,7.85-9.82,7.85h-38.53c-4.34,0-6.96-3.51-5.87-7.85l1.79-7.12c1.09-4.34,5.49-7.85,9.82-7.85h38.53c4.34,0,6.96,3.51,5.87,7.85M591.13,28.41l-1.79,7.12c-1.09,4.34-5.49,7.85-9.82,7.85h-38.53c-4.33,0-6.96-3.51-5.87-7.85l1.79-7.12c1.09-4.34,5.49-7.85,9.82-7.85h38.53c4.33,0,6.96,3.51,5.87,7.85"/>
  <path class="st0" d="M739.82,9.25c-5.27-6.36-12.17-9.54-20.72-9.54h-60.34c-12.6,0-21.32,6.75-26.17,20.26-.3.91-.74,2.51-1.32,4.82-.58,2.3-1.14,4.56-1.68,6.77-.54,2.21-.88,3.62-1,4.22v.18c-1.46,7.21.03,13.81,4.45,19.81.24.36.65.8,1.23,1.32.58.51,1.14,1,1.68,1.45.54.45.91.68,1.09.68-2.12.6-4.77,1.94-7.95,4-3.18,2.06-5.8,4.75-7.86,8.09-.61.97-1.23,2.48-1.86,4.54-.64,2.06-1.23,4.21-1.77,6.45-.55,2.24-.98,4.19-1.32,5.86-.33,1.67-.5,2.56-.5,2.68-1.76,8.3.03,15.6,5.36,21.9,5.27,6.36,12.18,9.54,20.72,9.54h60.34c12.6,0,21.32-6.75,26.17-20.26.3-.91.74-2.51,1.32-4.82.57-2.3,1.14-4.56,1.68-6.77.54-2.21.88-3.62,1-4.22v-.18c1.45-7.21-.03-13.81-4.45-19.81-.24-.36-.65-.8-1.23-1.32-.58-.51-1.14-1-1.68-1.45-.54-.45-.91-.68-1.09-.68,2.12-.61,4.77-1.94,7.95-4,3.18-2.06,5.8-4.75,7.86-8.09.6-.97,1.23-2.48,1.86-4.54.63-2.06,1.23-4.21,1.77-6.45.54-2.24.98-4.19,1.32-5.86.33-1.67.5-2.56.5-2.68,1.76-8.3-.03-15.6-5.36-21.9M702.08,82.77l-1.79,7.12c-1.09,4.34-5.49,7.85-9.82,7.85h-38.53c-4.33,0-6.96-3.51-5.87-7.85l1.79-7.12c1.09-4.34,5.49-7.85,9.82-7.85h38.53c4.33,0,6.96,3.51,5.87,7.85M715.19,28.41l-1.79,7.12c-1.09,4.34-5.49,7.85-9.82,7.85h-38.53c-4.33,0-6.96-3.51-5.87-7.85l1.79-7.12c1.09-4.34,5.49-7.85,9.82-7.85h38.53c4.33,0,6.96,3.51,5.87,7.85"/>
  <path d="M131.47,9.25C126.2,2.89,119.29-.29,110.75-.29h-59.88c-12.6,0-21.29,6.75-26.08,20.26-.53,2.25-2.01,8.39-4.42,18.37h0l-10.93,45.32h0c-.25,1.05-.51,2.13-.77,3.21l-.02.08h0c-2.46,10.22-5.28,21.99-8.49,35.34h93.68c12.6,0,21.32-6.75,26.17-20.26.3-.91,3.88-15.2,4-15.81v-.18c1.45-7.21-.03-13.81-4.45-19.81-.24-.36-.65-.8-1.23-1.32-.58-.52-1.14-1-1.68-1.45-.54-.45-.91-.68-1.09-.68,2.12-.6,4.77-1.94,7.95-4,3.18-2.06,5.8-4.75,7.86-8.09.6-.97,5.45-19.41,5.45-19.54,1.76-8.3-.03-15.6-5.36-21.9ZM106.3,32.06c-.06.36-.21.98-.45,1.86-.24.88-.5,1.8-.77,2.77-.27.97-.62,2.18-1.05,3.64-.49,1.94-1.51,3.48-3.09,4.63-1.58,1.15-3.39,1.73-5.45,1.73h-35.64l-6.73,28.62h31.57c2.97,0,5.27,1.03,6.91,3.09,1.69,2.12,2.24,4.51,1.64,7.18-.06.3-.15.73-.27,1.27-.12.54-.27,1.14-.45,1.77-.18.64-.32,1.18-.41,1.64-.09.45-.17.71-.23.77,0,.18-.15.53-.45,1.05-.3.52-.68,1-1.14,1.45-.45.45-.99.68-1.59.68h-51.7c.12-.67,1.91-8.06,2.45-10.36.01-.06.03-.13.05-.19h0l10.68-45.32,1.73-7.55c.3-.91.82-1.64,1.55-2.18.73-.55,1.42-.82,2.09-.82h47.25c1.09,0,2,.43,2.73,1.27.73.85,1,1.85.82,3Z"/>
  <path d="M374.33,9.25c-5.27-6.36-12.18-9.54-20.72-9.54h-59.88c-12.6,0-21.29,6.75-26.08,20.26-.52,2.18-1.92,8.03-4.2,17.49h0l-.05.21c-.05.22-.11.44-.16.67h0l-10.93,45.32h0c-.25,1.05-.51,2.13-.77,3.21l-.02.08h0c-2.46,10.22-5.28,21.99-8.49,35.34h93.68c12.6,0,21.32-6.75,26.17-20.26.3-.91,3.88-15.2,4-15.81v-.18c1.45-7.21-.03-13.81-4.45-19.81-.24-.36-.65-.8-1.23-1.32-.58-.52-1.14-1-1.68-1.45-.54-.45-.91-.68-1.09-.68,2.12-.6,4.77-1.94,7.95-4,3.18-2.06,5.8-4.75,7.86-8.09.6-.97,5.45-19.41,5.45-19.54,1.76-8.3-.03-15.6-5.36-21.9ZM349.17,32.06c-.06.36-.21.98-.45,1.86-.24.88-.5,1.8-.77,2.77-.27.97-.62,2.18-1.05,3.64-.49,1.94-1.51,3.48-3.09,4.63-1.58,1.15-3.39,1.73-5.45,1.73h-35.64l-6.73,28.62h31.57c2.97,0,5.27,1.03,6.91,3.09,1.69,2.12,2.24,4.51,1.64,7.18-.06.3-.15.73-.27,1.27-.12.54-.27,1.14-.45,1.77-.18.64-.32,1.18-.41,1.64-.09.45-.17.71-.23.77,0,.18-.15.53-.45,1.05s-.68,1-1.14,1.45c-.45.45-.99.68-1.59.68h-51.7c.12-.67,1.91-8.06,2.45-10.36.01-.06.03-.13.05-.19h0l10.68-45.32,1.73-7.55c.3-.91.82-1.64,1.55-2.18.73-.55,1.42-.82,2.09-.82h47.25c1.09,0,2,.43,2.73,1.27.73.85,1,1.85.82,3Z"/>
</svg>