<svg width="40" height="40" viewBox="0 0 40 40" fill="none" xmlns="http://www.w3.org/2000/svg">
<g clip-path="url(#clip0_2292_10620)">
<path d="M34.1426 34.1423C41.9532 26.3317 41.9532 13.6683 34.1426 5.85773C26.3321 -1.95282 13.6686 -1.95282 5.85809 5.85773C-1.95247 13.6683 -1.95247 26.3317 5.85809 34.1423C13.6686 41.9528 26.3321 41.9528 34.1426 34.1423Z" fill="url(#paint0_linear_2292_10620)"/>
<path d="M28.4229 13.8114C28.8532 13.069 28.6003 12.1184 27.858 11.6881C27.1156 11.2578 26.165 11.5107 25.7347 12.2531C25.3044 12.9954 25.5573 13.946 26.2997 14.3763C27.042 14.8066 27.9926 14.5537 28.4229 13.8114Z" fill="white"/>
<path d="M20.1725 13.4731C16.5738 13.4731 13.6455 16.4011 13.6455 19.9998C13.6455 23.5985 16.5735 26.5265 20.1725 26.5265C23.7716 26.5265 26.6992 23.5985 26.6992 19.9998C26.6992 16.4011 23.7712 13.4731 20.1725 13.4731ZM20.1725 24.1809C17.8673 24.1809 15.9914 22.3055 15.9914 20.0002C15.9914 17.6949 17.8669 15.8194 20.1725 15.8194C22.4782 15.8194 24.3533 17.6949 24.3533 20.0002C24.3533 22.3055 22.4778 24.1809 20.1725 24.1809Z" fill="white"/>
<path d="M25.3541 33.251H14.773C10.3835 33.251 6.8125 29.68 6.8125 25.2905V14.7091C6.8125 10.3195 10.3835 6.74854 14.773 6.74854H25.3541C29.7436 6.74854 33.315 10.3195 33.315 14.7091V25.2905C33.315 29.68 29.7436 33.251 25.3541 33.251ZM14.773 9.24191C11.7582 9.24191 9.30587 11.6943 9.30587 14.7091V25.2905C9.30587 28.3053 11.7582 30.7576 14.773 30.7576H25.3541C28.3689 30.7576 30.822 28.3053 30.822 25.2905V14.7091C30.822 11.6943 28.3692 9.24191 25.3541 9.24191H14.773Z" fill="white"/>
</g>
<defs>
<linearGradient id="paint0_linear_2292_10620" x1="2.94556" y1="37.0545" x2="46.1677" y2="-6.16759" gradientUnits="userSpaceOnUse">
<stop stop-color="#F3DF8D"/>
<stop offset="0.21" stop-color="#EAB950"/>
<stop offset="0.38" stop-color="#D65372"/>
<stop offset="0.52" stop-color="#B7398D"/>
<stop offset="0.74" stop-color="#7D3CC8"/>
<stop offset="1" stop-color="#5850E3"/>
</linearGradient>
<clipPath id="clip0_2292_10620">
<rect width="40" height="40" fill="white"/>
</clipPath>
</defs>
</svg>
