<svg xmlns="http://www.w3.org/2000/svg" width="60" height="60" viewBox="0 0 60 60"><defs><style>.a{fill:#fddd04;}.b{fill:#262626;}</style></defs><g transform="translate(-32.9 -29.1)"><path class="a" d="M64.646,89.1h-3.51a2.093,2.093,0,0,0-.456-.088,27.619,27.619,0,0,1-10.512-2.756A29.606,29.606,0,0,1,33.374,64.314c-.228-1.141-.316-2.3-.474-3.458V57.345c.035-.176.088-.334.105-.509a28.452,28.452,0,0,1,3.422-11.814A29.628,29.628,0,0,1,57.679,29.574c1.141-.228,2.316-.316,3.475-.474h3.51a2.094,2.094,0,0,0,.456.088,27.639,27.639,0,0,1,10.459,2.721,29.589,29.589,0,0,1,16.847,21.96c.228,1.141.316,2.3.474,3.458v3.511c-.035.176-.088.334-.105.509a28.452,28.452,0,0,1-3.422,11.814A29.628,29.628,0,0,1,68.121,88.608C66.98,88.854,65.8,88.942,64.646,89.1ZM55.4,59.1v9.075a1.989,1.989,0,0,0,.983,1.931,1.947,1.947,0,0,0,2.141-.193L73,60.855a1.918,1.918,0,0,0,0-3.511q-7.213-4.529-14.425-9.023a2.007,2.007,0,0,0-2.194-.228,2.038,2.038,0,0,0-.983,1.984C55.4,53.1,55.4,56.1,55.4,59.1Z" transform="translate(0 0)"/><path class="b" d="M164.676,136.418a2.007,2.007,0,0,0-2.194-.228,2.038,2.038,0,0,0-.983,1.984v18.1a1.989,1.989,0,0,0,.983,1.931,1.947,1.947,0,0,0,2.141-.193l14.478-9.058a1.918,1.918,0,0,0,0-3.511Q171.889,140.912,164.676,136.418Z" transform="translate(-106.032 -88.096)"/></g></svg>