<svg width="40" height="26" viewBox="0 0 40 26" fill="none" xmlns="http://www.w3.org/2000/svg">
<g clip-path="url(#clip0_2293_13766)">
<path fill-rule="evenodd" clip-rule="evenodd" d="M29.5901 3.69554L23.7057 9.56262L24.1186 12.8572L25.2033 10.5922L28.5577 14.8642L33.2528 0.453125L17.6162 6.93795L21.8489 9.1508L29.5901 3.69554Z" fill="#8C3494"/>
<path d="M24.4807 13.9883C24.4807 13.9883 19.5 13.9883 18.288 13.9883C13.5661 14.709 13.0754 21.5534 18.2357 22.48H24.4807V16.3055C26.5624 16.3746 26.9923 18.964 25.4607 19.9076C25.7705 20.2672 27.0093 21.6056 27.0093 21.6056C30.2605 18.8089 28.4022 14.2125 24.4807 13.9883ZM22.211 20.1642C22.211 20.1642 19.0107 20.1642 18.7533 20.1642C16.6122 20.2926 15.915 16.7681 18.5468 16.3041C19.3204 16.3041 22.211 16.3041 22.211 16.3041V20.1642Z" fill="#8C3494"/>
<path fill-rule="evenodd" clip-rule="evenodd" d="M37.4333 17.0772C36.401 17.0772 35.1622 17.0772 35.1622 17.0772L34.1821 19.3423C34.1821 19.3423 36.8139 19.3423 37.0727 19.3423C37.654 19.3169 37.6794 20.1659 37.0727 20.2167C36.3246 20.2167 32.0665 20.2167 32.0665 20.2167V16.3058H39.7554V13.9885C39.7554 13.9885 38.6849 13.9885 38.6198 13.9885C38.2847 9.20179 32.5431 9.06076 31.0342 11.6727C31.3312 11.9167 32.7369 13.1649 32.7369 13.1649C33.6009 11.8138 36.0008 11.8787 36.3487 13.9885H29.7939V22.4803H37.1731C38.8504 22.4549 39.6239 21.2195 39.8049 20.1645C39.911 18.4664 38.8786 17.3339 37.4333 17.0772Z" fill="#8C3494"/>
<path fill-rule="evenodd" clip-rule="evenodd" d="M15.3468 13.9883H12.353C11.3984 15.1462 9.74663 19.83 13.0233 23.3545C13.0233 23.3545 14.4431 22.1444 14.7259 21.9131C13.7205 20.9371 12.0433 16.9486 15.3468 13.9883Z" fill="#8C3494"/>
<path fill-rule="evenodd" clip-rule="evenodd" d="M7.72687 23.4375C7.72687 24.4713 6.88684 25.309 5.85025 25.309C4.81366 25.309 3.97363 24.4713 3.97363 23.4375C3.97363 22.4037 4.81366 21.5659 5.85025 21.5659C6.88684 21.5659 7.72687 22.4037 7.72687 23.4375Z" fill="#8C3494"/>
<path fill-rule="evenodd" clip-rule="evenodd" d="M3.73481 13.9883C-0.987132 14.709 -1.47785 21.5534 3.68249 22.48H3.71643C4.0827 21.6691 4.9001 21.1035 5.85043 21.1035C6.80075 21.1035 7.61815 21.6691 7.98442 22.48H9.92751C9.92751 22.1966 9.92751 13.9883 9.92751 13.9883C9.92751 13.9883 4.94677 13.9883 3.73481 13.9883ZM7.65633 20.1642C7.65633 20.1642 4.45605 20.1642 4.19866 20.1642C2.0576 20.2926 1.36041 16.7681 3.99219 16.3041C4.76575 16.3041 7.65633 16.3041 7.65633 16.3041V20.1642Z" fill="#8C3494"/>
<path fill-rule="evenodd" clip-rule="evenodd" d="M5.95492 11.9815C6.71575 11.8532 7.08909 10.2962 5.85027 9.94922C5.70885 9.94922 3.83789 9.94922 3.83789 9.94922V12.9082H4.66377V11.9815L5.59289 12.9082H6.88403L5.95492 11.9815ZM5.85593 10.9365C5.85593 11.0437 5.76825 11.1311 5.66077 11.1311H4.67367V10.7193H5.66077C5.76825 10.7193 5.85593 10.8067 5.85593 10.9139V10.9365V10.9365Z" fill="#8C3494"/>
<path fill-rule="evenodd" clip-rule="evenodd" d="M8.31968 9.90283C7.48956 9.90283 6.81641 10.5742 6.81641 11.402C6.81641 12.2299 7.48956 12.9013 8.31968 12.9013C9.1498 12.9013 9.82295 12.2299 9.82295 11.402C9.82437 10.5742 9.15122 9.90283 8.31968 9.90283ZM8.31968 12.0607C7.95482 12.0607 7.65926 11.7659 7.65926 11.402C7.65926 11.0382 7.95482 10.7434 8.31968 10.7434C8.68454 10.7434 8.9801 11.0382 8.9801 11.402C8.98152 11.7659 8.68595 12.0607 8.31968 12.0607Z" fill="#8C3494"/>
<path fill-rule="evenodd" clip-rule="evenodd" d="M16.8512 10.7545H18.2032V9.88574H17.0591C16.1597 9.88574 15.4243 10.5627 15.4243 11.3892C15.4243 12.2157 16.1597 12.8926 17.0591 12.8926H18.2032V12.0238H16.8512C16.6532 12.0238 16.4765 11.9294 16.3633 11.7841H18.2032V10.9943H16.3619C16.4751 10.849 16.6518 10.7545 16.8512 10.7545Z" fill="#8C3494"/>
<path fill-rule="evenodd" clip-rule="evenodd" d="M11.4789 12.0238C11.138 12.0238 10.8594 11.746 10.8594 11.4061V11.3723C10.8594 11.0324 11.138 10.7545 11.4789 10.7545H12.7629V9.88574H11.6104C10.711 9.88574 9.97559 10.5627 9.97559 11.3892C9.97559 12.2157 10.711 12.8926 11.6104 12.8926H12.7629V12.0238H11.4789V12.0238Z" fill="#8C3494"/>
<path fill-rule="evenodd" clip-rule="evenodd" d="M21.341 9.94189H18.4277V10.719H19.494V12.8472H20.2747V10.719H21.341V9.94189Z" fill="#8C3494"/>
<path d="M14.409 11.3833L15.8416 9.94189H14.6819L13.8758 10.7529V9.94189H13.0952V12.8472H13.8758V12.0137L14.7046 12.8472H15.8642L14.409 11.3833Z" fill="#8C3494"/>
<path d="M26.137 23.9216C26.0083 23.947 25.8952 24.0273 25.7976 24.1641C25.7028 24.2939 25.6562 24.4237 25.6562 24.5562C25.6562 24.6366 25.6731 24.7128 25.7057 24.7875C25.7481 24.8834 25.8046 24.93 25.8754 24.93C25.9121 24.93 25.9588 24.9102 26.0168 24.8707L26.0974 25.0865C26.0238 25.1302 25.9531 25.1528 25.8838 25.1528C25.7905 25.1528 25.7 25.1176 25.6123 25.0484C25.5614 25.0075 25.5147 24.9314 25.4695 24.8171C25.4469 24.7607 25.4355 24.6775 25.4355 24.5661V24.4871C25.4355 24.3108 25.5289 24.1134 25.717 23.8919C25.7566 23.8468 25.823 23.7819 25.9178 23.6987H26.2119V23.9131C26.1851 23.9173 26.1596 23.9187 26.137 23.9216Z" fill="#8C3494"/>
<path d="M27.4408 23.9146V25.1374H27.1962V24.9794C27.1962 24.9258 27.1552 24.8553 27.0717 24.7707C27.0095 24.7058 26.9431 24.6508 26.8752 24.6029C26.7988 24.5507 26.7154 24.5239 26.6263 24.5239C26.5344 24.5239 26.4679 24.5634 26.4269 24.641C26.4212 24.6494 26.4198 24.6607 26.4198 24.6748C26.4198 24.7072 26.4354 24.7369 26.4679 24.7637C26.5004 24.7905 26.5329 24.8031 26.5655 24.8031C26.5909 24.8031 26.6532 24.7848 26.7521 24.7467L26.8243 24.9696C26.7154 25.0246 26.6235 25.0528 26.5513 25.0528C26.4693 25.0528 26.3944 25.0302 26.3279 24.9837C26.26 24.9385 26.2105 24.8779 26.1794 24.8031C26.1653 24.7707 26.1582 24.7312 26.1582 24.6847C26.1582 24.5465 26.2162 24.4407 26.3307 24.3673C26.4113 24.3152 26.4962 24.2884 26.5867 24.2884C26.5952 24.2884 26.6037 24.2884 26.6107 24.2884C26.6093 24.2461 26.5867 24.1981 26.5428 24.1445C26.499 24.0909 26.4566 24.0655 26.4156 24.0655H26.144V23.916H26.0352V23.7017H27.6134V23.916H27.4408V23.9146ZM27.1962 23.9146H26.6192C26.7818 24.0204 26.8667 24.1572 26.8738 24.3279C26.977 24.3688 27.0845 24.4491 27.1962 24.5704V23.9146Z" fill="#8C3494"/>
<path d="M27.9188 23.9146V25.1374H27.6742V23.9146H27.4932V23.7002H28.0829V23.9146H27.9188Z" fill="#8C3494"/>
<path d="M29.0996 23.9146H27.9951V23.7002H29.5238V23.9146H29.3541V25.1374H29.1378C29.1166 25.0753 29.0105 24.978 28.8196 24.8454C28.7418 24.7918 28.6329 24.7396 28.4957 24.6889C28.3501 24.6353 28.2327 24.6071 28.1464 24.6071L28.0814 24.3631C28.1379 24.3179 28.2963 24.239 28.5551 24.1275C28.6654 24.0796 28.8465 24.0091 29.0996 23.9146ZM29.1137 24.1783C29.0685 24.1938 29.019 24.2107 28.9667 24.2319C28.8903 24.2657 28.7503 24.3264 28.5481 24.4152L28.5014 24.435C28.6951 24.5027 28.8804 24.6028 29.0572 24.7354C29.0798 24.7523 29.0996 24.7664 29.1151 24.7791V24.1783H29.1137Z" fill="#8C3494"/>
<path d="M29.8324 23.9146V25.1374H29.5878V23.9146H29.4067V23.7002H29.9965V23.9146H29.8324Z" fill="#8C3494"/>
<path d="M29.9102 23.9149V23.7006H30.6342C30.6356 23.6921 30.637 23.6864 30.637 23.6822C30.637 23.5708 30.5847 23.496 30.4787 23.4608C30.4645 23.458 30.449 23.4551 30.432 23.4551C30.4065 23.4551 30.374 23.4608 30.3358 23.4707C30.2835 23.4848 30.2524 23.4918 30.2425 23.4932C30.2001 23.5003 30.1647 23.513 30.1336 23.5313C30.094 23.5595 30.0473 23.5835 29.995 23.6061L29.9172 23.4241C30.0106 23.3592 30.1336 23.3042 30.2863 23.2577C30.35 23.2394 30.4108 23.2295 30.4688 23.2295C30.5296 23.2295 30.5989 23.2521 30.6752 23.2958C30.8053 23.3733 30.8732 23.5073 30.8789 23.6977H31.0189V23.9121H29.9102V23.9149ZM30.7615 25.3422C30.6625 25.2519 30.5564 25.1687 30.4433 25.0912C30.3896 25.0545 30.3005 25.0122 30.1746 24.9671C30.0756 24.9318 30.0176 24.9135 30.0007 24.9135L30.0035 24.6272C30.0247 24.6272 30.0558 24.6286 30.0982 24.6314C30.1407 24.6342 30.1718 24.6356 30.193 24.6356C30.3047 24.6356 30.3938 24.6215 30.4645 24.5933C30.596 24.5383 30.6625 24.4734 30.6625 24.3973C30.6625 24.3423 30.637 24.2957 30.5875 24.2591C30.5395 24.2308 30.49 24.2026 30.4391 24.1758C30.4249 24.1688 30.4108 24.166 30.398 24.166C30.3683 24.166 30.3358 24.173 30.3019 24.1885C30.258 24.2083 30.2382 24.2308 30.2425 24.2562C30.251 24.3197 30.3174 24.3465 30.4433 24.3366L30.3104 24.5397C30.2566 24.5425 30.2015 24.5256 30.1463 24.4889C30.0459 24.4212 29.995 24.338 29.995 24.2407C29.995 24.142 30.0459 24.0658 30.1492 24.0122C30.2326 23.9671 30.3288 23.9431 30.4362 23.9431C30.4829 23.9431 30.5239 23.9502 30.5578 23.9657C30.5918 23.9812 30.6257 23.9981 30.6611 24.0165C30.828 24.1011 30.9114 24.2294 30.9114 24.4015C30.9114 24.5242 30.8605 24.6243 30.7572 24.7005C30.6795 24.7583 30.5677 24.7992 30.4207 24.8246C30.4645 24.8444 30.5267 24.8796 30.6088 24.929C30.7473 25.0333 30.8591 25.1278 30.9453 25.2096L30.7615 25.3422Z" fill="#8C3494"/>
<path d="M32.4838 23.9146V25.1374H32.2391V24.6522C32.2391 24.6099 32.2207 24.5662 32.184 24.5224C32.1472 24.4773 32.109 24.4561 32.0666 24.4561C32.0284 24.4561 31.9916 24.4801 31.9577 24.5267C31.9223 24.5732 31.9054 24.6268 31.9054 24.6874H31.6409C31.6409 24.6197 31.6239 24.5619 31.5886 24.5126C31.5532 24.4632 31.5136 24.4392 31.4684 24.4392C31.4302 24.4392 31.3934 24.4533 31.3581 24.4801C31.3227 24.5069 31.3043 24.5379 31.3001 24.5746L31.2916 24.6381V24.6635C31.2916 24.789 31.368 24.851 31.5235 24.851C31.5476 24.851 31.59 24.8454 31.648 24.8355L31.5617 25.0823C31.5108 25.088 31.4811 25.0908 31.4698 25.0908C31.3552 25.0908 31.2492 25.0485 31.1516 24.9639C31.1134 24.9314 31.0823 24.8821 31.0583 24.8158C31.0356 24.7566 31.0243 24.6987 31.0243 24.6423C31.0243 24.5097 31.0653 24.4026 31.1474 24.3208C31.2294 24.239 31.3354 24.1981 31.4684 24.1981C31.5914 24.1981 31.6946 24.2573 31.7781 24.3743C31.8686 24.2573 31.9662 24.1981 32.0708 24.1981C32.1288 24.1981 32.184 24.2234 32.2377 24.2756V23.9146H30.9126V23.7002H32.6209V23.9146H32.4838V23.9146Z" fill="#8C3494"/>
<path d="M34.3222 23.9146H33.2178V23.7002H34.7465V23.9146H34.5768V25.1374H34.3604C34.3392 25.0753 34.2332 24.978 34.0422 24.8454C33.9645 24.7918 33.8556 24.7396 33.7184 24.6889C33.5727 24.6353 33.4554 24.6071 33.3691 24.6071L33.304 24.3631C33.3606 24.3179 33.519 24.239 33.7778 24.1275C33.8867 24.0796 34.0677 24.0091 34.3222 23.9146ZM34.335 24.1783C34.2897 24.1938 34.2402 24.2107 34.1879 24.2319C34.1115 24.2657 33.9715 24.3264 33.7693 24.4152L33.7226 24.435C33.9164 24.5027 34.1016 24.6028 34.2784 24.7354C34.301 24.7523 34.3208 24.7664 34.3364 24.7791V24.1783H34.335Z" fill="#8C3494"/>
<path d="M35.1569 23.9145C35.0791 24.0216 35.0409 24.1091 35.0409 24.1796C35.0409 24.212 35.0805 24.3404 35.1597 24.566C35.2007 24.6803 35.2219 24.7734 35.2219 24.8481C35.2219 24.9906 35.1427 25.0907 34.9829 25.1457C34.9348 25.164 34.8471 25.1796 34.7227 25.1908L34.7552 24.9793C34.8995 24.9483 34.973 24.8975 34.973 24.827C34.973 24.7607 34.9433 24.6591 34.8825 24.5209C34.8217 24.3841 34.792 24.2826 34.792 24.2177C34.792 24.1345 34.8273 24.0329 34.8966 23.9116H34.6421V23.6973H35.3251V23.9116H35.1569V23.9145Z" fill="#8C3494"/>
<path d="M35.681 23.9146V25.1374H35.4364V23.9146H35.2554V23.7002H35.8451V23.9146H35.681Z" fill="#8C3494"/>
<path d="M36.2471 24.4928C36.1326 24.4928 36.0406 24.4562 35.9713 24.3842C35.9021 24.3123 35.8667 24.2192 35.8667 24.1064C35.8667 24.002 35.9021 23.9132 35.9728 23.8441C36.0435 23.7735 36.1326 23.7383 36.2386 23.7383C36.3829 23.7383 36.4875 23.8102 36.5512 23.9541C36.5794 24.0147 36.5936 24.0754 36.5936 24.1346C36.5936 24.2446 36.5639 24.332 36.5031 24.3969C36.4437 24.4604 36.3588 24.4928 36.2471 24.4928ZM36.5158 25.2812C36.2047 25.0203 35.994 24.8637 35.8837 24.8116L35.8865 24.4731C36.3136 24.7777 36.5936 25.0217 36.7251 25.2022V25.4533L36.5158 25.2812ZM36.298 23.995C36.274 23.978 36.2485 23.971 36.2245 23.9752C36.1312 23.9907 36.0859 24.0359 36.0859 24.112C36.0859 24.1515 36.1015 24.1868 36.1312 24.2192C36.1623 24.2516 36.1962 24.2686 36.2344 24.2686L36.2683 24.2629C36.3376 24.2404 36.373 24.1981 36.373 24.136C36.3744 24.0782 36.3489 24.0316 36.298 23.995Z" fill="#8C3494"/>
<path d="M38.2649 23.5567C37.9792 23.3776 37.7459 23.2873 37.5634 23.2873C37.3485 23.2873 37.1915 23.355 37.0911 23.4904C37.0557 23.5383 37.0374 23.6074 37.0345 23.6991H37.2071V23.9135H37.0345V25.1363H36.7856V23.9135H36.6216V23.6991H36.7856C36.7913 23.5256 36.8479 23.3846 36.9582 23.2774C37.0671 23.1688 37.2155 23.1025 37.4036 23.0771C37.422 23.0757 37.4588 23.0715 37.5125 23.0645H37.5648C37.7147 23.0645 37.8632 23.0969 38.0103 23.1604C38.0895 23.197 38.221 23.2718 38.4035 23.3832L38.2649 23.5567Z" fill="#8C3494"/>
<path d="M38.0612 23.9146V23.9216C38.163 23.9273 38.2705 23.9597 38.3822 24.0189C38.5378 24.1036 38.617 24.2192 38.617 24.3659C38.617 24.4505 38.5915 24.5238 38.5392 24.5859C38.4869 24.648 38.419 24.6889 38.3342 24.7086C38.2493 24.7283 38.1772 24.7312 38.1192 24.7171V24.4858C38.1475 24.4886 38.1729 24.4914 38.197 24.4914C38.32 24.4914 38.3808 24.4477 38.3808 24.3588C38.3808 24.2545 38.2748 24.1882 38.0626 24.1614V25.1374H37.8463C37.8109 25.0697 37.777 25.0175 37.7416 24.9794C37.7289 24.9653 37.6978 24.9258 37.6483 24.8581C37.6327 24.8355 37.6044 24.8087 37.562 24.7749C37.5196 24.741 37.4913 24.7128 37.4758 24.6917C37.4687 24.6818 37.4503 24.6705 37.4178 24.6592C37.3117 24.6226 37.2254 24.6028 37.1604 24.6028L37.0953 24.3588C37.1491 24.3193 37.2707 24.2474 37.4602 24.1402C37.4743 24.1304 37.5323 24.0965 37.6341 24.0387C37.6709 24.0161 37.7317 23.9809 37.818 23.9329V23.9146H37.0444V23.7002H38.7273V23.9146H38.0612ZM37.8166 24.1966C37.777 24.2277 37.7162 24.2672 37.6341 24.3179C37.6129 24.3264 37.5889 24.3433 37.562 24.3701C37.5351 24.3969 37.5097 24.4209 37.4857 24.442C37.5111 24.466 37.5535 24.4985 37.6115 24.5408C37.6653 24.6014 37.7346 24.6776 37.818 24.7664V24.1966H37.8166Z" fill="#8C3494"/>
<path d="M39.0909 24.4928C38.9763 24.4928 38.8844 24.4562 38.8151 24.3842C38.7458 24.3123 38.7104 24.2192 38.7104 24.1064C38.7104 24.002 38.7458 23.9132 38.8165 23.8441C38.8872 23.7735 38.9763 23.7383 39.0824 23.7383C39.2266 23.7383 39.3313 23.8102 39.3949 23.9541C39.4232 24.0147 39.4359 24.0754 39.4359 24.1346C39.4359 24.2446 39.4062 24.332 39.3454 24.3969C39.2874 24.4604 39.2026 24.4928 39.0909 24.4928ZM39.3596 25.2812C39.0484 25.0203 38.8377 24.8637 38.726 24.8116L38.7288 24.4731C39.1559 24.7777 39.4359 25.0217 39.5674 25.2022V25.4533L39.3596 25.2812ZM39.1418 23.995C39.1177 23.978 39.0923 23.971 39.0682 23.9752C38.9763 23.9907 38.9296 24.0359 38.9296 24.112C38.9296 24.1515 38.9452 24.1868 38.9749 24.2192C39.006 24.2516 39.0399 24.2686 39.0781 24.2686L39.1121 24.2629C39.1814 24.2404 39.2167 24.1981 39.2167 24.136C39.2181 24.0782 39.1927 24.0316 39.1418 23.995Z" fill="#8C3494"/>
<path d="M11.9937 25.2418L12.4504 25.3956L12.6329 25.2418L12.1761 25.0811L11.9937 25.2418Z" fill="#8C3494"/>
<path d="M12.1464 23.9767V23.7017H8.56001V23.9767H9.16245V24.593C9.16245 24.593 9.62347 24.593 9.68004 24.593C9.68004 24.593 9.82711 24.5451 9.86247 24.4717C9.86247 24.5592 9.86247 24.6819 9.86247 24.7143C9.86247 24.8229 9.78186 24.9174 9.68004 24.9174C9.57822 24.9174 8.96446 24.9174 8.91921 24.9174C8.87396 24.9174 8.82729 24.8976 8.82729 24.7143C8.82729 24.5324 8.82729 24.1403 8.82729 24.1403H8.55859C8.55859 24.1403 8.55859 24.8158 8.55859 24.8765C8.55859 24.9371 8.59678 25.1515 8.79052 25.1515C8.98285 25.1515 9.78186 25.1515 9.82146 25.1515C9.98267 25.1459 10.0958 24.9837 10.1057 24.8455C10.1057 24.5479 10.1057 24.1403 10.1057 24.1403H9.86247C9.83701 24.2489 9.85257 24.3222 9.74085 24.349C9.62913 24.349 9.4368 24.349 9.4368 24.349V23.9767H10.3192V25.1515H10.6233V23.9767H10.8368V25.1515C10.8368 25.1515 11.7702 25.1515 11.8409 25.1515C11.9116 25.1515 12.145 25.0923 12.145 24.8356C12.145 24.5789 12.145 24.1403 12.145 24.1403H11.9017C11.9017 24.208 11.8918 24.3095 11.7801 24.3095C11.6684 24.3095 11.1098 24.3095 11.1098 24.3095V23.9767H12.1464V23.9767ZM11.7504 24.5521C11.7957 24.5662 11.8565 24.4915 11.9031 24.4308C11.9031 24.4985 11.9031 24.6071 11.9031 24.7143C11.9031 24.8229 11.8169 24.9174 11.7504 24.9174C11.6839 24.9174 11.1112 24.9174 11.1112 24.9174V24.5521C11.1112 24.5521 11.6938 24.5521 11.7504 24.5521Z" fill="#8C3494"/>
<path d="M13.0895 24.3096H12.48V24.634H13.0895V24.3096Z" fill="#8C3494"/>
<path d="M13.4263 23.7016V23.9766H14.4289V24.1402H13.4263C13.4263 24.1402 13.4263 24.7481 13.4263 24.7946C13.4475 25.0076 13.5578 25.1515 13.7657 25.1515C14.0146 25.1515 14.6736 25.1515 14.6736 25.1515V23.9766H14.8871V25.1515H15.1615V23.7002H13.4263V23.7016ZM14.4289 24.9568C14.4289 24.9568 13.8449 24.9568 13.8194 24.9568C13.7275 24.9427 13.6667 24.8355 13.6667 24.7142C13.6667 24.593 13.6667 24.3899 13.6667 24.3899H14.4275V24.9568H14.4289Z" fill="#8C3494"/>
<path d="M16.4751 23.9766H17.7167V24.1402C17.6616 24.1402 17.3872 24.1402 17.3519 24.1402C17.3363 24.2544 17.1482 24.3165 17.1087 24.1402C16.9064 24.1402 16.4751 24.1402 16.4751 24.1402C16.4751 24.1402 16.4751 24.7678 16.4751 24.8355C16.4751 24.9032 16.485 25.1232 16.6717 25.1514C16.8442 25.1514 17.1695 25.1514 17.1695 25.1514V24.9159C17.1695 24.9159 16.8951 24.9159 16.8343 24.9159C16.7678 24.8961 16.7127 24.8552 16.7127 24.7537C16.7127 24.6324 16.7127 24.3884 16.7127 24.3884H17.0478V24.5915H17.3519V24.4293C17.3321 24.3545 17.6715 24.3616 17.6871 24.4293C17.6871 24.5308 17.6871 25.15 17.6871 25.15H17.96V23.9752H18.1424V25.15H18.4168V23.6987H16.4751V23.9766Z" fill="#8C3494"/>
<path d="M16.0423 23.7822C15.9306 23.7822 15.396 23.7822 15.396 23.7822C15.396 23.7822 15.396 24.1024 15.396 24.163C15.4215 24.2843 15.4865 24.4338 15.7085 24.4465C15.932 24.4465 16.2261 24.4465 16.2261 24.4465V23.9769C16.2106 23.8979 16.154 23.7963 16.0423 23.7822ZM15.8457 24.1884C15.7283 24.1884 15.6336 24.1461 15.6336 24.0939C15.6336 24.0417 15.7283 23.9994 15.8457 23.9994C15.9631 23.9994 16.0564 24.0417 16.0564 24.0939C16.0564 24.1461 15.9617 24.1884 15.8457 24.1884Z" fill="#8C3494"/>
<path d="M15.4385 24.5903V24.8287L16.2205 25.1531V24.8992L15.4385 24.5903Z" fill="#8C3494"/>
<path d="M22.6014 23.7822C22.4896 23.7822 21.9551 23.7822 21.9551 23.7822C21.9551 23.7822 21.9551 24.1024 21.9551 24.163C21.9805 24.2843 22.0456 24.4338 22.2676 24.4465C22.491 24.4465 22.7852 24.4465 22.7852 24.4465V23.9769C22.7696 23.8979 22.7131 23.7963 22.6014 23.7822ZM22.4048 24.1884C22.2874 24.1884 22.1927 24.1461 22.1927 24.0939C22.1927 24.0417 22.2874 23.9994 22.4048 23.9994C22.5207 23.9994 22.6155 24.0417 22.6155 24.0939C22.6155 24.1461 22.5207 24.1884 22.4048 24.1884Z" fill="#8C3494"/>
<path d="M21.9976 24.5898V24.8282L22.7796 25.1526V24.8987L21.9976 24.5898Z" fill="#8C3494"/>
<path d="M24.263 24.1403V23.9767H24.7679V23.7017H23.0171V23.9767H24.0198V24.1403H23.0171C23.0171 24.1403 23.0171 24.7481 23.0171 24.7947C23.0383 25.0076 23.1486 25.1515 23.3565 25.1515C23.6054 25.1515 24.2644 25.1515 24.2644 25.1515V24.4308H24.5076C24.5487 24.4308 24.5586 24.4111 24.5685 24.4717C24.5685 24.5465 24.5685 24.593 24.5685 24.593C24.5529 24.6537 24.5487 24.6946 24.5076 24.7143C24.4666 24.7143 24.4186 24.7143 24.4186 24.7143V24.9569H24.5996C24.6604 24.9498 24.7721 24.8821 24.782 24.7947C24.782 24.6593 24.782 24.1403 24.782 24.1403H24.263ZM24.0183 24.9569C24.0183 24.9569 23.4343 24.9569 23.4102 24.9569C23.3183 24.9428 23.2575 24.8356 23.2575 24.7143C23.2575 24.593 23.2575 24.3899 23.2575 24.3899H24.0141L24.0183 24.4308V24.9569V24.9569Z" fill="#8C3494"/>
<path d="M19.2368 23.7015V23.9766H20.2395V24.1402H19.2368C19.2368 24.1402 19.2368 24.748 19.2368 24.7946C19.258 25.0075 19.3683 25.1514 19.5762 25.1514C19.8251 25.1514 20.4827 25.1514 20.4827 25.1514V23.9766H20.7995L20.6835 24.2065V24.3687C20.6835 24.3687 20.8561 24.3687 20.8971 24.3687C21.0102 24.3813 21.0498 24.4561 21.0498 24.6521C21.0498 24.7875 21.0187 24.8848 20.914 24.8947C20.8476 24.8947 20.7146 24.8947 20.7146 24.8947V25.1373C20.7146 25.1373 20.8674 25.1373 20.9282 25.1373C20.989 25.1373 21.2676 25.1641 21.293 24.8947C21.3227 24.3475 21.3482 24.2065 20.9579 24.1656L21.0144 23.9752H21.4429V25.15H21.7173V23.6987H19.2368V23.7015ZM20.2395 24.9568C20.2395 24.9568 19.6554 24.9568 19.63 24.9568C19.538 24.9427 19.4772 24.8355 19.4772 24.7142C19.4772 24.5929 19.4772 24.3898 19.4772 24.3898H20.2381V24.9568H20.2395Z" fill="#8C3494"/>
</g>
<defs>
<clipPath id="clip0_2293_13766">
<rect width="39.8148" height="25" fill="white" transform="translate(0 0.453125)"/>
</clipPath>
</defs>
</svg>
