<svg width="85" height="26" viewBox="0 0 85 26" fill="none" xmlns="http://www.w3.org/2000/svg">
<path d="M26.618 20.3837C26.6138 20.3899 26.6117 20.393 26.6117 20.393C25.4209 21.9235 23.8738 23.2128 22.0782 24.1623C20.176 25.0767 17.9392 25.4081 15.8268 25.4485C16.8934 24.9908 17.641 23.9252 17.641 22.6846C17.641 21.1645 16.5185 19.9084 15.0615 19.7075C18.9841 19.5677 22.1362 16.7294 22.2895 13.1972C22.2936 13.1081 22.2957 13.018 22.2957 12.9269C22.2957 12.7385 22.2874 12.5521 22.2698 12.3688C22.2698 12.0519 22.2739 11.6936 22.2957 11.3923C22.3475 10.6591 23.3612 10.1455 23.3612 10.1455H27.4484C28.3493 10.2843 28.6258 11.2535 28.6258 11.2535C29.1312 16.369 26.7526 20.1725 26.618 20.3837Z" fill="#0054A6"/>
<path d="M7.55297 5.5046C8.02237 3.6536 6.90238 1.77255 5.05138 1.30314C3.20039 0.83374 1.31934 1.95374 0.849932 3.80473C0.380528 5.65572 1.50053 7.53678 3.35152 8.00618C5.20251 8.47559 7.08357 7.35559 7.55297 5.5046Z" fill="#FFD602"/>
<path d="M28.6035 5.46007C29.0486 3.60309 27.9041 1.73686 26.0471 1.29172C24.1901 0.846589 22.3239 1.99111 21.8787 3.84809C21.4336 5.70507 22.5781 7.5713 24.4351 8.01644C26.2921 8.46157 28.1583 7.31705 28.6035 5.46007Z" fill="#0054A6"/>
<path d="M17.6407 22.6842C17.6407 23.9248 16.8931 24.9904 15.8265 25.4481C14.9587 25.4657 14.1116 25.4336 13.3164 25.3725C10.4852 25.156 8.31789 24.5772 8.23505 24.5554C8.23505 24.5544 8.23298 24.5544 8.23298 24.5544C5.35112 23.2414 3.02327 21.0854 1.6512 18.4459H1.65016C1.63774 18.4231 1.62531 18.3993 1.61289 18.3754C0.576327 16.3437 0.755472 11.2697 0.755472 11.2697C0.777218 10.4402 1.78478 10.1265 1.78478 10.1265H5.86163C6.6507 10.2145 7.04524 11.1568 7.04524 11.1568L7.21817 12.4119C7.08459 13.029 7.21299 13.7756 7.40042 14.4166C7.40042 14.4177 7.40042 14.4187 7.40042 14.4197C7.52468 14.9189 7.71004 15.3973 7.95028 15.8477C7.95235 15.8529 7.95546 15.857 7.95753 15.8622C7.96064 15.8674 7.96271 15.8726 7.96478 15.8757C7.96478 15.8788 7.96685 15.8798 7.96685 15.8798C9.12353 18.0327 11.5052 19.5508 14.2991 19.7009C14.4503 19.7092 14.6025 19.7133 14.7557 19.7133C14.8583 19.7133 14.9597 19.7113 15.0602 19.7071C16.5172 19.908 17.6397 21.1641 17.6397 22.6842H17.6407Z" fill="#FFD602"/>
<path d="M61.7091 14.5415C59.5327 15.9294 57.4103 17.3393 55.2271 18.6496C54.2309 19.2473 53.1688 19.0024 52.3753 18.2139C51.8113 17.655 51.5952 17.0219 51.8721 16.2232C52.1102 15.5394 52.306 14.8319 52.4411 14.1194C52.6387 13.0776 52.3651 12.1186 51.7624 11.2524C51.634 11.0683 51.4956 10.8893 51.3858 10.6935C50.4589 9.03878 50.9553 7.48032 52.7518 6.91975C55.5209 6.05356 58.1853 6.40308 60.6437 8.00543C60.9493 8.20467 61.2347 8.4343 61.5318 8.64705C61.5454 8.65718 61.5825 8.63524 61.7108 8.59809C61.7108 8.13883 61.7159 7.64579 61.7108 7.15276C61.7024 6.53309 61.986 6.20215 62.6192 6.20215C65.0101 6.20215 67.401 6.20215 69.7935 6.20215C70.3879 6.20215 70.6496 6.49763 70.6496 7.09197C70.6428 11.3115 70.6411 15.531 70.6513 19.7521C70.6513 20.3921 70.3879 20.6757 69.7446 20.669C67.2152 20.647 67.4094 20.929 67.4128 18.4723C67.4162 15.7724 67.4179 13.0708 67.4128 10.3693C67.4111 9.41024 67.3672 9.417 66.1228 9.38154C65.3697 9.35959 65.0033 9.52168 65.0169 10.4014C65.0675 13.4389 65.0388 16.4782 65.0354 19.5157C65.0354 20.468 64.8463 20.6588 63.9177 20.6639C61.6213 20.6757 61.6939 20.8581 61.7142 18.4858C61.726 17.1181 61.7159 15.7488 61.7159 14.5415H61.7091ZM55.0751 14.9771C55.3233 14.9653 55.477 15.0008 55.5851 14.9467C57.2634 14.1228 58.7138 12.9949 59.9565 11.6019C60.3499 11.1612 60.0291 10.8758 59.6712 10.6732C58.3288 9.91341 56.8666 9.55883 55.3335 9.58416C54.5281 9.59766 54.3913 9.9286 54.8843 10.5652C55.5935 11.4837 55.7471 12.4799 55.4415 13.5757C55.3233 14.0029 55.217 14.4351 55.0751 14.9771Z" fill="white"/>
<path d="M41.6581 9.36517C40.3495 9.36517 39.0578 9.33984 37.7678 9.3753C37.0283 9.39556 36.6973 9.14905 36.694 8.36222C36.6872 6.20098 36.6636 6.20098 38.8468 6.20098C40.5622 6.20098 42.2794 6.1976 43.9949 6.20267C44.5335 6.20436 45.1177 6.15708 45.111 5.48844C45.1025 4.80461 44.5555 4.54796 43.9189 4.602C42.6897 4.70668 41.4639 4.92787 40.2364 4.93969C39.5036 4.94644 38.7235 4.75733 38.0464 4.46354C36.9151 3.97557 36.6788 2.19086 37.604 1.38039C37.7999 1.20986 38.3216 1.1305 38.5006 1.26558C40.1469 2.51167 41.9181 2.01188 43.6893 1.7451C44.2667 1.6573 44.878 1.58807 45.447 1.68094C47.4698 2.0085 48.4542 3.67334 47.8801 5.69106C47.8429 5.82445 47.8142 5.96122 47.7568 6.20098C48.2718 6.20098 48.7412 6.20267 49.2089 6.20098C49.8505 6.1976 50.1983 6.45256 50.1899 7.15665C50.1629 9.58805 50.428 9.36855 48.054 9.36517C47.2098 9.36517 46.3655 9.38375 45.5213 9.35842C45.0434 9.34491 44.8206 9.46141 44.7969 10.0034C44.7024 12.1258 45.008 12.401 47.0781 11.9333C47.6521 11.8033 48.2211 11.6395 48.802 11.5416C49.5044 11.4217 50.1207 11.8 50.146 12.4753C50.195 13.7636 50.3081 15.0925 50.0683 16.3419C49.6293 18.6298 47.9071 19.8168 45.8168 20.4618C44.1418 20.9785 42.4196 20.889 40.7446 20.4078C38.2997 19.7054 36.7041 17.4918 36.5707 14.5758C36.52 13.4884 36.6382 12.3909 36.7429 11.3018C36.8003 10.6957 37.1752 10.3462 37.8421 10.4188C38.0363 10.439 38.2355 10.4205 38.4331 10.4222C39.5644 10.4255 39.6606 10.5691 39.7163 11.6699C39.7754 12.8434 39.8717 14.022 40.0675 15.1769C40.2921 16.5007 41.1667 17.274 42.5023 17.3314C43.4647 17.3736 44.4491 17.2824 45.3997 17.1153C45.8303 17.0393 46.298 16.71 46.5783 16.3588C46.8636 16.0026 46.9413 15.4774 47.1101 15.0266C46.7083 15.0131 46.303 14.9591 45.9046 14.9929C45.2072 15.0519 44.5133 15.2444 43.8193 15.2411C42.3436 15.2343 41.805 14.6484 41.7864 13.1676C41.7729 11.9857 41.7729 10.8054 41.7627 9.62351C41.7627 9.57285 41.7239 9.52389 41.6597 9.3618L41.6581 9.36517Z" fill="white"/>
<path d="M84.7981 12.8751C84.7981 14.6767 84.8099 16.4766 84.7948 18.2782C84.7812 20.0174 83.52 21.0558 81.8805 20.5442C79.3866 19.7658 76.8572 19.7067 74.2908 19.8468C72.4672 19.9465 71.8509 19.3386 71.829 17.5015C71.829 17.4458 71.829 17.3884 71.829 17.3327C71.8205 14.8354 71.829 14.8574 74.1641 13.9406C74.6133 13.765 75.2954 13.326 75.2887 13.0187C75.2752 12.2875 74.5052 12.2994 73.9244 12.2234C72.3186 12.014 71.8712 11.5396 71.8374 9.93889C71.8172 9.01023 71.8459 8.08157 71.8391 7.15291C71.834 6.47583 72.1717 6.19554 72.8302 6.19554C76.4875 6.2023 80.1464 6.20567 83.8036 6.19385C84.5263 6.19217 84.81 6.51129 84.8032 7.21876C84.7846 9.10309 84.7964 10.9891 84.7964 12.8751H84.7981ZM78.3752 9.3648C77.6998 9.3648 77.0244 9.34285 76.3524 9.37662C76.138 9.38675 75.9303 9.54378 75.7192 9.63327C75.8408 9.84264 75.91 10.1432 76.0924 10.2462C76.5027 10.4775 76.967 10.6092 77.4077 10.7848C79.2144 11.499 79.5115 13.4593 77.9683 14.6497C77.5073 15.0043 76.9299 15.2052 76.4486 15.5395C76.1987 15.7118 76.0417 16.0191 75.8425 16.2656C76.1194 16.3956 76.3862 16.6134 76.6732 16.6421C78.0662 16.7823 79.4659 16.8566 80.8606 16.9866C81.4296 17.0389 81.6424 16.7958 81.6154 16.2673C81.585 15.7067 81.5309 15.1478 81.5141 14.5872C81.4752 13.2398 81.455 11.8908 81.4178 10.5434C81.3975 9.78355 81.0717 9.32597 80.2308 9.36143C79.6128 9.38844 78.9949 9.36649 78.3752 9.36649V9.3648Z" fill="white"/>
<path d="M77.9776 25.392C76.7585 25.3988 75.7775 24.4296 75.7725 23.2122C75.7674 21.9729 76.7062 21.0307 77.954 21.024C79.1899 21.0172 80.1608 21.9678 80.1709 23.1903C80.1811 24.3908 79.1883 25.3853 77.9759 25.392H77.9776Z" fill="white"/>
</svg>
