<svg width="58" height="26" viewBox="0 0 58 26" fill="none" xmlns="http://www.w3.org/2000/svg">
<path d="M36.9308 10.1562H26.9308C26.7328 10.1562 26.6338 10.3048 26.6338 10.4533V11.2454C26.6338 11.4434 26.7823 11.5424 26.9308 11.5424H34.4061V15.7008C34.208 15.4038 33.9605 15.1067 33.713 14.8097C32.8219 13.9186 31.8813 13.4731 30.8912 13.4731C30.0991 13.4731 29.4556 13.8691 28.911 14.5622C28.4655 15.1563 28.2179 15.8493 28.2179 16.4929C28.2179 17.1364 28.317 17.978 28.812 18.7701C29.4061 19.7107 30.3962 20.0077 31.2873 20.0077C32.4259 20.0077 33.3665 19.2157 33.3665 18.1761C33.3665 17.582 33.0694 17.0869 32.5249 16.7404L31.9803 16.4434V17.0869C31.9803 17.1364 31.9803 17.186 31.9803 17.2355C31.9803 17.285 31.9803 17.3345 31.9803 17.3345C31.9308 17.582 31.5348 17.9285 31.0892 17.9285C30.6932 17.9285 30.3467 17.78 30.0991 17.5325C29.9506 17.384 29.8516 17.0869 29.9011 16.8889C29.9011 16.5919 30.0001 16.3444 30.1981 16.0968C30.4457 15.7998 30.6932 15.6513 31.0892 15.6513C32.0793 15.6513 32.9209 16.0968 33.614 17.0869C34.1585 17.9285 34.4556 18.7206 34.4556 19.6117V21.6909L35.9407 22.582C35.9902 22.6315 36.0397 22.6315 36.0892 22.6315C36.2873 22.6315 36.3863 22.483 36.3863 22.3345V11.5919H36.9803C37.1783 11.5919 37.2774 11.4434 37.2774 11.2949V10.5028C37.2774 10.3048 37.1288 10.1562 36.9308 10.1562Z" fill="#ED1C24"/>
<path d="M56.9307 10.1562H48.0198H46.8317H44.2574C44.0594 10.1562 43.9604 10.3047 43.9604 10.4532V11.8394C42.7228 10.5523 41.6337 9.90869 40.6436 9.90869C39.703 9.90869 38.9109 10.1067 38.2178 10.6513C37.5743 11.1463 37.1782 11.7899 37.1782 12.5325C37.1782 14.7602 39.6535 14.7107 40.297 14.4136C40.396 14.3641 40.5446 14.2651 40.6931 14.2651C41.1881 14.2651 41.3861 14.6612 41.3861 15.0077C41.3861 15.5028 40.6436 15.9483 39.7525 15.9483C39.2574 15.9483 38.9604 15.7998 38.7624 15.5028L38.3663 14.9087L38.1188 15.6018C38.0693 15.7503 37.9703 15.9483 37.9703 16.1958C37.9703 16.6909 38.2178 17.1859 38.7129 17.6315C39.1584 18.0275 39.703 18.2255 40.297 18.2255C41.2376 18.2255 42.0297 17.879 42.5248 17.1859C42.9703 16.6414 43.1683 15.9978 43.1683 15.2552C43.1683 14.8592 43.0198 14.4136 42.6733 13.9186C42.2772 13.3245 41.7822 13.0275 41.2376 13.0275C41.0396 13.0275 40.7921 13.077 40.5446 13.176C40.4456 13.2255 40.2475 13.275 40.198 13.275C40.099 13.275 39.9505 13.2255 39.8515 13.077C39.7525 12.978 39.6535 12.8295 39.6535 12.582C39.6535 12.0374 40.1485 11.4928 41.0396 11.4928H41.0891C41.6832 11.4928 42.2772 11.7899 42.8218 12.3344C43.2673 12.78 43.6139 13.2255 43.9109 13.7206V21.5919L45.396 22.4829C45.4455 22.5325 45.4951 22.5325 45.5446 22.5325C45.7426 22.5325 45.8416 22.3839 45.8416 22.2354V11.5919H46.7822H47.9703H48.1188V18.473L49.901 19.2156C49.9505 19.2156 50 19.2156 50 19.2156C50.1485 19.2156 50.297 19.1166 50.297 18.9186V18.8691C50.5941 16.8394 51.4852 15.4532 52.9703 14.6117C52.9703 14.7107 52.9703 14.8592 52.9703 15.0077C52.9703 15.3047 52.9703 16.0473 53.0198 16.4433C53.0198 16.6909 53.0198 16.8394 53.0693 16.9879C53.0693 17.78 53.1683 18.9681 53.4158 19.8592C53.9109 21.5424 54.7525 21.9384 55.3465 21.9384H55.396C55.7426 21.9384 56.0396 21.8394 56.2376 21.6414C56.3366 21.5424 56.4852 21.3443 56.4852 20.9978C56.4852 20.7008 56.4357 20.4532 56.3366 20.2552L56.1881 20.0077L55.8911 20.0572C55.5941 20.1562 55.4456 20.1562 55.4456 20.1067H55.396C55.297 20.1067 55.297 20.1067 55.2475 20.0572C55.1485 20.0077 54.9505 19.8592 54.802 19.3146C54.703 18.9186 54.6535 18.374 54.6535 18.077C54.6535 15.8493 55.099 14.1661 55.8416 13.8196H55.8911C55.9901 13.7701 56.0891 13.6711 56.0891 13.5226C56.0891 13.473 56.0891 13.4235 56.0396 13.374V13.3245C55.6931 12.6315 54.9505 12.1364 53.9604 11.8889H53.8614H53.7624C52.9703 12.0374 52.0297 12.582 50.8416 13.5721C50.5446 13.8196 50.2475 14.0671 50 14.3146V11.5919H56.9307C57.1287 11.5919 57.2277 11.4433 57.2277 11.2948V10.5028C57.2772 10.3047 57.1287 10.1562 56.9307 10.1562Z" fill="#ED1C24"/>
<path d="M23.3663 13.8196C23.3663 14.1661 23.3663 14.4631 23.3168 14.7602C23.2178 16.1463 22.8713 17.4334 22.3267 18.6215C22.1287 19.1166 21.8812 19.5621 21.5842 20.0077C19.505 23.275 15.8416 25.4532 11.6832 25.4532C9.90099 25.4532 8.21782 25.0572 6.73267 24.3641C2.77228 22.5324 0 18.473 0 13.8196C0 9.21561 2.67327 5.25521 6.48515 3.37402C6.18812 3.77006 5.89109 4.1661 5.64356 4.61165C5.64356 4.66115 5.59406 4.66115 5.59406 4.71066C5.44554 4.85917 5.29703 4.95818 5.14851 5.1067C4.9505 5.25521 4.80198 5.45323 4.60396 5.60175C4.55446 5.65125 4.50495 5.70076 4.50495 5.70076C4.45545 5.75026 4.40594 5.79977 4.40594 5.79977C4.35644 5.84927 4.30693 5.94828 4.20792 5.99779C4.10891 6.1463 3.9604 6.29482 3.86139 6.44333C3.36634 7.08689 2.9703 7.77996 2.67327 8.52254C2.62376 8.57204 2.62376 8.67105 2.57426 8.72056C2.52475 8.81957 2.52475 8.91858 2.47525 8.96808C2.47525 9.01759 2.42574 9.06709 2.42574 9.1166C2.37624 9.26511 2.32673 9.36412 2.27723 9.51264C2.22772 9.61165 2.22772 9.71066 2.17822 9.76016C2.17822 9.80967 2.12871 9.85917 2.12871 9.90868C2.12871 10.0077 2.07921 10.1067 2.07921 10.2057C2.0297 10.5027 1.9802 10.7998 1.93069 11.0968C1.93069 11.1958 1.93069 11.2453 1.88119 11.3443C1.88119 11.3938 1.88119 11.4433 1.88119 11.5423C1.88119 11.6414 1.88119 11.7404 1.88119 11.7899C1.88119 11.8889 1.88119 11.9879 1.88119 12.0869C1.88119 12.2354 1.88119 12.3839 1.88119 12.5324C1.88119 15.7008 3.31683 18.572 5.64356 20.4037C7.42574 21.8394 9.65347 22.7305 12.0792 22.7305C14.3069 22.7305 16.3366 22.0374 18.0198 20.7998C19.2574 19.9087 20.2475 18.7701 20.9901 17.4334C21.0891 17.2354 21.1881 17.0869 21.2871 16.8889C21.8812 15.6513 22.2277 14.3146 22.2277 12.879C22.2277 12.78 22.2277 12.681 22.2277 12.5324C22.2277 12.1859 22.2277 11.8889 22.1782 11.5423L22.2277 11.5918C22.3762 11.7404 22.5248 11.8394 22.6733 11.9879C22.8218 11.7404 22.9703 11.5423 23.1188 11.2948C23.2178 11.7404 23.2673 12.1859 23.3168 12.681C23.3663 13.1265 23.3663 13.473 23.3663 13.8196Z" fill="#EE1C24"/>
<path d="M13.0696 4.46303L10.8914 0.453125C7.27749 2.08679 4.80225 5.70065 4.80225 9.90857C4.80225 12.0373 5.44581 14.0175 6.53492 15.6511C6.43591 15.1066 6.43591 14.562 6.43591 13.968C6.48541 9.66105 9.20819 5.99768 13.0696 4.46303Z" fill="#F7941D"/>
<path d="M14.802 6.44337C15.6931 6.19584 16.6832 6.09683 17.6238 6.09683C18.2178 6.09683 18.8614 6.14634 19.4059 6.24535L19.3564 4.46317L19.2574 0.898815C18.8614 0.84931 18.4158 0.799805 17.9703 0.799805C15.9901 0.799805 14.1584 1.44337 12.6733 2.48297L13.8614 4.66119C11.7327 5.40377 10 6.88891 8.91089 8.81961C8.36633 9.7602 7.97029 10.8493 7.82178 11.9879C8.11881 11.3939 8.46534 10.8493 8.86138 10.3543C10.297 8.47307 12.3762 7.03743 14.802 6.44337Z" fill="#EE1C24"/>
<path d="M20.0001 4.41357L20.0991 6.93833C19.2576 6.6908 18.416 6.54229 17.4754 6.54229C15.7427 6.54229 14.109 7.03734 12.6734 7.87892C10.8912 8.96803 9.50508 10.7007 8.81201 12.7304C9.50508 11.7898 10.3467 10.9482 11.3368 10.3047C12.7724 9.36407 14.5051 8.81951 16.3368 8.81951C17.7229 8.81951 19.01 9.11654 20.1982 9.6611C21.0892 10.0571 21.8813 10.6017 22.5744 11.2948L23.9605 9.21555L25.7427 6.49278C24.1585 5.20565 22.1784 4.41357 20.0001 4.41357Z" fill="#F7941D"/>
<path d="M22.2279 12.6314C22.2279 12.7304 22.2279 12.8294 22.2279 12.9779C22.2279 15.0571 21.3863 16.7898 21.2873 16.9878C21.1883 17.1858 21.0893 17.3343 20.9903 17.5323C20.2477 18.869 19.2576 20.0076 18.02 20.8987C16.3368 22.0868 14.3071 22.8294 12.0794 22.8294C9.65362 22.8294 7.3764 21.9878 5.64372 20.5026C3.3665 18.6215 1.88135 15.7997 1.88135 12.6314C1.88135 12.4828 1.88135 12.3343 1.88135 12.1858C1.88135 12.0868 1.88135 11.9878 1.88135 11.8888C1.88135 11.7898 1.88135 11.6908 1.88135 11.6413C1.88135 11.5917 1.88135 11.5422 1.88135 11.4432C1.88135 11.3442 1.88135 11.2947 1.93085 11.1957C1.98036 10.8987 2.02986 10.6017 2.07937 10.3046C2.07937 10.2056 2.12887 10.1066 2.12887 10.0076C2.12887 9.95809 2.17838 9.90858 2.17838 9.85908C2.22788 9.76007 2.22788 9.66106 2.27739 9.61155C2.32689 9.46304 2.3764 9.31452 2.4259 9.21551C2.4259 9.16601 2.47541 9.1165 2.47541 9.067C2.52491 8.96799 2.52491 8.86898 2.57442 8.81947C2.62392 8.76997 2.62392 8.67096 2.67343 8.62145C2.97046 7.87888 3.416 7.18581 3.86155 6.54224C3.96056 6.39373 4.10907 6.24521 4.20808 6.0967C4.25759 6.04719 4.30709 5.94818 4.4061 5.89868C4.4556 5.84917 4.45561 5.79967 4.50511 5.79967C4.55462 5.75016 4.55462 5.70066 4.60412 5.70066C4.75263 5.50264 4.95065 5.35412 5.14867 5.20561C5.29719 5.0571 5.4457 4.95809 5.59422 4.80957C5.59422 4.85908 5.54471 4.85908 5.54471 4.90858C5.54471 4.95809 5.49521 5.00759 5.49521 5.00759C4.90115 6.19571 4.50511 7.63135 4.3566 9.1165C4.30709 9.51254 4.30709 9.90858 4.30709 10.3541C4.30709 15.7007 7.4259 20.0076 11.2873 20.0076H11.3368C11.4358 20.0076 11.5843 20.0076 11.6833 20.0076C12.2279 20.0076 12.7724 19.9086 13.317 19.8096C15.9408 19.1165 17.8714 16.6908 17.8714 13.869C17.8714 13.8195 17.8714 13.77 17.8714 13.7205C17.8219 12.0373 17.1289 10.5026 15.9903 9.46304C16.7823 9.46304 17.5744 9.61155 18.317 9.80957C19.7526 10.1561 21.0398 10.8492 22.1784 11.7403L22.2279 11.7898C22.1784 11.9878 22.2279 12.3343 22.2279 12.6314Z" fill="#F7941D"/>
</svg>
