<svg width="55" height="25" viewBox="0 0 55 25" fill="none" xmlns="http://www.w3.org/2000/svg">
<path d="M49.3585 13.9497L37.4995 12.1797L39.0716 18.9105L49.3585 13.9497Z" fill="#D12053"/>
<path d="M49.3585 13.7821L40.4206 1.60254L37.4995 11.9613L49.3585 13.7821Z" fill="#E2136E"/>
<path d="M37.261 11.859L28.2051 0L40.0641 1.45163L37.261 11.859Z" fill="#D12053"/>
<path d="M33.013 7.05136L27.8848 2.24365H29.2346L33.013 7.05136Z" fill="#9E1638"/>
<path d="M51.9226 8.0127L49.7213 13.7819L46.1533 9.01351L51.9226 8.0127Z" fill="#D12053"/>
<path d="M40.3848 18.5897L48.9978 15.1848L49.3591 14.1025L40.3848 18.5897Z" fill="#E2136E"/>
<path d="M33.6543 25.0002L37.2693 12.1797L39.103 20.5212L33.6543 25.0002Z" fill="#9E1638"/>
<path d="M52.1711 8.0127L51.2822 10.2563L54.4874 10.2074L52.1711 8.0127Z" fill="#E2136E"/>
<path d="M0 8.97461C0.155116 8.98779 0.312417 9.01634 0.478457 9.01634C0.644497 9.01634 0.779951 8.98779 0.956914 8.97461V14.13C1.46159 13.2667 2.09735 12.6978 3.03241 12.6978C4.7234 12.6978 5.44873 14.3804 5.44873 15.9268C5.44873 17.7785 4.4656 19.5511 2.74184 19.5511C2.39672 19.5587 2.05611 19.4713 1.75689 19.2982C1.45767 19.1251 1.21124 18.873 1.0443 18.5692C0.755919 18.824 0.500305 19.1294 0.227213 19.4061H0.00873895L0 8.97461ZM0.935067 16.5572C0.935067 18.0596 1.56864 19.1074 2.61076 19.1074C3.96311 19.1074 4.39787 17.2798 4.39787 15.9839C4.39787 14.4792 3.90412 13.2953 2.73311 13.2821C1.36546 13.2711 0.935067 14.8988 0.935067 16.5594" fill="#E2136E"/>
<path d="M9.9277 12.345L8.89876 13.6755C9.86588 15.0946 10.8683 16.4849 11.8399 17.9218L12.8202 19.474V19.5516C12.5796 19.536 12.361 19.505 12.1578 19.505C11.9547 19.505 11.6985 19.536 11.4822 19.5516C11.215 19.0549 10.95 18.5959 10.6475 18.1457L7.99788 14.2099C7.93826 14.1478 7.79474 14.099 7.79474 14.1633V19.5516C7.60043 19.536 7.43042 19.505 7.26261 19.505C7.09479 19.505 6.90049 19.536 6.73047 19.5516V8.97904C6.90049 8.99235 7.08375 9.02561 7.26261 9.02561C7.44146 9.02561 7.60043 8.99235 7.79474 8.97904V13.7509C7.79474 13.844 7.9758 13.7819 8.09503 13.6577C8.32502 13.4183 8.54033 13.165 8.73978 12.8994L11.7184 8.97461C11.8752 8.98791 12.032 9.02117 12.202 9.02117C12.372 9.02117 12.5023 8.98791 12.6745 8.97461L9.9277 12.345Z" fill="white"/>
<path d="M17.9107 18.2947C17.9107 18.8301 17.8754 19.1021 18.5896 18.9251V19.2251C18.473 19.2822 18.3507 19.3278 18.2248 19.3611C17.5945 19.4842 17.0726 19.3741 16.9753 18.5689L16.867 18.6876C16.6563 18.9571 16.3845 19.1753 16.073 19.3251C15.7614 19.4749 15.4186 19.5523 15.0713 19.5511C14.2133 19.5511 13.4614 18.8905 13.4614 17.8781C13.4614 16.3174 14.5671 16.1123 15.7016 15.9072C16.6613 15.7302 16.9886 15.6482 16.9886 14.9898C16.9886 13.9752 16.48 13.388 15.5711 13.388C15.2607 13.3821 14.9559 13.4694 14.698 13.6381C14.4402 13.8069 14.2416 14.0489 14.1293 14.3314H13.9966V13.5715C14.5423 13.1081 15.2351 12.8427 15.9581 12.8203C17.2296 12.8203 17.9218 13.5715 17.9218 15.1193L17.9107 18.2947ZM16.9422 16.0346L16.5154 16.1296C15.6905 16.3066 14.4543 16.4426 14.4543 17.6925C14.4543 18.5559 14.8966 18.9877 15.6396 18.9877C16.024 18.9415 16.3755 18.7529 16.6215 18.461C16.71 18.3617 16.9532 18.1285 16.9532 18.0292L16.9422 16.0346Z" fill="white"/>
<path d="M20.2025 18.1131C20.4731 18.6507 20.9767 19.1322 21.5137 19.1322C21.8201 19.116 22.1084 18.9766 22.3174 18.7437C22.5264 18.5107 22.6398 18.2024 22.6334 17.8842C22.6334 16.036 19.9382 17.2365 19.9382 14.8441C19.9382 13.5313 20.7707 12.8209 21.7967 12.8209C22.2504 12.8105 22.6978 12.9332 23.0871 13.175C22.9747 13.4918 22.8843 13.8165 22.8166 14.1467H22.7125C22.5626 13.6954 22.1651 13.242 21.7426 13.242C21.1724 13.242 20.702 13.6414 20.702 14.382C20.702 16.1331 23.3972 15.2003 23.3972 17.3919C23.3972 18.858 22.3025 19.5511 21.2952 19.5511C20.7907 19.5507 20.2968 19.4009 19.8716 19.1193C19.9737 18.7908 20.0537 18.4553 20.1109 18.1152L20.2025 18.1131Z" fill="white"/>
<path d="M25.0005 8.97461C25.1702 8.98792 25.3352 9.01676 25.5119 9.01676C25.6886 9.01676 25.8327 8.98792 26.0233 8.97461V14.0967C26.4697 13.2382 27.1694 12.7347 28.076 12.7347C29.5545 12.7347 30.1287 13.7019 30.1287 15.4765V19.5516C29.9358 19.536 29.787 19.5094 29.6173 19.5094C29.4476 19.5094 29.2732 19.5383 29.1059 19.5516V15.7982C29.1059 14.2453 28.7781 13.4623 27.6925 13.4623C26.5441 13.4623 26.0233 14.252 26.0233 15.7139V19.5516C25.8327 19.536 25.6816 19.5094 25.5119 19.5094C25.3422 19.5094 25.1725 19.5383 25.0005 19.5516V8.97461Z" fill="white"/>
</svg>
