<svg width="16" height="16" viewBox="0 0 16 16" fill="none" xmlns="http://www.w3.org/2000/svg">
<path d="M8.19026 9.14283C8.22456 9.42855 8.00158 9.68065 7.69283 9.68065H6.252L5.49728 8.65544C5.2743 8.36972 4.93124 8.18485 4.55388 8.18485C4.19368 8.18485 3.85062 8.35291 3.62764 8.65544L2.87292 9.68065H1.5007C1.20911 9.68065 0.968967 9.42855 1.00327 9.14283L1.1748 7.51258C1.29487 6.5546 1.96382 5.78149 2.83861 5.47896L2.85577 5.46216C3.33604 5.8151 3.93639 6.03359 4.58819 6.03359C5.23999 6.03359 5.84034 5.83191 6.32061 5.47896H6.35492C7.22971 5.79829 7.89866 6.5714 8.01873 7.52939L8.19026 9.14283Z" fill="url(#paint0_linear_1227_3986)"/>
<path d="M2.46094 3.15968C2.46094 4.31934 3.42149 5.26052 4.60503 5.26052C5.78856 5.26052 6.74912 4.31934 6.74912 3.15968C6.74912 2.00001 5.78856 1.05884 4.60503 1.05884C3.42149 1.05884 2.46094 2.00001 2.46094 3.15968Z" fill="url(#paint1_linear_1227_3986)"/>
<path d="M13.1635 11.7646H13.1464C12.6661 12.1176 12.0657 12.3193 11.4139 12.3193C10.7621 12.3193 10.1618 12.1176 9.68151 11.7646L9.64721 11.7815C8.77242 12.1008 8.10346 12.8739 7.98339 13.8319L7.81187 15.4621C7.77756 15.7478 8.0177 15.9999 8.30929 15.9999H14.5014C14.793 15.9999 15.016 15.7478 14.9989 15.4621L14.8273 13.8487C14.7073 12.8571 14.0555 12.084 13.1635 11.7646Z" fill="url(#paint2_linear_1227_3986)"/>
<path d="M9.25391 9.44532C9.25391 10.605 10.2145 11.5462 11.398 11.5462C12.5815 11.5462 13.5421 10.605 13.5421 9.44532C13.5421 8.28566 12.5815 7.34448 11.398 7.34448C10.2145 7.34448 9.25391 8.28566 9.25391 9.44532Z" fill="url(#paint3_linear_1227_3986)"/>
<path d="M6.26891 11.9665H5.56565C5.6171 13.0421 6.01162 14.0337 6.66342 14.8236C6.74918 14.9245 6.66342 15.0757 6.5262 15.0589C4.91384 14.8573 3.6617 13.5631 3.57593 11.9665H2.85552C2.56392 11.9665 2.3924 11.6472 2.56392 11.4119L4.26204 9.10936C4.39926 8.92448 4.69086 8.92448 4.82808 9.10936L6.5262 11.4119C6.71488 11.6472 6.54335 11.9665 6.26891 11.9665Z" fill="url(#paint4_linear_1227_3986)"/>
<path d="M11.398 0C9.61417 0 8.17334 1.41176 8.17334 3.15966C8.17334 4.90756 9.61417 6.31933 11.398 6.31933C13.1819 6.31933 14.6228 4.90756 14.6228 3.15966C14.6228 1.41176 13.1819 0 11.398 0ZM12.9246 2.70588L11.2265 4.36975C11.1408 4.45378 11.0378 4.48739 10.9349 4.48739C10.832 4.48739 10.7462 4.45378 10.6776 4.36975L9.83715 3.54622C9.68278 3.39496 9.68278 3.14286 9.83715 2.9916C9.99153 2.84034 10.2488 2.84034 10.4032 2.9916L10.9692 3.54622L12.3758 2.16807C12.5301 2.01681 12.7874 2.01681 12.9418 2.16807C13.0962 2.30252 13.0962 2.55462 12.9246 2.70588Z" fill="url(#paint5_linear_1227_3986)"/>
<defs>
<linearGradient id="paint0_linear_1227_3986" x1="4.59687" y1="5.46216" x2="4.59687" y2="9.68065" gradientUnits="userSpaceOnUse">
<stop/>
<stop offset="1" stop-color="#666666"/>
</linearGradient>
<linearGradient id="paint1_linear_1227_3986" x1="4.60503" y1="1.05884" x2="4.60503" y2="5.26052" gradientUnits="userSpaceOnUse">
<stop/>
<stop offset="1" stop-color="#666666"/>
</linearGradient>
<linearGradient id="paint2_linear_1227_3986" x1="11.4042" y1="11.7646" x2="11.4042" y2="15.9999" gradientUnits="userSpaceOnUse">
<stop/>
<stop offset="1" stop-color="#666666"/>
</linearGradient>
<linearGradient id="paint3_linear_1227_3986" x1="11.398" y1="7.34448" x2="11.398" y2="11.5462" gradientUnits="userSpaceOnUse">
<stop/>
<stop offset="1" stop-color="#666666"/>
</linearGradient>
<linearGradient id="paint4_linear_1227_3986" x1="4.59668" y1="8.9707" x2="4.59668" y2="15.0602" gradientUnits="userSpaceOnUse">
<stop/>
<stop offset="1" stop-color="#666666"/>
</linearGradient>
<linearGradient id="paint5_linear_1227_3986" x1="11.398" y1="0" x2="11.398" y2="6.31933" gradientUnits="userSpaceOnUse">
<stop/>
<stop offset="1" stop-color="#666666"/>
</linearGradient>
</defs>
</svg>
