<svg width="16" height="16" viewBox="0 0 16 16" fill="none" xmlns="http://www.w3.org/2000/svg">
<path d="M6.61887 2C5.50727 2 4.54726 2.5503 4.0083 3.38463H9.24628C8.70732 2.5503 7.73047 2 6.61887 2Z" fill="url(#paint0_linear_1227_3986)"/>
<path d="M11.9747 5.30181C11.9747 4.66275 11.4863 4.14795 10.8799 4.14795H2.37454C1.76821 4.14795 1.27979 4.66275 1.27979 5.30181V5.90536H11.9747V5.30181Z" fill="url(#paint1_linear_1227_3986)"/>
<path d="M1.27979 12.8462C1.27979 13.4853 1.76821 14.0001 2.37454 14.0001H10.8799C11.4863 14.0001 11.9747 13.4853 11.9747 12.8462V12.2427H1.27979V12.8462Z" fill="url(#paint2_linear_1227_3986)"/>
<path d="M15.9998 4.43256C15.9998 3.81125 15.5282 3.31421 14.9387 3.31421C14.3492 3.31421 13.8776 3.81125 13.8776 4.43256C13.8776 4.92961 14.1808 5.3379 14.6019 5.49766V8.17816C14.6019 8.47994 14.3661 8.72846 14.0798 8.72846H13.6587V9.45628H14.0798C14.7366 9.45628 15.2756 8.88823 15.2756 8.19591V5.49766C15.6966 5.3379 15.9998 4.92961 15.9998 4.43256Z" fill="url(#paint3_linear_1227_3986)"/>
<path d="M12.8845 6.65063H9.31396V11.4791H12.8845C13.0867 11.4791 13.2551 11.3016 13.2551 11.0885V7.04117C13.2551 6.82815 13.0867 6.65063 12.8845 6.65063ZM12.4466 8.83409L12.0087 9.33113C11.9919 9.34888 11.9751 9.38439 11.9751 9.41989L12.0593 10.0945C12.0593 10.1832 11.9919 10.2365 11.9077 10.201L11.3182 9.91694C11.2845 9.89919 11.2508 9.89919 11.234 9.91694L10.6445 10.201C10.5771 10.2365 10.4929 10.1832 10.4929 10.0945L10.5771 9.41989C10.5771 9.38439 10.5771 9.36664 10.5435 9.33113L10.1056 8.83409C10.055 8.78083 10.0887 8.67432 10.1561 8.65657L10.7793 8.53231C10.8129 8.53231 10.8298 8.51456 10.8466 8.47905L11.1666 7.89325C11.2003 7.82224 11.3014 7.82224 11.3351 7.89325L11.6551 8.47905C11.6719 8.51456 11.7056 8.53231 11.7224 8.53231L12.3456 8.65657C12.4635 8.67432 12.4972 8.76308 12.4466 8.83409Z" fill="url(#paint4_linear_1227_3986)"/>
<path d="M8.58955 11.4791V6.65063H4.64844V11.4791H8.58955ZM5.52424 8.65657L6.14741 8.53231C6.18109 8.53231 6.19794 8.51456 6.21478 8.47905L6.53478 7.89325C6.56847 7.82224 6.66952 7.82224 6.70321 7.89325L7.02321 8.47905C7.04005 8.51456 7.07374 8.53231 7.09058 8.53231L7.71375 8.65657C7.79796 8.67432 7.83165 8.78083 7.76428 8.83409L7.32637 9.33113C7.32637 9.34888 7.32637 9.38439 7.32637 9.41989L7.41059 10.0945C7.41059 10.1832 7.34322 10.2365 7.25901 10.201L6.66952 9.91694C6.63584 9.89919 6.60215 9.89919 6.58531 9.91694L5.99583 10.201C5.92846 10.2365 5.84425 10.1832 5.84425 10.0945L5.92846 9.41989C5.92846 9.38439 5.92846 9.36664 5.89477 9.33113L5.45687 8.83409C5.40634 8.76308 5.44003 8.67432 5.52424 8.65657Z" fill="url(#paint5_linear_1227_3986)"/>
<path d="M3.94112 6.65063H0.370532C0.168424 6.65063 0 6.82815 0 7.04117V11.0885C0 11.3016 0.168424 11.4791 0.370532 11.4791H3.94112V6.65063ZM3.13268 8.83409L2.69478 9.33113C2.67794 9.34888 2.67794 9.38439 2.67794 9.41989L2.76215 10.0945C2.76215 10.1832 2.69478 10.2365 2.61057 10.201L2.02108 9.91694C1.9874 9.89919 1.95372 9.89919 1.93687 9.91694L1.34739 10.201C1.28002 10.2365 1.19581 10.1832 1.19581 10.0945L1.28002 9.41989C1.28002 9.38439 1.28002 9.36664 1.24634 9.33113L0.808434 8.83409C0.757907 8.78083 0.791592 8.67432 0.858961 8.65657L1.48213 8.53231C1.51581 8.53231 1.53266 8.51456 1.5495 8.47905L1.8695 7.89325C1.90319 7.82224 2.00424 7.82224 2.03793 7.89325L2.35793 8.47905C2.37477 8.51456 2.40846 8.53231 2.4253 8.53231L3.04847 8.65657C3.14952 8.67432 3.18321 8.76308 3.13268 8.83409Z" fill="url(#paint6_linear_1227_3986)"/>
<defs>
<linearGradient id="paint0_linear_1227_3986" x1="6.62729" y1="2" x2="6.62729" y2="3.38463" gradientUnits="userSpaceOnUse">
<stop/>
<stop offset="1" stop-color="#666666"/>
</linearGradient>
<linearGradient id="paint1_linear_1227_3986" x1="6.62724" y1="4.14795" x2="6.62724" y2="5.90536" gradientUnits="userSpaceOnUse">
<stop/>
<stop offset="1" stop-color="#666666"/>
</linearGradient>
<linearGradient id="paint2_linear_1227_3986" x1="6.62724" y1="12.2427" x2="6.62724" y2="14.0001" gradientUnits="userSpaceOnUse">
<stop/>
<stop offset="1" stop-color="#666666"/>
</linearGradient>
<linearGradient id="paint3_linear_1227_3986" x1="14.8292" y1="3.31421" x2="14.8292" y2="9.45628" gradientUnits="userSpaceOnUse">
<stop/>
<stop offset="1" stop-color="#666666"/>
</linearGradient>
<linearGradient id="paint4_linear_1227_3986" x1="11.2845" y1="6.65063" x2="11.2845" y2="11.4791" gradientUnits="userSpaceOnUse">
<stop/>
<stop offset="1" stop-color="#666666"/>
</linearGradient>
<linearGradient id="paint5_linear_1227_3986" x1="6.619" y1="6.65063" x2="6.619" y2="11.4791" gradientUnits="userSpaceOnUse">
<stop/>
<stop offset="1" stop-color="#666666"/>
</linearGradient>
<linearGradient id="paint6_linear_1227_3986" x1="1.97056" y1="6.65063" x2="1.97056" y2="11.4791" gradientUnits="userSpaceOnUse">
<stop/>
<stop offset="1" stop-color="#666666"/>
</linearGradient>
</defs>
</svg>
