<?xml version="1.0" encoding="UTF-8"?>
<svg id="Layer_1" data-name="Layer 1" xmlns="http://www.w3.org/2000/svg" xmlns:xlink="http://www.w3.org/1999/xlink" viewBox="0 0 353.04 181.79">
  <defs>
    <style>
      .cls-1 {
        fill: url(#linear-gradient-15);
      }

      .cls-2 {
        fill: url(#linear-gradient-13);
      }

      .cls-3 {
        fill: #ffce01;
      }

      .cls-4 {
        fill: url(#linear-gradient-2);
      }

      .cls-5 {
        fill: url(#linear-gradient-10);
      }

      .cls-6 {
        fill: url(#linear-gradient-12);
      }

      .cls-7 {
        fill: url(#linear-gradient-4);
      }

      .cls-8 {
        fill: url(#linear-gradient-3);
      }

      .cls-9 {
        fill: url(#linear-gradient-5);
      }

      .cls-10 {
        fill: url(#linear-gradient-22);
      }

      .cls-11 {
        fill: url(#linear-gradient-8);
      }

      .cls-12 {
        fill: url(#linear-gradient-14);
      }

      .cls-13 {
        fill: url(#linear-gradient-20);
      }

      .cls-14 {
        fill: url(#linear-gradient-17);
      }

      .cls-15 {
        fill: url(#linear-gradient-7);
      }

      .cls-16 {
        fill: url(#linear-gradient-9);
      }

      .cls-17 {
        fill: url(#linear-gradient-11);
      }

      .cls-18 {
        fill: url(#linear-gradient-19);
      }

      .cls-19 {
        fill: url(#linear-gradient-6);
      }

      .cls-20 {
        fill: url(#linear-gradient-21);
      }

      .cls-21 {
        fill: url(#linear-gradient-16);
      }

      .cls-22 {
        fill: url(#linear-gradient);
      }

      .cls-23 {
        fill: url(#linear-gradient-18);
      }
    </style>
    <linearGradient id="linear-gradient" x1="131.52" y1="8.8" x2="131.52" y2="175.44" gradientUnits="userSpaceOnUse">
      <stop offset="0" stop-color="#000"/>
      <stop offset=".99" stop-color="#666"/>
    </linearGradient>
    <linearGradient id="linear-gradient-2" x1="160.51" y1="8.8" x2="160.51" y2="175.44" xlink:href="#linear-gradient"/>
    <linearGradient id="linear-gradient-3" x1="201.96" y1="8.8" x2="201.96" y2="175.44" xlink:href="#linear-gradient"/>
    <linearGradient id="linear-gradient-4" x1="229.86" y1="8.8" x2="229.86" y2="175.44" xlink:href="#linear-gradient"/>
    <linearGradient id="linear-gradient-5" x1="257.78" y1="8.8" x2="257.78" y2="175.44" xlink:href="#linear-gradient"/>
    <linearGradient id="linear-gradient-6" x1="296.57" y1="8.8" x2="296.57" y2="175.44" xlink:href="#linear-gradient"/>
    <linearGradient id="linear-gradient-7" x1="139.45" y1="8.8" x2="139.45" y2="175.44" xlink:href="#linear-gradient"/>
    <linearGradient id="linear-gradient-8" x1="174.46" y1="8.8" x2="174.46" y2="175.44" xlink:href="#linear-gradient"/>
    <linearGradient id="linear-gradient-9" x1="206.25" y1="8.8" x2="206.25" y2="175.44" xlink:href="#linear-gradient"/>
    <linearGradient id="linear-gradient-10" x1="245.31" y1="8.8" x2="245.31" y2="175.44" xlink:href="#linear-gradient"/>
    <linearGradient id="linear-gradient-11" x1="279.65" y1="8.8" x2="279.65" y2="175.44" xlink:href="#linear-gradient"/>
    <linearGradient id="linear-gradient-12" x1="304.32" y1="8.8" x2="304.32" y2="175.44" xlink:href="#linear-gradient"/>
    <linearGradient id="linear-gradient-13" x1="336.86" y1="8.8" x2="336.86" y2="175.44" xlink:href="#linear-gradient"/>
    <linearGradient id="linear-gradient-14" x1="138.17" y1="8.8" x2="138.17" y2="175.44" xlink:href="#linear-gradient"/>
    <linearGradient id="linear-gradient-15" x1="166.98" y1="8.8" x2="166.98" y2="175.44" xlink:href="#linear-gradient"/>
    <linearGradient id="linear-gradient-16" x1="200.64" y1="8.8" x2="200.64" y2="175.44" xlink:href="#linear-gradient"/>
    <linearGradient id="linear-gradient-17" x1="237.1" y1="8.8" x2="237.1" y2="175.44" xlink:href="#linear-gradient"/>
    <linearGradient id="linear-gradient-18" x1="276.69" y1="8.8" x2="276.69" y2="175.44" xlink:href="#linear-gradient"/>
    <linearGradient id="linear-gradient-19" x1="311.78" y1="8.8" x2="311.78" y2="175.44" xlink:href="#linear-gradient"/>
    <linearGradient id="linear-gradient-20" x1="78.07" y1="8.8" x2="78.07" y2="175.44" xlink:href="#linear-gradient"/>
    <linearGradient id="linear-gradient-21" x1="14.14" y1="8.8" x2="14.14" y2="175.44" xlink:href="#linear-gradient"/>
    <linearGradient id="linear-gradient-22" x1="40.83" y1="8.8" x2="40.83" y2="175.44" xlink:href="#linear-gradient"/>
  </defs>
  <path class="cls-22" d="M137.36,31.85c-.36,3.11-.6,6.21-.73,9.28-.12,3.08-.19,6.19-.19,9.33s.05,6.21.16,9.28.36,6.17.75,9.28h-11.7c.43-3.08.69-6.16.78-9.26.09-3.09.14-6.2.14-9.31s-.06-6.26-.16-9.33-.36-6.17-.75-9.28h11.7Z"/>
  <path class="cls-4" d="M151.63,31.85c3.18,3.76,6.45,7.41,9.79,10.94,3.35,3.54,6.77,7.05,10.28,10.52-.07-3.61-.21-7.2-.4-10.76-.2-3.56-.53-7.12-.99-10.7h7.14c-.29,2.72-.53,5.48-.73,8.29-.2,2.81-.3,5.63-.3,8.45,0,3.43.03,6.84.08,10.22.06,3.38.12,6.79.19,10.22h-5.37c-3.58-4.01-7.16-7.94-10.76-11.8-3.59-3.86-7.29-7.68-11.08-11.43-.11,1.39-.16,2.79-.16,4.18,0,3.22.08,6.41.24,9.58.16,3.17.49,6.32.99,9.47h-6.98c.39-3.33.65-6.63.78-9.9.12-3.28.19-6.59.19-9.96,0-2.93-.05-5.82-.16-8.66-.11-2.84-.25-5.73-.43-8.67h7.67Z"/>
  <path class="cls-8" d="M199.22,31.85c1.68,0,3.35.05,5.01.13,1.66.09,3.3.37,4.91.83,3.76,1.07,6.55,2.9,8.37,5.5,1.82,2.6,2.73,5.82,2.73,9.69,0,3.58-.64,6.71-1.9,9.39-1.27,2.68-3,4.92-5.18,6.71-2.18,1.79-4.75,3.14-7.7,4.05-2.95.91-6.09,1.37-9.42,1.37-1.9,0-3.94-.05-6.11-.16-2.18-.11-4.18-.45-6.01-1.02.32-2.61.51-5.22.56-7.84.06-2.61.08-5.24.08-7.89,0-3.47-.05-6.93-.13-10.38-.09-3.45-.35-6.91-.78-10.38h15.56ZM194.5,50.74c0,1.72,0,3.51.03,5.37.02,1.86.08,3.65.19,5.37.04.68.11,1.25.22,1.72.11.46.29.83.54,1.1.25.27.6.46,1.05.56s1.03.16,1.74.16c2,0,3.7-.44,5.1-1.32,1.39-.88,2.53-2.01,3.4-3.4.88-1.4,1.53-2.96,1.96-4.7.43-1.73.66-3.46.7-5.18.07-1.79-.08-3.53-.46-5.23-.38-1.7-1.01-3.21-1.91-4.53s-2.07-2.39-3.52-3.19-3.19-1.21-5.23-1.21h-3.81v14.48Z"/>
  <path class="cls-7" d="M235.71,31.85c-.36,3.11-.6,6.21-.72,9.28-.13,3.08-.19,6.19-.19,9.33s.05,6.21.16,9.28c.11,3.08.36,6.17.75,9.28h-11.7c.43-3.08.69-6.16.78-9.26.08-3.09.13-6.2.13-9.31s-.06-6.26-.16-9.33c-.1-3.08-.36-6.17-.75-9.28h11.7Z"/>
  <path class="cls-9" d="M261.67,31.85c1.47,4.04,2.99,8.05,4.59,12.02,1.59,3.97,3.24,7.92,4.96,11.86,1,2.25,2.04,4.48,3.11,6.68,1.08,2.2,2.15,4.41,3.22,6.63h-12.45c-.68-1.82-1.39-3.6-2.15-5.34-.75-1.73-1.48-3.5-2.2-5.28h-11.64c-.65,1.75-1.3,3.51-1.96,5.26s-1.24,3.54-1.74,5.37h-7.41c3.22-6.51,6.28-13.06,9.18-19.64,1.25-2.9,2.48-5.79,3.7-8.69,1.22-2.9,2.34-5.85,3.38-8.85h7.41ZM250.51,53.79h8.64l-4.51-11.27-4.13,11.27Z"/>
  <path class="cls-19" d="M287.69,31.85c3.18,3.76,6.45,7.41,9.79,10.94,3.35,3.54,6.77,7.05,10.28,10.52-.07-3.61-.21-7.2-.4-10.76-.2-3.56-.53-7.12-.99-10.7h7.13c-.29,2.72-.53,5.48-.73,8.29-.2,2.81-.29,5.63-.29,8.45,0,3.43.03,6.84.08,10.22.06,3.38.11,6.79.19,10.22h-5.37c-3.57-4.01-7.16-7.94-10.75-11.8-3.6-3.86-7.29-7.68-11.08-11.43-.11,1.39-.16,2.79-.16,4.18,0,3.22.08,6.41.24,9.58.16,3.17.49,6.32.99,9.47h-6.98c.39-3.33.65-6.63.78-9.9.13-3.28.19-6.59.19-9.96,0-2.93-.05-5.82-.16-8.66-.11-2.84-.25-5.73-.43-8.67h7.67Z"/>
  <path class="cls-15" d="M125.67,116.09c.39-3.11.64-6.21.75-9.28s.16-6.17.16-9.28-.06-6.26-.16-9.33c-.11-3.08-.36-6.17-.75-9.28h15.67c1.61,0,3.14.13,4.59.4,1.45.27,2.72.75,3.81,1.45,1.09.7,1.95,1.65,2.58,2.84.62,1.2.94,2.73.94,4.59s-.32,3.51-.96,4.94c-.65,1.43-1.53,2.62-2.66,3.57-1.13.95-2.45,1.66-3.97,2.14-1.52.49-3.18.73-4.96.73-.43,0-.86-.02-1.29-.06-.43-.03-.86-.09-1.29-.16l-1.18-2.31c1.18-.07,2.14-.35,2.89-.83.75-.49,1.33-1.1,1.75-1.85.41-.75.69-1.61.83-2.58.14-.96.22-1.95.22-2.95,0-2.11-.4-3.57-1.21-4.37-.8-.8-2.21-1.21-4.21-1.21-.36,0-.61.02-.75.05v18.35c0,2.43.07,4.84.22,7.24.14,2.4.37,4.8.7,7.19h-11.7Z"/>
  <path class="cls-11" d="M180.52,101.02c.52.61,1.03,1.27,1.53,1.99.5.71.97,1.41,1.4,2.09.43.68.77,1.22,1.02,1.61,1.04,1.57,2.07,3.14,3.08,4.69,1.02,1.55,2.05,3.12,3.09,4.69h-13.03c-1.43-2.79-2.92-5.49-4.46-8.1-.39-.68-.79-1.37-1.21-2.07s-.87-1.35-1.37-1.96c-.21-.29-.41-.51-.59-.67-.18-.16-.45-.26-.8-.29.07,2.22.15,4.41.24,6.57.09,2.16.28,4.34.56,6.52h-11.7c.4-3.11.65-6.2.75-9.28.11-3.08.16-6.17.16-9.28s-.06-6.26-.16-9.33-.36-6.17-.75-9.28h16.79c1.5,0,2.97.16,4.4.48,1.43.32,2.71.86,3.84,1.61,1.12.75,2.03,1.74,2.71,2.95.68,1.22,1.02,2.72,1.02,4.51,0,3.01-.76,5.4-2.28,7.16-1.52,1.77-3.73,3.03-6.63,3.78.18.07.35.13.51.19.16.05.31.11.46.19.43.22.9.63,1.42,1.23M169.18,98.17c.11,0,.29,0,.56.03.27.02.46.03.56.03,1.07,0,1.98-.25,2.73-.75.75-.5,1.35-1.14,1.8-1.93.44-.79.77-1.67.96-2.66.2-.98.3-1.94.3-2.87,0-1.79-.43-3.26-1.29-4.42-.86-1.16-2.23-1.75-4.13-1.75h-1.5v14.32Z"/>
  <path class="cls-16" d="M218.32,116.09c-2.65-.18-5.29-.29-7.94-.32-2.65-.04-5.27-.06-7.88-.06h-2.47c-.79,0-1.59.04-2.41.11-.65.07-1.29.13-1.93.16-.65.04-1.29.07-1.93.11.39-3.11.65-6.21.75-9.28s.16-6.17.16-9.28-.06-6.26-.16-9.33c-.11-3.08-.36-6.17-.75-9.28,1.11,0,2.2.03,3.27.08,1.08.05,2.16.08,3.27.08,2.65,0,5.27,0,7.86-.03s5.21-.06,7.86-.13v5.79c-1.75-.5-3.5-.85-5.23-1.05-1.74-.2-3.52-.3-5.34-.3-.14,0-.29,0-.43.03-.14.02-.29.03-.43.03v11.48c.18.04.32.06.43.06h.48c1.5,0,3.1-.07,4.8-.22s3.3-.3,4.8-.49v5.48c-1.5-.18-3.01-.33-4.51-.46-1.5-.12-3.02-.19-4.56-.19-.25,0-.5,0-.73.03-.23.02-.47.03-.72.03v5.1c0,1.14.02,2.27.05,3.38.04,1.11.14,2.22.32,3.32,1,.25,2.04.37,3.11.37,1.82,0,3.62-.12,5.39-.37,1.77-.25,3.53-.5,5.29-.75l-.43,5.9Z"/>
  <path class="cls-5" d="M234.2,78.91c1.82,4.25,3.65,8.5,5.47,12.72,1.82,4.22,3.83,8.37,6.01,12.45,2.04-4.11,3.97-8.25,5.79-12.42s3.49-8.42,4.99-12.74h8.58c.29,6.26.77,12.47,1.45,18.64.68,6.17,1.57,12.35,2.68,18.53h-11.59c0-3.79-.13-7.55-.38-11.27-.25-3.72-.59-7.47-1.02-11.27-1.82,3.69-3.56,7.41-5.2,11.16s-3.18,7.55-4.62,11.37h-6.98c-1.64-3.79-3.29-7.55-4.93-11.27-1.65-3.72-3.38-7.44-5.21-11.16-.29,3.11-.51,6.19-.67,9.23-.16,3.04-.24,6.12-.24,9.23v2.04c0,.64.02,1.29.05,1.93h-6.97c.64-2.79,1.16-5.59,1.55-8.4s.73-5.62,1.02-8.45c.36-3.39.68-6.78.96-10.14.29-3.36.43-6.76.43-10.19h8.8Z"/>
  <path class="cls-17" d="M285.49,78.91c-.36,3.11-.6,6.21-.72,9.28-.13,3.08-.19,6.19-.19,9.33s.05,6.21.16,9.28c.11,3.08.36,6.17.75,9.28h-11.7c.43-3.08.69-6.16.78-9.25.09-3.09.14-6.2.14-9.31s-.06-6.26-.16-9.33-.36-6.17-.75-9.28h11.7Z"/>
  <path class="cls-6" d="M316.4,116.09c-2.65-.18-5.29-.29-7.94-.32-2.65-.04-5.27-.06-7.89-.06h-2.47c-.79,0-1.59.04-2.41.11-.65.07-1.29.13-1.93.16-.65.04-1.29.07-1.93.11.39-3.11.65-6.21.75-9.28s.16-6.17.16-9.28-.05-6.26-.16-9.33c-.11-3.08-.36-6.17-.75-9.28,1.11,0,2.2.03,3.27.08,1.07.05,2.16.08,3.27.08,2.64,0,5.26,0,7.86-.03s5.21-.06,7.86-.13v5.79c-1.76-.5-3.5-.85-5.23-1.05-1.74-.2-3.51-.3-5.34-.3-.15,0-.29,0-.43.03-.14.02-.29.03-.43.03v11.48c.18.04.32.06.43.06h.48c1.5,0,3.1-.07,4.8-.22,1.7-.14,3.3-.3,4.8-.49v5.48c-1.5-.18-3.01-.33-4.51-.46-1.5-.12-3.02-.19-4.56-.19-.25,0-.49,0-.73.03-.23.02-.48.03-.72.03v5.1c0,1.14.02,2.27.06,3.38.03,1.11.14,2.22.32,3.32,1,.25,2.04.37,3.11.37,1.82,0,3.62-.12,5.39-.37,1.77-.25,3.53-.5,5.29-.75l-.43,5.9Z"/>
  <path class="cls-2" d="M342.93,101.02c.52.61,1.03,1.27,1.53,1.99.5.71.97,1.41,1.4,2.09.43.68.77,1.22,1.02,1.61,1.04,1.57,2.07,3.14,3.09,4.69,1.02,1.55,2.05,3.12,3.09,4.69h-13.04c-1.43-2.79-2.92-5.49-4.45-8.1-.39-.68-.79-1.37-1.21-2.07s-.87-1.35-1.37-1.96c-.22-.29-.41-.51-.59-.67-.18-.16-.45-.26-.8-.29.07,2.22.15,4.41.24,6.57.09,2.16.28,4.34.56,6.52h-11.7c.4-3.11.65-6.2.76-9.28.1-3.08.16-6.17.16-9.28s-.06-6.26-.16-9.33c-.11-3.08-.36-6.17-.76-9.28h16.79c1.5,0,2.97.16,4.4.48,1.43.32,2.71.86,3.83,1.61,1.13.75,2.03,1.74,2.71,2.95.68,1.22,1.02,2.72,1.02,4.51,0,3.01-.76,5.4-2.28,7.16-1.52,1.77-3.73,3.03-6.62,3.78.18.07.35.13.51.19.16.05.31.11.46.19.43.22.9.63,1.42,1.23M331.58,98.17c.1,0,.29,0,.56.03.27.02.46.03.56.03,1.07,0,1.98-.25,2.74-.75.75-.5,1.35-1.14,1.8-1.93.44-.79.77-1.67.96-2.66.2-.98.29-1.94.29-2.87,0-1.79-.43-3.26-1.29-4.42-.86-1.16-2.23-1.75-4.13-1.75h-1.5v14.32Z"/>
  <path class="cls-12" d="M150.24,163.16c-2.65-.18-5.29-.29-7.94-.32-2.65-.04-5.27-.05-7.88-.05h-2.47c-.82,0-1.65.04-2.47.11-.65.07-1.28.12-1.91.16s-1.26.07-1.9.11c.39-3.11.64-6.21.75-9.28s.16-6.17.16-9.28-.06-6.26-.16-9.34c-.11-3.08-.36-6.17-.75-9.28h11.7c-.36,3.11-.6,6.21-.73,9.28-.12,3.08-.19,6.19-.19,9.34,0,1.04,0,2.08.03,3.11.02,1.04.03,2.08.03,3.11,0,1.18.02,2.38.06,3.59.03,1.22.14,2.41.32,3.59.54.18,1.06.29,1.56.32s1.02.05,1.56.05c1.82,0,3.62-.12,5.39-.37,1.77-.25,3.53-.5,5.28-.75l-.43,5.9Z"/>
  <path class="cls-1" d="M179.05,163.16c-2.65-.18-5.29-.29-7.94-.32-2.65-.04-5.28-.05-7.89-.05h-2.47c-.79,0-1.59.04-2.41.11-.65.07-1.29.12-1.93.16s-1.29.07-1.93.11c.39-3.11.65-6.21.75-9.28s.16-6.17.16-9.28-.06-6.26-.16-9.34c-.11-3.08-.36-6.17-.75-9.28,1.11,0,2.2.03,3.27.08,1.08.06,2.16.08,3.27.08,2.65,0,5.26,0,7.86-.03s5.21-.06,7.86-.14v5.8c-1.76-.5-3.5-.85-5.23-1.05-1.73-.2-3.51-.3-5.34-.3-.14,0-.29,0-.43.03-.15.02-.29.03-.43.03v11.48c.18.04.32.05.43.05h.48c1.5,0,3.1-.07,4.8-.21,1.7-.14,3.3-.3,4.8-.49v5.47c-1.5-.18-3-.33-4.51-.45-1.5-.13-3.02-.19-4.56-.19-.25,0-.49,0-.73.03-.23.02-.48.03-.72.03v5.1c0,1.15.02,2.27.05,3.38s.14,2.22.32,3.33c1,.25,2.04.37,3.11.37,1.82,0,3.62-.12,5.39-.37,1.77-.25,3.53-.5,5.28-.75l-.43,5.9Z"/>
  <path class="cls-21" d="M204.53,125.98c1.47,4.04,3,8.05,4.59,12.02,1.59,3.97,3.24,7.92,4.96,11.86,1,2.25,2.04,4.48,3.11,6.68,1.07,2.2,2.15,4.41,3.22,6.63h-12.45c-.68-1.82-1.39-3.6-2.14-5.34-.75-1.73-1.49-3.49-2.2-5.28h-11.64c-.64,1.75-1.3,3.51-1.96,5.26-.66,1.75-1.24,3.54-1.75,5.37h-7.4c3.22-6.51,6.27-13.05,9.17-19.64,1.25-2.9,2.49-5.79,3.7-8.69,1.22-2.9,2.34-5.84,3.38-8.85h7.41ZM193.37,147.92h8.64l-4.51-11.27-4.13,11.27Z"/>
  <path class="cls-14" d="M254.64,145.99c-.25,1.86-.45,3.71-.59,5.55-.14,1.84-.22,3.69-.22,5.55,0,.82.03,1.62.08,2.38.05.77.17,1.55.35,2.37-.96.36-2.08.66-3.33.93-1.25.26-2.55.48-3.89.64s-2.66.27-3.97.35c-1.3.07-2.48.1-3.51.1-2.72,0-5.29-.4-7.73-1.21-2.43-.8-4.56-1.99-6.39-3.54-1.82-1.55-3.26-3.45-4.32-5.68-1.06-2.23-1.58-4.8-1.58-7.7,0-3.32.63-6.26,1.88-8.8,1.25-2.54,2.93-4.66,5.04-6.36,2.11-1.7,4.56-2.98,7.35-3.86,2.79-.88,5.74-1.32,8.85-1.32,1.79,0,3.61.11,5.45.32,1.84.22,3.55.82,5.12,1.82l-1.77,7.24h-1.02c-1.04-1.68-2.28-2.94-3.73-3.78-1.45-.84-3.16-1.26-5.12-1.26-2.08,0-3.83.44-5.26,1.32-1.43.88-2.58,2.02-3.46,3.44-.88,1.42-1.5,3.01-1.88,4.79-.38,1.77-.56,3.55-.56,5.35,0,1.65.17,3.35.51,5.11.34,1.76.92,3.36,1.75,4.81.82,1.45,1.91,2.64,3.24,3.57s2.99,1.4,4.96,1.4c.54,0,1.07-.02,1.58-.06.52-.03,1.03-.1,1.53-.21.04-.43.06-.86.06-1.29v-1.34c0-1.79-.06-3.56-.19-5.31-.12-1.75-.31-3.52-.56-5.31h11.32Z"/>
  <path class="cls-23" d="M271.97,125.98c-.5,3.68-.79,7.39-.86,11.11-.07,3.72-.11,7.44-.11,11.16,0,1.43.07,2.8.22,4.1.14,1.31.48,2.46,1.02,3.46.53,1,1.31,1.8,2.33,2.41,1.02.61,2.4.91,4.16.91,2.22,0,3.9-.46,5.05-1.37,1.14-.91,1.97-2.08,2.49-3.49.52-1.41.8-2.98.86-4.72.06-1.73.08-3.4.08-5.02,0-3.15-.11-6.26-.32-9.33-.21-3.08-.5-6.15-.86-9.23h7.08c-.32,3.01-.59,6.01-.8,9.01-.14,2.25-.24,4.49-.3,6.7-.05,2.22-.08,4.46-.08,6.71,0,5.29-1.21,9.17-3.62,11.64-2.41,2.47-6.29,3.7-11.62,3.7-2.22,0-4.27-.19-6.17-.56-1.9-.37-3.54-1.05-4.94-2.01-1.39-.96-2.49-2.26-3.27-3.89-.79-1.63-1.18-3.69-1.18-6.2,0-1.25.02-2.48.06-3.67.03-1.2.05-2.42.05-3.67,0-2.97-.07-5.93-.21-8.88-.14-2.95-.4-5.91-.75-8.88h11.7Z"/>
  <path class="cls-18" d="M323.85,163.16c-2.65-.18-5.29-.29-7.94-.32-2.65-.04-5.28-.05-7.89-.05h-2.47c-.79,0-1.59.04-2.41.11-.64.07-1.29.12-1.93.16-.65.04-1.29.07-1.93.11.39-3.11.64-6.21.75-9.28s.16-6.17.16-9.28-.06-6.26-.16-9.34c-.11-3.08-.36-6.17-.75-9.28,1.11,0,2.2.03,3.27.08,1.08.06,2.16.08,3.27.08,2.65,0,5.26,0,7.86-.03,2.59-.02,5.21-.06,7.86-.14v5.8c-1.75-.5-3.5-.85-5.23-1.05-1.74-.2-3.52-.3-5.34-.3-.14,0-.29,0-.43.03-.15.02-.29.03-.43.03v11.48c.18.04.32.05.43.05h.48c1.5,0,3.1-.07,4.8-.21s3.3-.3,4.8-.49v5.47c-1.5-.18-3-.33-4.51-.45-1.5-.13-3.02-.19-4.56-.19-.25,0-.49,0-.72.03-.23.02-.48.03-.73.03v5.1c0,1.15.02,2.27.06,3.38.03,1.11.14,2.22.32,3.33,1,.25,2.04.37,3.11.37,1.82,0,3.62-.12,5.39-.37,1.77-.25,3.53-.5,5.29-.75l-.43,5.9Z"/>
  <path class="cls-13" d="M114.86,126.98c-.04-.47-.3-1.15-.49-1.44-.46-.66-1.1-1.2-1.89-1.4-1.86-.5-3.73.72-5.14,1.91-.28-.67-.56-1.36-.74-2.09l-1.37-2.92c-.52-1.26-1.53-2.02-1.8-3.53-2.77-4.07-4.07-9.61-8.25-12.28-.85-1.06-1.75-2.09-2.82-2.92-1.13-1.93-3.38-2.65-4.04-4.9-.15-.5,0-1.2-.26-1.71-.17-.34-.64-.46-1.12-.87-.38-.32-.71-.79-1.02-1.03-.63-.46-1.39-.82-2-1.25-6.74,7.37-14.32,13.36-22.17,17.8.16.22.32.43.45.62.72,1.08,1.7,2,1.86,3.35.07.59.36,1.11.43,1.69.05.47.24.85.43,1.27.22.51.17,1.05.21,1.58.03.44.23.81.34,1.23.05.2-.06.4,0,.59.04.13.19.17.24.29.13.31.07.79.15,1.13.12.61.32,1.22.28,1.86-.09,1.3.2,2.66.3,3.95.18,1.95.23,3.91.18,5.87-.04,1.01-.11,2.02-.21,3.02-.05.51-.12,1.02-.18,1.53-.05.32-.03,1.27-.23,1.5-1.08,1.19-1.48,2.78-2.49,3.95-.76.88-1.91,1.57-2.83,2.32-.55.46-1.1.92-1.66,1.37-.43.35-.98.64-1.29,1.11-.23.35-.36.78-.55,1.16-.42.91-.9,1.8-1.36,2.69-.32.62-.55,1.28-.85,1.91-.28.55-.65,1.01-.99,1.51-.41.61-.53,1.33-1.07,1.87-.4.4-.82.89-1.08,1.25-.8,1.03-1.15,1.43-1.88,2.5-.72,1.08-1.38,2.37-2.23,3.27-.75.8-1.8,1.44-2.66,2.14-.9.73-1.74,1.24-2.65,2.18-.58,1.16-.45,2.52-.7,3.76-.11.51-.43.9-.43,1.46,0,.62.3,1.3.43,1.97.24,1.24-.06,3,.99,3.92,1.23,1.07,3.25,1.61,4.8,1.61,2.59-.24,4.54-.43,7.19-.63.68-.31.52-1.66.49-1.88-.03-.4-.25-.64.02-1.04,3.49-4.3,6.33-9.24,10.65-12.71.6.86,1.35,1.65,2.06,2.57.64.81,1.27,2.06,2.07,2.58.93.63,1.95,1.13,3.26,1.2,1.43-.76.74-6.76,2.15-9.1,1.05-.21,1.84-.69,2.84-.94,6.4-6.44,13.58-13,20.44-19.24.99-.9,2.02-2.05,3.01-2.66,1.81-1.12,3.98-1.51,5.84-2.49,3.02-3.55,7.96-9.24,7.4-10.47M52.9,178.78c-.64.67-1.7.64-4.14.53-2.43-.11-2.27-.2-3.67-.8-1.17-.5-1.55-.32-1.28-3.38.28-3.24,2.82-2.64,5.56-1.77,2.79.87,2.81,1.16,2.94,1.74.14.59.69,2.33.69,2.33,0,0,.31.91-.11,1.35M72.98,167.93c-.08.81.08,1.34-.84,1.2-1.47-.23-1.51-1.38-2.11-2.27-.69-1.01-1.07-1.73-1.07-1.73.34-.86.54-.54,1.39-.71.81-.18,1.71-.54,2.12-.54s.22-.3.49,1.35c.23,1.38.12,1.83.02,2.71M86.49,132.37c-2.1-.74-4.68-1.86-7.72-1.2-.03.07-.09.09-.09.17.19-.22,2.31.01,1.71.08-1.66.1-3.53.18-4.81.59,2.44-2.35,7.81-1.83,10.66-.25.46.23.53.26.92.5.29.63-.07.3-.67.1M113.64,127.91c-.3.28-.3.32-.6.62-.53.56-.37.56-1.06,1.08-.33.33-.52.45-1.08.93-.65.6-1.09.83-1.9,1.48-.77.64-1.36,1.19-2.23,1.9-.29.22-1.17.78-2.8,1.6-.68.42-1.52.84-2.44.64.78-.75,1.53-1.74,2.66-2.67,1.61-1.31,4.24-1.72,4.12-4.04-.06-1.16-.47-2.19-.91-3.24.28-.18.59-.36.8-.53.5-.38,1.15-.69,1.7-.98.78-.39,1.57-.46,2.45-.29.86.18,1.36,1,1.76,1.74.18.33.31.66.22.91-.38.34-.49.55-.69.84"/>
  <path class="cls-20" d="M18.75,33.28c-5.38,7.47-9.38,15.34-12.07,23.16,2.51-6.1,5.87-12.16,10.21-17.9,1.51-2,3.08-3.89,4.71-5.68-1.03.17-2.03.32-2.84.42"/>
  <path class="cls-3" d="M94.89,6.59C75.47-8.07,42.69,2.55,21.03,30.23c.94-.07,2.1-.15,3.28-.24,19.44-19.51,45.54-25.65,61.98-13.23,18.64,14.06,17.8,46.62-1.87,72.73-10.13,13.42-23.27,22.51-36.18,26.26,15.13-3.53,31.06-14.13,43.23-30.27,21.63-28.68,23.16-63.99,3.43-78.89"/>
  <path class="cls-10" d="M65.87,21.36c.47-.02.93.02,1.41.12.06.02.14.02.19.02.18.08.2.33.47.32.29-.2.79-.19,1.28-.17.36.18.5.59.78.85.18-.71,1.21-.9,1.8-.52.39.26.19.7.6.86-.09-.6.28-.72.64-.85.33.05.38.15.53.3.03.03.17.39.17.39.16.55.29,1.11.49,1.65.14.39.19.86.32,1.09h0s0,.43,0,.43c-.28.15-.65.21-1.03.26.11.32.36.49.43.85-.69.54-1.64-.28-2.32,0,.02.61.55.71.69,1.21-.45.82-1.39.12-2.15.09-.35-.02-.63.23-.95.17-.32-.07-.6-.65-.85-.34-.08.32.94.5.77.94,1.31-.07,2.2,1.1,3.43,1.21.32.02.71-.14,1.03-.09.96.16,1.86,1.79,1.96,4.29,0-.57.45-3.89.45-4.47.59-.24.99-.68,1.55-.94.08-1.03.15-2.09.25-3.09-.96-.17-1.98-.29-2.94-.47-.25-.84-.68-3.11-1.64-3.55.01,0,.02-.01.04-.02-.79-.44-2.09-.47-2.96-.51-.61-.03-1.22-.04-1.82-.02-.27,0-.84.14-1.1.04-.6-.23-.96-.36-1.6-.28-.2.1-.26.18-.27.22-.13.14-.3.32-.07.38.04-.22.23-.28.42-.38M56.51,23.37c-.14-.91.5-1.02,1.02-1.28.18,0,.36-.02.56-.04.44.06.67.59.92.8.05-.43.28-.66.49-.91.34-.03.68-.07,1.03-.12.53.08.49.73.9.94-.06-1.08,1.49-1.33,2.15-.69,0-.31-.13-.5-.18-.78l-7.46.77c-.43,0-.8,0-.96.09.93-.01,1.06.77,1.54,1.2M42.01,61.62s-.02.06-.04.09c-.25.76-.51,1.51-.77,2.28-.07.22-.11.38-.15.48,1.63-.13,3.24-.37,4.82-.75.3-.07.58-.17.87-.25.39-.17.86-.37,1.17-.49-.02-.25-.03-.5-.04-.59-.09-.82-.24-1.64-.43-2.44-.11.04-.22.07-.33.11-.91.3-1.82.56-2.75.77-.74.2-1.48.37-2.19.43-.06.12-.11.24-.17.36M79.89,89.34c-.08-.33-.16-.65-.18-1.04-2-2.89-3.73-5.92-5.59-8.85-.62-.98-1.21-2.11-1.89-3-.63-.81-1.61-1.52-2.4-2.32-2.41-2.42-4.97-4.58-7.48-6.79,1.89-3.71,3.65-7.72,5.67-11.25.68-1.18,1.59-2.43,2.06-3.61.37-.91.51-2.06.78-3.09.79-3.17,1.46-6.11,2.31-9.28.5-.39.97-.81.94-1.72-.71-.09-1.05-.55-1.54-.86-1.33.63-3.97.36-4.21-.86-.32-1.66,2.04-1.8,2.23-2.92-.6.02-1.7.55-1.97.09.56-.42,1.27-.68,1.8-1.12-1.05-.89-2.57-1.32-3.86-1.97-.17-1.35-.83-2.2-.78-3.78.16-.44.41-.67.54-1.26.08-.23.08-.35-.08-.74-.41-.01-.74.07-.97-.06-.46-.43,0-1.31-.35-1.89-.19.62-.24,1.37-.6,1.8-.03-.46-.18-.8-.35-1.12.09,1.28.5,2.25.78,3.35-.96-.15-1.31.29-2.14.26,0,.26-.09.44-.28.51-1.94.66-4.28.92-6.01,1.8-.78-.81-.98-2.22-1.7-3.09.32,1.31,1.07,2.32,1.45,3.79,2.54-.7,4.57-1.9,7.3-2.41.26-.29.9-.47,1.38-.26.06.47.41,1.04.17,1.54-.99-.14-.4-.02-1.03.18-.21-.11-.25.17-.63.22-.43.14-.65.14-1.06.4-.42.19-.35.22-.77.28-.37.18.06,0-.37.18-.41.07-.45.12-.85.25-.62.18-.4.12-.93.26-.8.22-.32.08-1.16.31-1.23.26-.13-.03-1.28.32-.53-.73-1.06-1.46-1.72-2.06-.27.24-.36-.42-.43-1.03-.71-.24-.93-.96-.95-1.89-.24-.04-.6.54-1.03.6-.66-.27-1.15-1.16-2.06-1.28-.74-.11-1.9.29-2.83.43-.72.11-1.43.13-2,.29-4.52.43-20.07,2.95-22.92,3.4,2.98-.26,19.83-2.28,23.56-3.12,1.65-.13,3.36-.61,4.88-.57.15.21.3.45.25.86-2.33.79-4.76,1.02-7.21,1.38-1.41.2-5.86,1.12-6.7,1.28-3.61.72-7.7,1.47-11.68,2.15-1.16.2-2.37.39-3.52.6-6.88,1.25-14.18,1.79-21.39.94-.58-.08-.8.04-.92.15.07-.3.31-.6.55-.74.89-.42,1.96-.83,3.02-1.04h.52c.2-.18-.33-.07-.52-.08-.89-.03-2.36.02-3.01,0-.17.23-.48.56-.54.95-.02.05-.22.98-.22,1.03v.09c.3,1.42.5,2.92,1.28,3.86,2.51.04,4.79.74,7.13.77,1.91.03,3.81-.26,5.68-.34,1.53-.07,3.07-.05,4.64-.17,2.72-.22,5.52-.93,8.25-1.37,8.42-1.37,16.71-2.89,24.57-4.55.76-.79,1.32-1.95,3-1.37.62,1.33,1.12,2.77,1.64,4.21,1.26.38,2.2,1.38,3.78.78-.7-3.25,2.32-3.53,4.29-4.55-.11.33.07.44.09.69,1.76.03,1.53,2.07,2.31,3.09-1.71-.62-3.45.07-4.55.68-.42.23-1.28.69-1.37,1.04-.19.67.28,2.09.42,3.09.16,1.09.5,2.29.44,3.18-.08,1.07-.75,2.21-1.04,3.09-.37,1.16-.66,2.13-.94,3.26-2.32,2.1-4.28,4.54-6.79,6.44-.1-.36-.15-.77-.23-1.15-.28.26-.62.49-.99.69-.02,0-.04.02-.06.04-.07.04-.15.07-.22.11.08.19.14.4.18.61.18.42.33.83.45,1.27.06-.04.11-.07.15-.1.18-.16.36-.32.54-.49.13-.2.25-.41.44-.55.19.5-.03.78-.32,1.03-.2.23-.42.46-.68.66.28,1.21.37,2.46.35,3.64-3.3,2.45-7.93,3.31-11.96,3.55-1.18.06-2.34-.93-3.26-1.57-.79-.55-1.57-1.12-2.34-1.71-.01,0-.02-.02-.04-.04-1.02-.74-1.97-1.65-2.17-2.99,0-.02,0-.03-.02-.05,0,0,0,0,0,0-.06-.42-.05-.89.06-1.4.07.36.1.76.13,1.15.08.2.19.39.24.64.33,1.07,1.25,1.62,2.08,2.25,1.25.94,2.51,1.88,3.84,2.69.51.3.88.52,1.44.49h0s0,0,0,0c.36-1.06.73-2.17,1.1-3.24-.23.02-.45.06-.67.07-1.52.08-3.12.74-4.34-.29-.37-.18-.64-.46-.74-.85.57.04.86.37,1.19.65.19.06.37.11.51.14.13.04.28.05.42.07.88,0,1.69-.06,2.5-.13.04-.01.07-.02.1-.02.43-.08.82-.13,1.21-.19.23-.69.47-1.39.71-2.09.03-.08.04-.14.07-.21-.55.13-1.09.24-1.62.36-1.61.42-3.21.83-4.83,1.21-.33.07-.61.07-.89.01-.01,0-.04.01-.05.01,0,0-.02-.02-.02-.02-.38-.1-.7-.32-.98-.74-.03-.06-.09-.24-.16-.47-.34-.56-.52-1.24-.3-2.12-.06,1.37.87,2.68,1.77,2.89.38,0,.81-.16,1.12-.22.23-.05.46-.11.69-.17.01,0,.02,0,.03,0,0,0,.01,0,.02,0,1.66-.4,3.29-.83,4.93-1.29,2.26-.63,4.52-1.29,6.72-2.11.25-.09.5-.2.76-.29.18-.07.24-.1.32-.13.35-.14.68-.3,1.02-.46.02-.02.03-.02.03-.03.25-.13.44-.23.66-.35.16-.1.33-.2.49-.32.07-.06.13-.1.18-.13.02-.54,0-.42-.17-.86-.3.07-.77.36-1.07.42-.97.21-.72.18-1.52.29-.21-.86-.72-1.45-.94-2.31,1.17-.7,2.7-1.03,2.74-2.84-1.53-.5-2.34-1.17-3.75-1.79-.25-.32-.88-1.34-1.22-2-.59-.94-.41-.51-1.22-1.53-.63-.8-1.43-1.6-2.09-1.93-.6-.3-1.58-.61-2.38-.82-.79-.21-1.59-.59-2.4-.61-.55,0-1.27.22-1.89.35-1.79.36-2.32.6-3.44,1.46-.49.38-1.15.8-1.45,1.2-.13.17-.49.59-.61.78-.24.42-.48.59-.68.97-.37.7-.36.78-.6,1.26-.58,1.19-1.12,2.43-1.35,3.91.03,4.18,2.44,5.83,3.24,9.24.06-.46-.26-1,0-1.37.28.43.18,1.25.26,1.89.64.73,1.75,1,2.07,2.06-.81-.15-1.46-1.38-2.1-1.42,1.01.86,1.93,1.81,3.04,2.37.16.08.41,0,.6.08.94.43,1.64,1.55,2.48,1.81.39.11.49-.06.79.36-1.94.33-2.51-2.27-3.68-1.74-.87.39-1.07.27-2.08.43-.16.8.87,1.99,1.01,2.75.67.96.02,1.44.6,2.49.6.54.97.68,1.48,1.02.29,2.03.1,4.2.77,6.19.76,1.48,2.5,2.47,3.7,3.78,1.31,1.43,3.09,2.96,4.11,3.96,3.54,3.44,6.93,6.31,10.58,9.61.92.84,3.13,2.41,3.6,3.44.41.89.57,2.09.85,3.18.3,1.07.77,2.23.87,3.18.2,1.7-.43,3.32,0,5.15.07.29.25.61.49.94,7.02-4.53,13.66-10.43,19.4-17.56.42-.53.82-1.05,1.22-1.59-.48-.46-1.02-.83-1.78-.94M50.81,55.82c-.09-.05-.2-.05-.31-.01-.03,0-.06.02-.08.03-.04.03-.07.03-.09.03-.67.26-1.34.48-1.91.68-.33.11-.67.21-1,.32-.07.03-.12.05-.18.07.01.2.03.36.05.54.16.6.32,1.19.48,1.77,1.01-.36,2.01-.74,2.99-1.18.24-.11.48-.24.7-.38-.07-.28-.15-.56-.23-.84-.12-.35-.25-.69-.42-1.03M47.33,59.41c-.14-.7-.3-1.62-.66-2.23-.02-.01-.02-.04-.03-.05-.69.22-1.39.46-2.09.66-.45.16-.91.31-1.38.44-.25.74-.51,1.47-.75,2.21-.03.07-.04.14-.05.22.39-.06.77-.11,1.19-.2,1.09-.22,2.16-.51,3.22-.85.2-.05.37-.13.56-.2M47.94,59.91c.22.93.39,1.87.5,2.84,1.01-.26,1.97-.77,2.84-1.13.02-.01.04-.03.06-.04.25-.17.41-.3.55-.36,0-.97-.1-1.94-.29-2.88-.08,0-.16.02-.24.03-1.07.64-2.38,1.08-3.44,1.43,0,.03,0,.06,0,.1"/>
</svg>